<?xml version="1.0" encoding="UTF-8"?>
<!--Generator: Apple Native CoreSVG 175-->
<!DOCTYPE svg
PUBLIC "-//W3C//DTD SVG 1.1//EN"
       "http://www.w3.org/Graphics/SVG/1.1/DTD/svg11.dtd">
<svg version="1.1" xmlns="http://www.w3.org/2000/svg" xmlns:xlink="http://www.w3.org/1999/xlink" width="3300" height="2200">
 <!--glyph: "uni100EBA.medium", point size: 100.0, font version: "17.3d3e1", template writer version: "65.1"-->
 <style>.multicolor-0:systemGrayColor {fill:#8E8E93;opacity:1.0}

.hierarchical-0:secondary {fill:#4D4D4D}
.hierarchical-1:primary {fill:#212121}

.SFSymbolsPreview8E8E93 {fill:#8E8E93;opacity:1.0}
</style>
 <g id="Notes">
  <rect height="2200" id="artboard" style="fill:white;opacity:1" width="3300" x="0" y="0"/>
  <line style="fill:none;stroke:black;opacity:1;stroke-width:0.5;" x1="263" x2="3036" y1="292" y2="292"/>
  <text style="stroke:none;fill:black;font-family:sans-serif;font-size:13;font-weight:bold;" transform="matrix(1 0 0 1 263 322)">Weight/Scale Variations</text>
  <text style="stroke:none;fill:black;font-family:sans-serif;font-size:13;text-anchor:middle;" transform="matrix(1 0 0 1 559.711 322)">Ultralight</text>
  <text style="stroke:none;fill:black;font-family:sans-serif;font-size:13;text-anchor:middle;" transform="matrix(1 0 0 1 856.422 322)">Thin</text>
  <text style="stroke:none;fill:black;font-family:sans-serif;font-size:13;text-anchor:middle;" transform="matrix(1 0 0 1 1153.13 322)">Light</text>
  <text style="stroke:none;fill:black;font-family:sans-serif;font-size:13;text-anchor:middle;" transform="matrix(1 0 0 1 1449.84 322)">Regular</text>
  <text style="stroke:none;fill:black;font-family:sans-serif;font-size:13;text-anchor:middle;" transform="matrix(1 0 0 1 1746.56 322)">Medium</text>
  <text style="stroke:none;fill:black;font-family:sans-serif;font-size:13;text-anchor:middle;" transform="matrix(1 0 0 1 2043.27 322)">Semibold</text>
  <text style="stroke:none;fill:black;font-family:sans-serif;font-size:13;text-anchor:middle;" transform="matrix(1 0 0 1 2339.98 322)">Bold</text>
  <text style="stroke:none;fill:black;font-family:sans-serif;font-size:13;text-anchor:middle;" transform="matrix(1 0 0 1 2636.69 322)">Heavy</text>
  <text style="stroke:none;fill:black;font-family:sans-serif;font-size:13;text-anchor:middle;" transform="matrix(1 0 0 1 2933.4 322)">Black</text>
  <line style="fill:none;stroke:black;opacity:1;stroke-width:0.5;" x1="263" x2="3036" y1="1903" y2="1903"/>
  <g transform="matrix(1 0 0 1 263 1933)">
   <path d="M9.24805 0.830078Q10.8691 0.830078 12.2949 0.214844Q13.7207-0.400391 14.8096-1.49414Q15.8984-2.58789 16.5186-4.01367Q17.1387-5.43945 17.1387-7.05078Q17.1387-8.66211 16.5186-10.0879Q15.8984-11.5137 14.8047-12.6074Q13.7109-13.7012 12.2852-14.3164Q10.8594-14.9316 9.23828-14.9316Q7.62695-14.9316 6.20117-14.3164Q4.77539-13.7012 3.69141-12.6074Q2.60742-11.5137 1.9873-10.0879Q1.36719-8.66211 1.36719-7.05078Q1.36719-5.43945 1.9873-4.01367Q2.60742-2.58789 3.69629-1.49414Q4.78516-0.400391 6.21094 0.214844Q7.63672 0.830078 9.24805 0.830078ZM9.24805-0.654297Q7.91992-0.654297 6.7627-1.14746Q5.60547-1.64062 4.73145-2.51953Q3.85742-3.39844 3.36426-4.56055Q2.87109-5.72266 2.87109-7.05078Q2.87109-8.37891 3.35938-9.54102Q3.84766-10.7031 4.72168-11.582Q5.5957-12.4609 6.75293-12.9541Q7.91016-13.4473 9.23828-13.4473Q10.5762-13.4473 11.7334-12.9541Q12.8906-12.4609 13.7695-11.582Q14.6484-10.7031 15.1465-9.54102Q15.6445-8.37891 15.6445-7.05078Q15.6445-5.72266 15.1514-4.56055Q14.6582-3.39844 13.7842-2.51953Q12.9102-1.64062 11.748-1.14746Q10.5859-0.654297 9.24805-0.654297ZM5.6543-7.05078Q5.6543-6.72852 5.85938-6.52832Q6.06445-6.32812 6.40625-6.32812L8.51562-6.32812L8.51562-4.20898Q8.51562-3.88672 8.71094-3.67676Q8.90625-3.4668 9.23828-3.4668Q9.56055-3.4668 9.77051-3.67676Q9.98047-3.88672 9.98047-4.20898L9.98047-6.32812L12.0898-6.32812Q12.4219-6.32812 12.627-6.52832Q12.832-6.72852 12.832-7.05078Q12.832-7.38281 12.627-7.58789Q12.4219-7.79297 12.0898-7.79297L9.98047-7.79297L9.98047-9.90234Q9.98047-10.2344 9.77051-10.4443Q9.56055-10.6543 9.23828-10.6543Q8.90625-10.6543 8.71094-10.4443Q8.51562-10.2344 8.51562-9.90234L8.51562-7.79297L6.40625-7.79297Q6.06445-7.79297 5.85938-7.58789Q5.6543-7.38281 5.6543-7.05078Z"/>
  </g>
  <g transform="matrix(1 0 0 1 281.867 1933)">
   <path d="M11.709 2.91016Q13.75 2.91016 15.5518 2.12891Q17.3535 1.34766 18.7305-0.0292969Q20.1074-1.40625 20.8887-3.20801Q21.6699-5.00977 21.6699-7.05078Q21.6699-9.0918 20.8887-10.8936Q20.1074-12.6953 18.7305-14.0723Q17.3535-15.4492 15.5469-16.2305Q13.7402-17.0117 11.6992-17.0117Q9.6582-17.0117 7.85645-16.2305Q6.05469-15.4492 4.68262-14.0723Q3.31055-12.6953 2.5293-10.8936Q1.74805-9.0918 1.74805-7.05078Q1.74805-5.00977 2.5293-3.20801Q3.31055-1.40625 4.6875-0.0292969Q6.06445 1.34766 7.86621 2.12891Q9.66797 2.91016 11.709 2.91016ZM11.709 1.25Q9.98047 1.25 8.47656 0.605469Q6.97266-0.0390625 5.83496-1.17676Q4.69727-2.31445 4.05762-3.81836Q3.41797-5.32227 3.41797-7.05078Q3.41797-8.7793 4.05762-10.2832Q4.69727-11.7871 5.83008-12.9297Q6.96289-14.0723 8.4668-14.7119Q9.9707-15.3516 11.6992-15.3516Q13.4277-15.3516 14.9316-14.7119Q16.4355-14.0723 17.5781-12.9297Q18.7207-11.7871 19.3652-10.2832Q20.0098-8.7793 20.0098-7.05078Q20.0098-5.32227 19.3701-3.81836Q18.7305-2.31445 17.5928-1.17676Q16.4551-0.0390625 14.9463 0.605469Q13.4375 1.25 11.709 1.25ZM7.17773-7.05078Q7.17773-6.69922 7.41211-6.47461Q7.64648-6.25 8.01758-6.25L10.8887-6.25L10.8887-3.36914Q10.8887-2.99805 11.1133-2.76855Q11.3379-2.53906 11.6895-2.53906Q12.0605-2.53906 12.29-2.76855Q12.5195-2.99805 12.5195-3.36914L12.5195-6.25L15.4004-6.25Q15.7715-6.25 16.001-6.47461Q16.2305-6.69922 16.2305-7.05078Q16.2305-7.42188 16.001-7.65137Q15.7715-7.88086 15.4004-7.88086L12.5195-7.88086L12.5195-10.752Q12.5195-11.1328 12.29-11.3623Q12.0605-11.5918 11.6895-11.5918Q11.3379-11.5918 11.1133-11.3574Q10.8887-11.123 10.8887-10.752L10.8887-7.88086L8.01758-7.88086Q7.63672-7.88086 7.40723-7.65137Q7.17773-7.42188 7.17773-7.05078Z"/>
  </g>
  <g transform="matrix(1 0 0 1 305.646 1933)">
   <path d="M14.9707 5.66406Q17.0605 5.66406 18.96 5.01465Q20.8594 4.36523 22.4512 3.19336Q24.043 2.02148 25.2197 0.429688Q26.3965-1.16211 27.0459-3.06641Q27.6953-4.9707 27.6953-7.05078Q27.6953-9.14062 27.0459-11.04Q26.3965-12.9395 25.2197-14.5312Q24.043-16.123 22.4512-17.2998Q20.8594-18.4766 18.9551-19.126Q17.0508-19.7754 14.9609-19.7754Q12.8711-19.7754 10.9717-19.126Q9.07227-18.4766 7.48535-17.2998Q5.89844-16.123 4.72168-14.5312Q3.54492-12.9395 2.90039-11.04Q2.25586-9.14062 2.25586-7.05078Q2.25586-4.9707 2.90527-3.06641Q3.55469-1.16211 4.72656 0.429688Q5.89844 2.02148 7.49023 3.19336Q9.08203 4.36523 10.9814 5.01465Q12.8809 5.66406 14.9707 5.66406ZM14.9707 3.84766Q13.1641 3.84766 11.5283 3.2959Q9.89258 2.74414 8.53516 1.74805Q7.17773 0.751953 6.17676-0.610352Q5.17578-1.97266 4.62891-3.6084Q4.08203-5.24414 4.08203-7.05078Q4.08203-8.86719 4.62891-10.5029Q5.17578-12.1387 6.17188-13.501Q7.16797-14.8633 8.52539-15.8594Q9.88281-16.8555 11.5186-17.4023Q13.1543-17.9492 14.9609-17.9492Q16.7773-17.9492 18.4131-17.4023Q20.0488-16.8555 21.4111-15.8594Q22.7734-14.8633 23.7695-13.501Q24.7656-12.1387 25.3174-10.5029Q25.8691-8.86719 25.8691-7.05078Q25.8789-5.24414 25.332-3.6084Q24.7852-1.97266 23.7842-0.610352Q22.7832 0.751953 21.4209 1.74805Q20.0586 2.74414 18.4229 3.2959Q16.7871 3.84766 14.9707 3.84766ZM9.19922-7.05078Q9.19922-6.66992 9.45801-6.4209Q9.7168-6.17188 10.1172-6.17188L14.0625-6.17188L14.0625-2.2168Q14.0625-1.81641 14.3115-1.55762Q14.5605-1.29883 14.9512-1.29883Q15.3516-1.29883 15.6104-1.55273Q15.8691-1.80664 15.8691-2.2168L15.8691-6.17188L19.8242-6.17188Q20.2246-6.17188 20.4785-6.4209Q20.7324-6.66992 20.7324-7.05078Q20.7324-7.46094 20.4785-7.71484Q20.2246-7.96875 19.8242-7.96875L15.8691-7.96875L15.8691-11.9141Q15.8691-12.3242 15.6104-12.583Q15.3516-12.8418 14.9512-12.8418Q14.5605-12.8418 14.3115-12.583Q14.0625-12.3242 14.0625-11.9141L14.0625-7.96875L10.1172-7.96875Q9.70703-7.96875 9.45312-7.71484Q9.19922-7.46094 9.19922-7.05078Z"/>
  </g>
  <text style="stroke:none;fill:black;font-family:sans-serif;font-size:13;font-weight:bold;" transform="matrix(1 0 0 1 263 1953)">Design Variations</text>
  <text style="stroke:none;fill:black;font-family:sans-serif;font-size:13;" transform="matrix(1 0 0 1 263 1971)">Symbols are supported in up to nine weights and three scales.</text>
  <text style="stroke:none;fill:black;font-family:sans-serif;font-size:13;" transform="matrix(1 0 0 1 263 1989)">For optimal layout with text and other symbols, vertically align</text>
  <text style="stroke:none;fill:black;font-family:sans-serif;font-size:13;" transform="matrix(1 0 0 1 263 2007)">symbols with the adjacent text.</text>
  <line style="fill:none;stroke:#00AEEF;stroke-width:0.5;opacity:1.0;" x1="776" x2="776" y1="1919" y2="1933"/>
  <g transform="matrix(1 0 0 1 776 1933)">
   <path d="M3.31055 0.15625Q3.70117 0.15625 3.91602-0.00976562Q4.13086-0.175781 4.26758-0.585938L5.52734-4.0332L11.2891-4.0332L12.5488-0.585938Q12.6855-0.175781 12.9004-0.00976562Q13.1152 0.15625 13.4961 0.15625Q13.8867 0.15625 14.1162-0.0585938Q14.3457-0.273438 14.3457-0.644531Q14.3457-0.869141 14.2383-1.17188L9.6582-13.3691Q9.48242-13.8184 9.17969-14.043Q8.87695-14.2676 8.4082-14.2676Q7.5-14.2676 7.17773-13.3789L2.59766-1.16211Q2.49023-0.859375 2.49023-0.634766Q2.49023-0.263672 2.70996-0.0537109Q2.92969 0.15625 3.31055 0.15625ZM6.00586-5.51758L8.37891-12.0898L8.42773-12.0898L10.8008-5.51758Z"/>
  </g>
  <line style="fill:none;stroke:#00AEEF;stroke-width:0.5;opacity:1.0;" x1="793.197" x2="793.197" y1="1919" y2="1933"/>
  <text style="stroke:none;fill:black;font-family:sans-serif;font-size:13;font-weight:bold;" transform="matrix(1 0 0 1 776 1953)">Margins</text>
  <text style="stroke:none;fill:black;font-family:sans-serif;font-size:13;" transform="matrix(1 0 0 1 776 1971)">Leading and trailing margins on the left and right side of each symbol</text>
  <text style="stroke:none;fill:black;font-family:sans-serif;font-size:13;" transform="matrix(1 0 0 1 776 1989)">can be adjusted by modifying the x-location of the margin guidelines.</text>
  <text style="stroke:none;fill:black;font-family:sans-serif;font-size:13;" transform="matrix(1 0 0 1 776 2007)">Modifications are automatically applied proportionally to all</text>
  <text style="stroke:none;fill:black;font-family:sans-serif;font-size:13;" transform="matrix(1 0 0 1 776 2025)">scales and weights.</text>
  <g transform="matrix(1 0 0 1 1289 1933)">
   <path d="M2.8418 1.86523L4.54102 3.57422Q5.18555 4.22852 5.90332 4.17969Q6.62109 4.13086 7.31445 3.35938L18.0078-8.42773L17.041-9.4043L6.42578 2.27539Q6.16211 2.57812 5.89355 2.61719Q5.625 2.65625 5.27344 2.30469L4.10156 1.14258Q3.75 0.791016 3.79395 0.522461Q3.83789 0.253906 4.14062-0.0195312L15.6152-10.8203L14.6387-11.7871L3.04688-0.898438Q2.30469-0.214844 2.25098 0.498047Q2.19727 1.21094 2.8418 1.86523ZM9.25781-16.3281Q8.94531-16.0254 8.90625-15.6348Q8.86719-15.2441 9.04297-14.9512Q9.21875-14.6777 9.55566-14.541Q9.89258-14.4043 10.3809-14.5215Q11.4746-14.7754 12.5977-14.7314Q13.7207-14.6875 14.7949-13.9844L14.209-12.5293Q13.9551-11.9043 14.0674-11.4404Q14.1797-10.9766 14.5801-10.5664L16.875-8.25195Q17.2363-7.88086 17.5781-7.82227Q17.9199-7.76367 18.3398-7.8418L19.4043-8.03711L20.0684-7.36328L20.0293-6.80664Q20-6.43555 20.1221-6.12305Q20.2441-5.81055 20.6055-5.44922L21.3672-4.70703Q21.7285-4.3457 22.1533-4.33105Q22.5781-4.31641 22.9297-4.66797L25.8398-7.58789Q26.1914-7.93945 26.1816-8.35449Q26.1719-8.76953 25.8105-9.13086L25.0391-9.89258Q24.6875-10.2539 24.3799-10.3857Q24.0723-10.5176 23.7109-10.4883L23.1348-10.4395L22.4902-11.0742L22.7344-12.1973Q22.832-12.6172 22.6953-12.9834Q22.5586-13.3496 22.1191-13.7891L19.9219-15.9766Q18.6719-17.2168 17.2607-17.8369Q15.8496-18.457 14.4189-18.4814Q12.9883-18.5059 11.665-17.959Q10.3418-17.4121 9.25781-16.3281ZM10.752-15.957Q11.6602-16.6211 12.7002-16.9043Q13.7402-17.1875 14.8047-17.085Q15.8691-16.9824 16.8701-16.5137Q17.8711-16.0449 18.7012-15.2051L21.1328-12.793Q21.3086-12.6172 21.3525-12.4512Q21.3965-12.2852 21.3379-12.0312L21.0156-10.5469L22.5195-9.0625L23.5059-9.12109Q23.6914-9.13086 23.7891-9.09668Q23.8867-9.0625 24.0332-8.91602L24.6094-8.33984L22.168-5.89844L21.5918-6.47461Q21.4453-6.62109 21.4062-6.71875Q21.3672-6.81641 21.377-7.01172L21.4453-7.98828L19.9512-9.47266L18.4277-9.21875Q18.1836-9.16992 18.042-9.2041Q17.9004-9.23828 17.7148-9.41406L15.7129-11.416Q15.5176-11.5918 15.4932-11.7529Q15.4688-11.9141 15.5859-12.1875L16.4648-14.2773Q15.293-15.3711 13.8281-15.791Q12.3633-16.2109 10.8398-15.7617Q10.7227-15.7324 10.6885-15.8057Q10.6543-15.8789 10.752-15.957Z"/>
  </g>
  <text style="stroke:none;fill:black;font-family:sans-serif;font-size:13;font-weight:bold;" transform="matrix(1 0 0 1 1289 1953)">Exporting</text>
  <text style="stroke:none;fill:black;font-family:sans-serif;font-size:13;" transform="matrix(1 0 0 1 1289 1971)">Symbols should be outlined when exporting to ensure the</text>
  <text style="stroke:none;fill:black;font-family:sans-serif;font-size:13;" transform="matrix(1 0 0 1 1289 1989)">design is preserved when submitting to Xcode.</text>
  <text id="template-version" style="stroke:none;fill:black;font-family:sans-serif;font-size:13;text-anchor:end;" transform="matrix(1 0 0 1 3036 1933)">Template v.3.0</text>
  <text style="stroke:none;fill:black;font-family:sans-serif;font-size:13;text-anchor:end;" transform="matrix(1 0 0 1 3036 1951)">Requires Xcode 13 or greater</text>
  <text id="descriptive-name" style="stroke:none;fill:black;font-family:sans-serif;font-size:13;text-anchor:end;" transform="matrix(1 0 0 1 3036 1969)">Generated from gear.circle</text>
  <text style="stroke:none;fill:black;font-family:sans-serif;font-size:13;text-anchor:end;" transform="matrix(1 0 0 1 3036 1987)">Typeset at 100 points</text>
  <text style="stroke:none;fill:black;font-family:sans-serif;font-size:13;" transform="matrix(1 0 0 1 263 726)">Small</text>
  <text style="stroke:none;fill:black;font-family:sans-serif;font-size:13;" transform="matrix(1 0 0 1 263 1156)">Medium</text>
  <text style="stroke:none;fill:black;font-family:sans-serif;font-size:13;" transform="matrix(1 0 0 1 263 1586)">Large</text>
 </g>
 <g id="Guides">
  <g id="H-reference" style="fill:#27AAE1;stroke:none;" transform="matrix(1 0 0 1 339 696)">
   <path d="M0.993347 0L3.6377 0L29.3282-67.1326L30.0301-67.1326L30.0301-70.459L28.1227-70.459ZM11.6882-24.4797L46.9818-24.4797L46.2311-26.7288L12.4382-26.7288ZM55.1193 0L57.7637 0L30.6381-70.459L29.4327-70.459L29.4327-67.1326Z"/>
  </g>
  <line id="Baseline-S" style="fill:none;stroke:#27AAE1;opacity:1;stroke-width:0.5;" x1="263" x2="3036" y1="696" y2="696"/>
  <line id="Capline-S" style="fill:none;stroke:#27AAE1;opacity:1;stroke-width:0.5;" x1="263" x2="3036" y1="625.541" y2="625.541"/>
  <g id="H-reference" style="fill:#27AAE1;stroke:none;" transform="matrix(1 0 0 1 339 1126)">
   <path d="M0.993347 0L3.6377 0L29.3282-67.1326L30.0301-67.1326L30.0301-70.459L28.1227-70.459ZM11.6882-24.4797L46.9818-24.4797L46.2311-26.7288L12.4382-26.7288ZM55.1193 0L57.7637 0L30.6381-70.459L29.4327-70.459L29.4327-67.1326Z"/>
  </g>
  <line id="Baseline-M" style="fill:none;stroke:#27AAE1;opacity:1;stroke-width:0.5;" x1="263" x2="3036" y1="1126" y2="1126"/>
  <line id="Capline-M" style="fill:none;stroke:#27AAE1;opacity:1;stroke-width:0.5;" x1="263" x2="3036" y1="1055.54" y2="1055.54"/>
  <g id="H-reference" style="fill:#27AAE1;stroke:none;" transform="matrix(1 0 0 1 339 1556)">
   <path d="M0.993347 0L3.6377 0L29.3282-67.1326L30.0301-67.1326L30.0301-70.459L28.1227-70.459ZM11.6882-24.4797L46.9818-24.4797L46.2311-26.7288L12.4382-26.7288ZM55.1193 0L57.7637 0L30.6381-70.459L29.4327-70.459L29.4327-67.1326Z"/>
  </g>
  <line id="Baseline-L" style="fill:none;stroke:#27AAE1;opacity:1;stroke-width:0.5;" x1="263" x2="3036" y1="1556" y2="1556"/>
  <line id="Capline-L" style="fill:none;stroke:#27AAE1;opacity:1;stroke-width:0.5;" x1="263" x2="3036" y1="1485.54" y2="1485.54"/>
  <line id="left-margin-Ultralight-S" style="fill:none;stroke:#00AEEF;stroke-width:0.5;opacity:1.0;" x1="515.649" x2="515.649" y1="600.785" y2="720.121"/>
  <line id="right-margin-Ultralight-S" style="fill:none;stroke:#00AEEF;stroke-width:0.5;opacity:1.0;" x1="603.773" x2="603.773" y1="600.785" y2="720.121"/>
  <line id="left-margin-Regular-S" style="fill:none;stroke:#00AEEF;stroke-width:0.5;opacity:1.0;" x1="1403.58" x2="1403.58" y1="600.785" y2="720.121"/>
  <line id="right-margin-Regular-S" style="fill:none;stroke:#00AEEF;stroke-width:0.5;opacity:1.0;" x1="1496.11" x2="1496.11" y1="600.785" y2="720.121"/>
  <line id="left-margin-Black-S" style="fill:none;stroke:#00AEEF;stroke-width:0.5;opacity:1.0;" x1="2884.57" x2="2884.57" y1="600.785" y2="720.121"/>
  <line id="right-margin-Black-S" style="fill:none;stroke:#00AEEF;stroke-width:0.5;opacity:1.0;" x1="2982.23" x2="2982.23" y1="600.785" y2="720.121"/>
 </g>
 <g id="Symbols">
  <g id="Black-S" transform="matrix(1 0 0 1 2884.57 696)">
   <path class="multicolor-0:systemGrayColor hierarchical-0:secondary SFSymbolsPreview8E8E93" d="M48.8281 6.78711Q57.5195 6.78711 65.1123 3.51562Q72.7051 0.244141 78.4912-5.54199Q84.2773-11.3281 87.5488-18.9209Q90.8203-26.5137 90.8203-35.2051Q90.8203-43.8965 87.5488-51.4893Q84.2773-59.082 78.4912-64.8682Q72.7051-70.6543 65.1123-73.9258Q57.5195-77.1973 48.8281-77.1973Q40.1367-77.1973 32.5439-73.9258Q24.9512-70.6543 19.165-64.8682Q13.3789-59.082 10.1074-51.4893Q6.83594-43.8965 6.83594-35.2051Q6.83594-26.5137 10.1074-18.9209Q13.3789-11.3281 19.165-5.54199Q24.9512 0.244141 32.5439 3.51562Q40.1367 6.78711 48.8281 6.78711ZM48.8281-7.37305Q43.0664-7.37305 38.0127-9.5459Q32.959-11.7188 29.1504-15.5273Q25.3418-19.3359 23.1689-24.3896Q20.9961-29.4434 20.9961-35.2051Q20.9961-40.9668 23.1689-46.0205Q25.3418-51.0742 29.1504-54.8828Q32.959-58.6914 38.0127-60.8643Q43.0664-63.0371 48.8281-63.0371Q54.5898-63.0371 59.6436-60.8643Q64.6973-58.6914 68.5059-54.8828Q72.3145-51.0742 74.4873-46.0205Q76.6602-40.9668 76.6602-35.2051Q76.6602-29.4434 74.4873-24.3896Q72.3145-19.3359 68.5059-15.5273Q64.6973-11.7188 59.6436-9.5459Q54.5898-7.37305 48.8281-7.37305Z"/>
   <path class="multicolor-0:systemGrayColor hierarchical-1:primary SFSymbolsPreview8E8E93" d="M48.877-16.4551Q49.1211-16.4551 49.3408-16.4551Q49.5605-16.4551 49.7559-16.5039L50.6348-14.8438Q51.2207-13.5742 52.6367-13.8184Q53.9551-14.0625 54.1504-15.4297L54.4434-17.334Q54.8828-17.4316 55.2979-17.6025Q55.7129-17.7734 56.1523-17.9199L57.5195-16.6992Q58.5938-15.8203 59.7656-16.4062Q60.8887-17.0898 60.6445-18.457L60.2539-20.3125Q60.5957-20.5566 60.9619-20.8496Q61.3281-21.1426 61.6699-21.4844L63.3789-20.752Q64.5996-20.2148 65.5762-21.2891Q66.3574-22.3145 65.6738-23.4863L64.6973-25.0977Q64.9414-25.4883 65.1611-25.8789Q65.3809-26.2695 65.5762-26.6602L67.4805-26.6113Q68.9453-26.6113 69.3359-27.832Q69.7754-29.1504 68.7012-29.9805L67.1875-31.1035Q67.2852-31.543 67.3828-32.0068Q67.4805-32.4707 67.5293-32.9102L69.3359-33.4961Q70.6543-33.8867 70.6543-35.3027Q70.6543-36.6699 69.3359-37.0605L67.5293-37.6465Q67.4805-38.0859 67.3828-38.5498Q67.2852-39.0137 67.1875-39.4531L68.7012-40.625Q69.7266-41.4551 69.3359-42.6758Q68.9453-43.9453 67.4805-43.9453L65.5762-43.8965Q65.3809-44.2871 65.1611-44.7021Q64.9414-45.1172 64.6973-45.5078L65.6738-47.0703Q66.4062-48.1934 65.5762-49.2676Q64.6484-50.293 63.3789-49.8047L61.6211-49.1211Q61.2793-49.4141 60.9375-49.707Q60.5957-50 60.2539-50.293L60.6445-52.0996Q60.9863-53.4668 59.7168-54.1504Q58.4473-54.834 57.5195-53.9062L56.1523-52.6367Q55.7129-52.832 55.2734-52.9785Q54.834-53.125 54.4434-53.2715L54.1504-55.127Q53.9062-56.543 52.5879-56.7383Q51.3184-56.9824 50.6836-55.7617L49.7559-54.1016Q49.5605-54.1016 49.3408-54.1016Q49.1211-54.1016 48.877-54.1016Q48.6328-54.1016 48.4131-54.1016Q48.1934-54.1016 47.9492-54.1016L47.0703-55.7617Q46.4844-56.9824 45.0684-56.7383Q43.7988-56.4941 43.5547-55.127L43.2617-53.2715Q42.8711-53.125 42.4316-52.9785Q41.9922-52.832 41.5527-52.6367L40.1855-53.8574Q39.3066-54.834 37.9395-54.1504Q36.7188-53.4668 37.0605-52.0996L37.4512-50.293Q37.1094-50 36.7676-49.707Q36.4258-49.4141 36.084-49.1211L34.3262-49.8047Q33.0566-50.293 32.1289-49.2676Q31.2988-48.1934 32.0312-47.0703L33.0078-45.5078Q32.8125-45.1172 32.5684-44.7021Q32.3242-44.2871 32.1289-43.8965L30.2246-43.9453Q28.7598-43.9453 28.3691-42.7246Q27.9785-41.4062 29.0039-40.625L30.5176-39.4531Q30.4199-39.0137 30.3223-38.5498Q30.2246-38.0859 30.1758-37.6465L28.3691-37.0605Q27.0508-36.6699 27.0508-35.3027Q27.0508-33.8867 28.3691-33.4961L30.1758-32.9102Q30.2246-32.4707 30.3223-32.0068Q30.4199-31.543 30.5176-31.1035L29.0039-29.9805Q27.9297-29.1504 28.3691-27.8809Q28.7598-26.6113 30.2734-26.6113L32.1289-26.6602Q32.3242-26.2695 32.5684-25.8789Q32.8125-25.4883 33.0078-25.0977L31.9824-23.4863Q31.2988-22.4121 32.1289-21.2891Q33.1055-20.2148 34.3262-20.752L36.0352-21.4844Q36.4258-21.1426 36.7676-20.8496Q37.1094-20.5566 37.4512-20.3125L37.0605-18.457Q36.8164-17.0898 37.9883-16.4062Q39.209-15.7715 40.1855-16.6504L41.5527-17.9199Q41.9922-17.7734 42.4072-17.6025Q42.8223-17.4316 43.2617-17.334L43.5547-15.4297Q43.75-14.0625 45.1172-13.8184Q46.3867-13.5742 47.0703-14.8438L47.9492-16.5039Q48.1934-16.4551 48.4131-16.4551Q48.6328-16.4551 48.877-16.4551ZM48.8281-21.9238Q45.166-21.9238 42.2363-23.7305Q39.3066-25.5371 37.5977-28.5645Q35.8887-31.5918 35.8887-35.3027Q35.8887-39.0137 37.5977-42.0166Q39.3066-45.0195 42.2363-46.8262Q45.166-48.6328 48.8281-48.6328Q52.4902-48.6328 55.4199-46.8262Q58.3496-45.0195 60.083-42.0166Q61.8164-39.0137 61.8164-35.3027Q61.8164-31.5918 60.083-28.5645Q58.3496-25.5371 55.4199-23.7305Q52.4902-21.9238 48.8281-21.9238ZM48.8281-28.8574Q50.6348-28.8574 52.2461-29.834Q53.8574-30.8105 54.6875-32.7637L64.3555-32.7637L64.3555-37.8906L54.6875-37.8906Q53.8574-39.8438 52.2461-40.8203Q50.6348-41.7969 48.8281-41.7969Q48.6816-41.7969 48.4619-41.7969Q48.2422-41.7969 47.998-41.6992L43.2129-50L38.6719-47.9004L43.75-39.1113Q42.4805-37.3535 42.4805-35.3027Q42.4805-33.3984 43.75-31.6406L38.4766-22.8516L42.9199-20.7031L47.9004-28.9062Q48.1934-28.8574 48.4131-28.8574Q48.6328-28.8574 48.8281-28.8574ZM46.7285-35.3027Q46.7285-36.1816 47.3389-36.7676Q47.9492-37.3535 48.8281-37.3535Q49.6582-37.3535 50.2686-36.7676Q50.8789-36.1816 50.8789-35.3027Q50.8789-34.4238 50.2686-33.8135Q49.6582-33.2031 48.8281-33.2031Q47.998-33.2031 47.3633-33.8135Q46.7285-34.4238 46.7285-35.3027Z"/>
  </g>
  <g id="Regular-S" transform="matrix(1 0 0 1 1403.58 696)">
   <path class="multicolor-0:systemGrayColor hierarchical-0:secondary SFSymbolsPreview8E8E93" d="M46.2402 4.15039Q54.3457 4.15039 61.4746 1.07422Q68.6035-2.00195 74.0479-7.4707Q79.4922-12.9395 82.5928-20.0684Q85.6934-27.1973 85.6934-35.2539Q85.6934-43.3105 82.5928-50.4395Q79.4922-57.5684 74.0234-63.0371Q68.5547-68.5059 61.4258-71.582Q54.2969-74.6582 46.1914-74.6582Q38.1348-74.6582 31.0059-71.582Q23.877-68.5059 18.457-63.0371Q13.0371-57.5684 9.93652-50.4395Q6.83594-43.3105 6.83594-35.2539Q6.83594-27.1973 9.93652-20.0684Q13.0371-12.9395 18.4814-7.4707Q23.9258-2.00195 31.0547 1.07422Q38.1836 4.15039 46.2402 4.15039ZM46.2402-3.27148Q39.5996-3.27148 33.8135-5.7373Q28.0273-8.20312 23.6572-12.5977Q19.2871-16.9922 16.8213-22.8027Q14.3555-28.6133 14.3555-35.2539Q14.3555-41.8945 16.7969-47.7051Q19.2383-53.5156 23.6084-57.9102Q27.9785-62.3047 33.7646-64.7705Q39.5508-67.2363 46.1914-67.2363Q52.8809-67.2363 58.667-64.7705Q64.4531-62.3047 68.8477-57.9102Q73.2422-53.5156 75.7324-47.7051Q78.2227-41.8945 78.2227-35.2539Q78.2227-28.6133 75.7568-22.8027Q73.291-16.9922 68.9209-12.5977Q64.5508-8.20312 58.7402-5.7373Q52.9297-3.27148 46.2402-3.27148Z"/>
   <path class="multicolor-0:systemGrayColor hierarchical-1:primary SFSymbolsPreview8E8E93" d="M46.1914-13.7695Q46.5332-13.7695 46.8506-13.7939Q47.168-13.8184 47.5098-13.8184L48.6328-11.7676Q49.1699-10.498 50.5371-10.7422Q51.7578-10.9863 52.002-12.2559L52.3438-14.6973Q52.9297-14.8926 53.5645-15.1123Q54.1992-15.332 54.7852-15.5273L56.4941-14.0137Q57.4219-13.1348 58.6914-13.7207Q59.7168-14.3555 59.5215-15.6738L58.9844-18.0664Q59.5703-18.457 60.0586-18.8721Q60.5469-19.2871 60.9863-19.6777L63.1836-18.7988Q64.4043-18.2617 65.332-19.3359Q66.1133-20.3125 65.4297-21.3867L64.1602-23.4375Q64.502-23.9746 64.8193-24.5361Q65.1367-25.0977 65.4297-25.7324L67.8711-25.5859Q69.1895-25.5859 69.5801-26.7578Q70.0684-28.0273 68.9941-28.8086L67.0898-30.2734Q67.2363-30.9082 67.3828-31.543Q67.5293-32.1777 67.5781-32.9102L69.8242-33.5938Q71.0938-34.0332 71.0938-35.3027Q71.0938-36.5723 69.8242-37.0117L67.5781-37.6953Q67.5293-38.3789 67.3828-39.0137Q67.2363-39.6484 67.0898-40.2832L68.9941-41.748Q70.0684-42.627 69.5801-43.7988Q69.1895-45.0684 67.8223-44.9707L65.4297-44.873Q65.0879-45.5566 64.7705-46.1182Q64.4531-46.6797 64.1602-47.168L65.4297-49.2188Q66.1133-50.293 65.2832-51.2695Q64.3555-52.2949 63.2324-51.8066L60.9863-50.9766Q60.5469-51.3672 60.0342-51.7822Q59.5215-52.1973 58.9844-52.5391L59.5215-54.8828Q59.7168-56.2988 58.6914-56.8359Q57.4707-57.5684 56.4941-56.543L54.7852-55.0781Q54.1992-55.2734 53.5889-55.4932Q52.9785-55.7129 52.3438-55.9082L52.002-58.3496Q51.7578-59.5703 50.5371-59.8145Q49.2188-60.0586 48.6328-58.9355L47.5098-56.7383Q47.168-56.7383 46.875-56.7627Q46.582-56.7871 46.1914-56.7871Q45.8496-56.7871 45.5322-56.7627Q45.2148-56.7383 44.9219-56.7383L43.75-58.9355Q43.1641-60.0586 41.8457-59.8145Q40.625-59.5703 40.3809-58.3496L40.0879-55.9082Q39.4531-55.7129 38.8428-55.4932Q38.2324-55.2734 37.6465-55.0781L35.8887-56.543Q34.9121-57.5684 33.7402-56.8359Q32.6172-56.25 32.8613-54.8828L33.3984-52.5391Q32.8613-52.1973 32.3486-51.7822Q31.8359-51.3672 31.3965-50.9766L29.1504-51.8066Q27.9785-52.2949 27.1484-51.2695Q26.2207-50.3906 26.9043-49.2188L28.2227-47.168Q27.8809-46.6309 27.5635-46.0449Q27.2461-45.459 26.9531-44.873L24.5605-44.9707Q23.1934-45.0684 22.8027-43.7988Q22.3145-42.7246 23.3887-41.748L25.2441-40.2832Q25.0977-39.5508 25-38.9404Q24.9023-38.3301 24.8047-37.6953L22.5586-37.0605Q21.2891-36.5723 21.2891-35.3027Q21.2891-34.0332 22.5586-33.5938L24.8047-32.9102Q24.9023-32.2754 25-31.6406Q25.0977-31.0059 25.2441-30.2734L23.3887-28.8086Q22.3145-27.9785 22.8027-26.7578Q23.1934-25.5859 24.5117-25.5859L26.9531-25.7324Q27.2461-25.0977 27.5635-24.5361Q27.8809-23.9746 28.2227-23.4375L26.9043-21.3867Q26.2207-20.2637 27.0996-19.3359Q27.9297-18.2129 29.1992-18.7988L31.3965-19.6777Q31.7871-19.2871 32.2754-18.8721Q32.7637-18.457 33.3984-18.0664L32.8613-15.6738Q32.6172-14.3555 33.7402-13.7207Q34.9609-13.0371 35.8887-14.0137L37.5977-15.5273Q38.2324-15.332 38.8428-15.1123Q39.4531-14.8926 40.0879-14.6973L40.3809-12.3047Q40.5762-10.9863 41.8457-10.7422Q43.1641-10.498 43.75-11.7676L44.9219-13.8184Q45.2148-13.8184 45.5322-13.7939Q45.8496-13.7695 46.1914-13.7695ZM46.1914-18.5059Q41.5527-18.5059 37.793-20.752Q34.0332-22.998 31.8115-26.7822Q29.5898-30.5664 29.5898-35.2539Q29.5898-39.9414 31.8115-43.75Q34.0332-47.5586 37.793-49.8047Q41.5527-52.0508 46.1914-52.0508Q50.8789-52.0508 54.6387-49.8047Q58.3984-47.5586 60.5957-43.75Q62.793-39.9414 62.793-35.2539Q62.793-30.5664 60.5957-26.7822Q58.3984-22.998 54.6387-20.752Q50.8789-18.5059 46.1914-18.5059ZM46.0938-28.8574Q48.0957-28.8574 49.6338-29.9805Q51.1719-31.1035 52.0996-33.2031L66.0156-33.2031L66.0156-37.3535L52.0996-37.3535Q51.1719-39.4043 49.6338-40.5029Q48.0957-41.6016 46.0938-41.6016Q45.8984-41.6016 45.6299-41.5771Q45.3613-41.5527 44.9219-41.4551L37.9883-53.3691L34.3262-51.3184L41.4062-39.2578Q39.8438-37.4023 39.8438-35.2051Q39.8438-33.1543 41.3574-31.2988L33.9844-19.3848L37.5977-17.1875L44.873-29.0039Q45.3125-28.9062 45.6055-28.8818Q45.8984-28.8574 46.0938-28.8574ZM44.1895-35.2539Q44.1895-35.9863 44.7754-36.5723Q45.3613-37.1582 46.1426-37.1582Q47.0215-37.1582 47.6074-36.5967Q48.1934-36.0352 48.1934-35.2539Q48.1934-34.4727 47.6074-33.8867Q47.0215-33.3008 46.1426-33.3008Q45.3613-33.3008 44.7754-33.8867Q44.1895-34.4727 44.1895-35.2539Z"/>
  </g>
  <g id="Ultralight-S" transform="matrix(1 0 0 1 515.649 696)">
   <path class="multicolor-0:systemGrayColor hierarchical-0:secondary SFSymbolsPreview8E8E93" d="M44.043 1.95312Q51.7578 1.95312 58.4717-0.927734Q65.1855-3.80859 70.3369-8.95996Q75.4883-14.1113 78.3936-20.8252Q81.2988-27.5391 81.2988-35.2539Q81.2988-42.9688 78.3936-49.6826Q75.4883-56.3965 70.3369-61.5479Q65.1855-66.6992 58.4717-69.5801Q51.7578-72.4609 44.043-72.4609Q36.377-72.4609 29.6387-69.5801Q22.9004-66.6992 17.7734-61.5479Q12.6465-56.3965 9.74121-49.6826Q6.83594-42.9688 6.83594-35.2539Q6.83594-27.5391 9.74121-20.8252Q12.6465-14.1113 17.7734-8.95996Q22.9004-3.80859 29.6387-0.927734Q36.377 1.95312 44.043 1.95312ZM44.043-0.292969Q36.8164-0.292969 30.4688-3.00293Q24.1211-5.71289 19.3115-10.5225Q14.502-15.332 11.7676-21.6797Q9.0332-28.0273 9.0332-35.2539Q9.0332-42.4805 11.7676-48.8281Q14.502-55.1758 19.3115-59.9854Q24.1211-64.7949 30.4688-67.5049Q36.8164-70.2148 44.043-70.2148Q51.2695-70.2148 57.6416-67.5049Q64.0137-64.7949 68.7988-59.9854Q73.584-55.1758 76.3184-48.8281Q79.0527-42.4805 79.0527-35.2539Q79.0527-28.0273 76.3428-21.6797Q73.6328-15.332 68.8232-10.5225Q64.0137-5.71289 57.666-3.00293Q51.3184-0.292969 44.043-0.292969Z"/>
   <path class="multicolor-0:systemGrayColor hierarchical-1:primary SFSymbolsPreview8E8E93" d="M44.043-13.916Q44.4824-13.916 44.9463-13.9404Q45.4102-13.9648 45.8984-14.0137L46.8262-12.2559Q47.2168-11.4258 48.2422-11.5723Q49.2676-11.6699 49.3164-12.6953L49.6094-14.6973Q50.5371-14.8926 51.4648-15.21Q52.3926-15.5273 53.1738-15.918L54.5898-14.6484Q55.1758-14.0625 56.1523-14.4531Q56.8848-14.7949 56.7871-15.8691L56.3965-17.8223Q57.2754-18.4082 58.0078-19.0186Q58.7402-19.6289 59.2285-20.166L61.0352-19.4824Q61.8652-19.043 62.5977-19.873Q63.3789-20.6055 62.6465-21.4844L61.7188-23.1445Q62.2559-23.9746 62.7441-24.7559Q63.2324-25.5371 63.5742-26.3184L65.4785-26.2207Q66.5039-26.1719 66.748-27.1484Q67.1875-28.0273 66.3574-28.6133L64.7949-29.8828Q65.0391-30.7129 65.1855-31.665Q65.332-32.6172 65.4785-33.5449L67.3828-34.1309Q68.2129-34.4727 68.2129-35.4492Q68.2129-36.3281 67.3828-36.7188L65.4785-37.3535Q65.332-38.2324 65.1855-39.1602Q65.0391-40.0879 64.7949-41.0156L66.3086-42.2363Q66.9922-42.7734 66.7969-43.6523Q66.5039-44.6777 65.4785-44.6289L63.5742-44.5312Q63.1836-45.3125 62.7197-46.1182Q62.2559-46.9238 61.7188-47.7051L62.6465-49.4141Q63.2812-50.1953 62.5977-50.9766Q61.9141-51.8555 61.0352-51.3672L59.2285-50.6836Q58.7402-51.2207 58.0078-51.8311Q57.2754-52.4414 56.3965-53.0273L56.7871-54.9805Q56.8848-56.0547 56.1523-56.3965Q55.2246-56.8848 54.5898-56.25L53.125-54.9316Q52.3438-55.3223 51.4404-55.6396Q50.5371-55.957 49.6094-56.1523L49.3164-58.1055Q49.2676-59.1797 48.2422-59.2773Q47.2656-59.4238 46.8262-58.6426L45.8984-56.8359Q45.4102-56.8848 44.9463-56.9092Q44.4824-56.9336 44.043-56.9336Q43.6035-56.9336 43.1396-56.9092Q42.6758-56.8848 42.1875-56.8359L41.3086-58.6426Q40.8691-59.4238 39.8438-59.2773Q38.8184-59.1797 38.7207-58.1055L38.4277-56.2012Q37.5-55.957 36.6455-55.6152Q35.791-55.2734 34.9121-54.9316L33.4961-56.2012Q32.7637-56.8359 31.9336-56.3965Q31.1523-56.0059 31.2988-54.9316L31.6895-53.0273Q30.8105-52.4414 30.1025-51.8311Q29.3945-51.2207 28.8574-50.6836L27.0996-51.3672Q26.2207-51.8066 25.4395-50.9766Q24.7559-50.1465 25.3906-49.4629L26.416-47.7051Q25.7812-46.8262 25.3174-46.0449Q24.8535-45.2637 24.5605-44.5312L22.6074-44.6289Q21.5332-44.6777 21.2891-43.7012Q20.8496-42.7734 21.7773-42.2363L23.291-41.0156Q23.0469-40.0879 22.876-39.1602Q22.7051-38.2324 22.6562-37.3535L20.752-36.7676Q19.8242-36.377 19.8242-35.4492Q19.8242-34.4727 20.752-34.1309L22.6562-33.4961Q22.7051-32.6172 22.8516-31.6895Q22.998-30.7617 23.291-29.8828L21.7773-28.6133Q20.9473-28.0762 21.2402-27.1484Q21.582-26.1719 22.6074-26.2207L24.5605-26.3184Q24.8535-25.5859 25.3174-24.8047Q25.7812-24.0234 26.416-23.1445L25.3418-21.4844Q24.8047-20.6055 25.4395-19.873Q26.2207-19.043 27.0996-19.4824L28.8574-20.166Q29.3945-19.6289 30.1025-19.0186Q30.8105-18.4082 31.6895-17.8223L31.2988-15.918Q31.1523-14.8438 31.9336-14.4531Q32.8613-14.0625 33.4961-14.6484L34.8633-15.918Q35.791-15.5273 36.6699-15.1855Q37.5488-14.8438 38.4277-14.6484L38.7207-12.7441Q38.7695-11.6699 39.8926-11.5723Q40.8203-11.4258 41.3086-12.2559L42.1875-14.0137Q42.627-13.9648 43.1152-13.9404Q43.6035-13.916 44.043-13.916ZM44.043-16.0156Q38.6719-16.0156 34.3262-18.6035Q29.9805-21.1914 27.417-25.6104Q24.8535-30.0293 24.8535-35.4492Q24.8535-40.8691 27.417-45.2637Q29.9805-49.6582 34.3262-52.2461Q38.6719-54.834 44.043-54.834Q49.4141-54.834 53.7354-52.2461Q58.0566-49.6582 60.6201-45.2637Q63.1836-40.8691 63.1836-35.4492Q63.1836-30.0293 60.6201-25.6104Q58.0566-21.1914 53.7354-18.6035Q49.4141-16.0156 44.043-16.0156ZM44.0918-30.0781Q45.9473-30.0781 47.3633-31.25Q48.7793-32.4219 49.1699-34.2773L65.1855-34.2773L65.1855-36.5234L49.0723-36.5234Q48.6816-38.2812 47.2656-39.3799Q45.8496-40.4785 44.0918-40.4785Q43.6523-40.4785 43.2861-40.4297Q42.9199-40.3809 42.5781-40.2344L34.4238-54.1504L32.4707-53.0273L40.5273-39.1113Q38.8672-37.5488 38.8672-35.3027Q38.8672-32.8613 40.7227-31.3477L32.4707-17.627L34.4727-16.4551L42.7734-30.2734Q43.0664-30.127 43.4082-30.1025Q43.75-30.0781 44.0918-30.0781ZM41.1133-35.3027Q41.1133-36.4746 41.9922-37.3535Q42.8711-38.2324 44.0918-38.2324Q45.2637-38.2324 46.167-37.3535Q47.0703-36.4746 47.0703-35.3027Q47.0703-34.082 46.167-33.2031Q45.2637-32.3242 44.0918-32.3242Q42.8711-32.3242 41.9922-33.2031Q41.1133-34.082 41.1133-35.3027Z"/>
  </g>
 </g>
</svg>
