<svg width="20" height="20" viewBox="0 0 20 20" fill="none" xmlns="http://www.w3.org/2000/svg">
<g id="ic_advanced">
<g id="Vector">
<path fill-rule="evenodd" clip-rule="evenodd" d="M13.75 10C13.75 12.0711 12.0711 13.75 10 13.75C7.92894 13.75 6.25 12.0711 6.25 10C6.25 7.92894 7.92894 6.25 10 6.25C12.0711 6.25 13.75 7.92894 13.75 10ZM12.2852 10C12.2852 11.2621 11.2621 12.2852 10 12.2852C8.73795 12.2852 7.71485 11.2621 7.71485 10C7.71485 8.73795 8.73795 7.71485 10 7.71485C11.2621 7.71485 12.2852 8.73795 12.2852 10Z" fill="#D4D2D6"/>
<path fill-rule="evenodd" clip-rule="evenodd" d="M9.99999 16.5625C13.6244 16.5625 16.5625 13.6244 16.5625 9.99999C16.5625 6.37562 13.6244 3.43749 9.99999 3.43749C6.37562 3.43749 3.43749 6.37562 3.43749 9.99999C3.43749 13.6244 6.37562 16.5625 9.99999 16.5625ZM9.99999 15.0976C12.8154 15.0976 15.0976 12.8154 15.0976 9.99999C15.0976 7.18464 12.8154 4.90234 9.99999 4.90234C7.18464 4.90234 4.90234 7.18464 4.90234 9.99999C4.90234 12.8154 7.18464 15.0976 9.99999 15.0976Z" fill="#D4D2D6"/>
<path fill-rule="evenodd" clip-rule="evenodd" d="M10 19.375C15.1777 19.375 19.375 15.1777 19.375 10C19.375 4.82233 15.1777 0.625 10 0.625C4.82233 0.625 0.625 4.82233 0.625 10C0.625 15.1777 4.82233 19.375 10 19.375ZM10 17.9102C14.3687 17.9102 17.9102 14.3687 17.9102 10C17.9102 5.63134 14.3687 2.08984 10 2.08984C5.63134 2.08984 2.08984 5.63134 2.08984 10C2.08984 14.3687 5.63134 17.9102 10 17.9102Z" fill="#D4D2D6"/>
</g>
<path id="Vector_2" d="M0.625 10C0.625 15.1777 4.82233 19.375 10 19.375V0.625C4.82233 0.625 0.625 4.82233 0.625 10Z" fill="#D4D2D6"/>
</g>
</svg>
