<svg width="21" height="20" viewBox="0 0 21 20" fill="none" xmlns="http://www.w3.org/2000/svg">
<path d="M10.0006 20C15.5153 20 20.0013 15.5138 20.0013 10C20.0013 4.48619 15.5153 0 10.0006 0C4.48598 0 0 4.48533 0 10C0 15.5147 4.48598 20 10.0006 20ZM10.0006 1.61597C14.6241 1.61597 18.3855 5.37744 18.3855 10.0002C18.3855 14.623 14.6241 18.3845 10.0006 18.3845C5.37723 18.3845 1.61575 14.6239 1.61575 10.0002C1.61575 5.37658 5.37723 1.61597 10.0006 1.61597Z" fill="white" fill-opacity="0.8"/>
<path d="M10.0007 7.9751C9.55392 7.9751 9.19281 8.33705 9.19281 8.78297V15.4804C9.19281 15.9263 9.55392 16.2883 10.0007 16.2883C10.4475 16.2883 10.8086 15.9263 10.8086 15.4804V8.78297C10.8086 8.33705 10.4475 7.9751 10.0007 7.9751Z" fill="white" fill-opacity="0.8"/>
<path d="M11.1567 5.67506C11.1567 6.31354 10.6391 6.83116 10.0006 6.83116C9.36217 6.83116 8.84454 6.31354 8.84454 5.67506C8.84454 5.03658 9.36217 4.51904 10.0006 4.51904C10.6391 4.51904 11.1567 5.03658 11.1567 5.67506Z" fill="white" fill-opacity="0.8"/>
</svg>
