<svg width="24" height="24" viewBox="0 0 24 24" fill="none" xmlns="http://www.w3.org/2000/svg">
<g clip-path="url(#clip0_15837_18222)">
<path fill-rule="evenodd" clip-rule="evenodd" d="M16.1539 12.0001C16.1539 14.2942 14.2941 16.1539 12 16.1539C9.7059 16.1539 7.84616 14.2942 7.84616 12.0001C7.84616 9.70599 9.7059 7.84625 12 7.84625C14.2941 7.84625 16.1539 9.70599 16.1539 12.0001ZM14.5313 12.0001C14.5313 13.3981 13.398 14.5313 12 14.5313C10.602 14.5313 9.46876 13.3981 9.46876 12.0001C9.46876 10.6021 10.602 9.46885 12 9.46885C13.398 9.46885 14.5313 10.6021 14.5313 12.0001Z" fill="#A06DDF"/>
<path fill-rule="evenodd" clip-rule="evenodd" d="M12 19.2693C16.0147 19.2693 19.2692 16.0148 19.2692 12.0001C19.2692 7.9854 16.0147 4.73085 12 4.73085C7.98531 4.73085 4.73076 7.9854 4.73076 12.0001C4.73076 16.0148 7.98531 19.2693 12 19.2693ZM12 17.6467C15.1185 17.6467 17.6466 15.1186 17.6466 12.0001C17.6466 8.88154 15.1185 6.35345 12 6.35345C8.88144 6.35345 6.35336 8.88154 6.35336 12.0001C6.35336 15.1186 8.88144 17.6467 12 17.6467Z" fill="#A06DDF"/>
<path fill-rule="evenodd" clip-rule="evenodd" d="M12 22.3847C17.7353 22.3847 22.3846 17.7354 22.3846 12.0001C22.3846 6.26483 17.7353 1.61548 12 1.61548C6.26474 1.61548 1.61539 6.26483 1.61539 12.0001C1.61539 17.7354 6.26474 22.3847 12 22.3847ZM12 20.7621C16.8391 20.7621 20.762 16.8392 20.762 12.0001C20.762 7.16096 16.8391 3.23807 12 3.23807C7.16087 3.23807 3.23798 7.16096 3.23798 12.0001C3.23798 16.8392 7.16087 20.7621 12 20.7621Z" fill="#A06DDF"/>
<path d="M1.61539 12.0001C1.61539 17.7354 6.26474 22.3847 12 22.3847V1.61548C6.26474 1.61548 1.61539 6.26483 1.61539 12.0001Z" fill="#A06DDF"/>
</g>
<defs>
<clipPath id="clip0_15837_18222">
<rect width="24" height="24" fill="white"/>
</clipPath>
</defs>
</svg>
