<svg width="18" height="18" viewBox="0 0 18 18" fill="none" xmlns="http://www.w3.org/2000/svg">
<path fill-rule="evenodd" clip-rule="evenodd" d="M7.29713 7.34287C7.29713 7.73025 6.98366 8.04372 6.5998 8.04372C6.21242 8.04372 5.89895 7.73025 5.89895 7.34287C5.89895 6.49762 6.24055 5.73352 6.79346 5.18058C7.34636 4.62768 8.11059 4.28607 8.95575 4.28607C9.80099 4.28607 10.5651 4.62768 11.118 5.18058C11.6709 5.73348 12.0125 6.49772 12.0125 7.34287C12.0125 8.18812 11.6709 8.95222 11.118 9.50516C10.7237 9.89952 10.22 10.1884 9.6566 10.3187V10.6215C9.6566 11.0089 9.34313 11.3223 8.95575 11.3223C8.56836 11.3223 8.25489 11.0089 8.25489 10.6215V9.69885C8.25489 9.31499 8.56836 9.00151 8.95575 9.00151C9.41352 9.00151 9.82913 8.81483 10.1285 8.51548C10.4278 8.21614 10.6145 7.80051 10.6145 7.34274C10.6145 6.88497 10.4278 6.46935 10.1285 6.17C9.82914 5.87066 9.41352 5.68396 8.95575 5.68396C8.49798 5.68396 8.08236 5.87064 7.78301 6.17C7.48365 6.46935 7.29697 6.88497 7.29697 7.34274L7.29713 7.34287ZM8.88536 13.6363C8.49797 13.6363 8.1845 13.3263 8.1845 12.939C8.1845 12.5516 8.49797 12.2381 8.88536 12.2381H9.04028C9.42766 12.2381 9.74113 12.5516 9.74113 12.939C9.74113 13.3263 9.42766 13.6363 9.04028 13.6363H8.88536ZM8.96288 16.5241C11.0513 16.5241 12.9423 15.6788 14.3088 14.3089C15.6787 12.9425 16.524 11.0513 16.524 8.96294C16.524 6.87457 15.6787 4.9835 14.3088 3.61348C12.9424 2.24705 11.0512 1.39831 8.96288 1.39831C6.87457 1.39831 4.98343 2.24708 3.61342 3.61348C2.24699 4.9834 1.39825 6.87463 1.39825 8.96294C1.39825 11.0513 2.24702 12.9424 3.61342 14.3089C4.98334 15.6788 6.87457 16.5241 8.96288 16.5241ZM15.2986 15.2986C13.6786 16.9221 11.4353 17.9257 8.96288 17.9257C6.48712 17.9257 4.24721 16.9221 2.62368 15.2986C1.0037 13.6786 0 11.4353 0 8.96288C0 6.48712 1.00366 4.24721 2.62368 2.62368C4.24718 1.0037 6.48693 0 8.96288 0C11.4351 0 13.6786 1.00366 15.2986 2.62368C16.9221 4.24718 17.9257 6.48693 17.9257 8.96288C17.9257 11.4351 16.9221 13.6786 15.2986 15.2986Z" fill="white" fill-opacity="0.8"/>
<path d="M0.012224 17.9773C0.0114738 17.9777 0.0108486 17.9781 0.0102234 17.9783C0.00947319 17.9786 0.00872298 17.9788 0.00772268 17.9788C0.00572207 17.9788 0.00397146 17.9782 0.00272116 17.9768C0.00172085 17.9756 0.0012207 17.9738 0.0012207 17.9718C0.0012207 17.9698 0.00172085 17.9683 0.00272116 17.9673C0.00397155 17.9661 0.00572207 17.9653 0.00772268 17.9653C0.00872298 17.9653 0.00947319 17.9656 0.0102234 17.9658C0.0108486 17.9658 0.0114738 17.9661 0.012224 17.9663V17.9688C0.0114738 17.9686 0.0108486 17.9683 0.0102234 17.9683C0.00947319 17.9681 0.00884801 17.9678 0.00822283 17.9678C0.00722252 17.9678 0.00634725 17.9682 0.00572207 17.9688C0.00497186 17.9696 0.00472177 17.9706 0.00472177 17.9718C0.00472177 17.9732 0.00497186 17.9743 0.00572207 17.9753C0.00634725 17.9761 0.00722252 17.9763 0.00822283 17.9763C0.00884801 17.9763 0.00947319 17.9762 0.0102234 17.9758C0.0108486 17.9756 0.0114738 17.9752 0.012224 17.9748V17.9773Z" fill="white" fill-opacity="0.8"/>
<path d="M0.0215895 17.9713H0.0210894C0.0207143 17.971 0.0203391 17.9708 0.0200891 17.9708C0.0193388 17.9708 0.0187136 17.9711 0.0180885 17.9718C0.0177133 17.9721 0.0175883 17.9728 0.0175883 17.9738V17.9783H0.0145874V17.9688H0.0175883V17.9703C0.0178384 17.9696 0.0182135 17.9691 0.0185886 17.9688C0.0192138 17.9685 0.019839 17.9683 0.0205892 17.9683H0.0210894H0.0215895V17.9713Z" fill="white" fill-opacity="0.8"/>
<path d="M0.03283 17.9733V17.9743H0.0258279C0.0258279 17.975 0.0259529 17.9755 0.0263281 17.9758C0.0265781 17.9761 0.0273284 17.9763 0.0283287 17.9763H0.0303293C0.0309544 17.976 0.0315797 17.9756 0.0323299 17.9753V17.9778C0.0315797 17.9778 0.0309544 17.978 0.0303293 17.9783C0.0295791 17.9785 0.0289538 17.9788 0.0283287 17.9788C0.0263281 17.9788 0.0248274 17.9783 0.0238275 17.9773C0.0230772 17.9763 0.0228271 17.9751 0.0228271 17.9738C0.0228271 17.9721 0.0230772 17.9708 0.0238275 17.9698C0.0248278 17.9688 0.0260781 17.9683 0.0278287 17.9683C0.0294542 17.9683 0.0305795 17.9688 0.0313299 17.9698C0.0323302 17.9708 0.0328303 17.972 0.0328303 17.9733H0.03283ZM0.0298291 17.9723C0.0298291 17.9716 0.0295791 17.9713 0.029329 17.9713C0.0289538 17.971 0.0284537 17.9708 0.0278285 17.9708C0.0270783 17.9708 0.0265781 17.971 0.0263281 17.9713C0.0259529 17.9713 0.0258279 17.9716 0.0258279 17.9723H0.0298291Z" fill="white" fill-opacity="0.8"/>
<path d="M0.0397307 17.9738C0.0389804 17.9738 0.0384803 17.974 0.0382302 17.9743C0.0378551 17.9746 0.0377301 17.975 0.0377301 17.9753V17.9763H0.0387304C0.0397307 17.9763 0.0403559 17.9761 0.040731 17.9758C0.040981 17.9755 0.0412311 17.975 0.0412311 17.9743V17.9738H0.0397307ZM0.0442319 17.9728V17.9783H0.041231V17.9768C0.0408559 17.9775 0.0403557 17.978 0.0397305 17.9783C0.0389803 17.9785 0.0383551 17.9788 0.0377299 17.9788C0.0369797 17.9788 0.0363545 17.9784 0.0357293 17.9778C0.0349791 17.9771 0.034729 17.9763 0.034729 17.9753C0.034729 17.9743 0.0349791 17.9736 0.0357293 17.9733C0.0363545 17.9726 0.0374799 17.9723 0.0392305 17.9723H0.0412311V17.9718C0.0412311 17.9715 0.040981 17.9713 0.040731 17.9713C0.0403559 17.971 0.0397307 17.9708 0.0387304 17.9708H0.0367298C0.0359795 17.9708 0.0354794 17.971 0.0352293 17.9713V17.9688H0.0372299C0.0378551 17.9685 0.0384803 17.9683 0.0392305 17.9683C0.0412311 17.9683 0.0424814 17.9688 0.0432317 17.9698C0.0438569 17.9705 0.044232 17.9715 0.044232 17.9728L0.0442319 17.9728Z" fill="white" fill-opacity="0.8"/>
<path d="M0.0505829 17.9658V17.9688H0.0535838V17.9708H0.0505829V17.9748V17.9758C0.050833 17.9762 0.0512081 17.9763 0.0515832 17.9763H0.0530837V17.9783H0.0505829C0.0495826 17.9783 0.0487073 17.9782 0.0480822 17.9778C0.0473319 17.9772 0.0470818 17.9762 0.0470818 17.9748V17.9708H0.0460815V17.9688H0.0470818V17.9658H0.0505829Z" fill="white" fill-opacity="0.8"/>
<path d="M0.0651176 17.9733V17.9743H0.0581155C0.0581155 17.975 0.0582405 17.9755 0.0586156 17.9758C0.0588657 17.9761 0.059616 17.9763 0.0606163 17.9763H0.0626169C0.063242 17.976 0.0638673 17.9756 0.0646175 17.9753V17.9778C0.0638673 17.9778 0.063242 17.978 0.0626169 17.9783C0.0618667 17.9785 0.0612414 17.9788 0.0606163 17.9788C0.0586156 17.9788 0.057115 17.9783 0.056115 17.9773C0.0553648 17.9763 0.0551147 17.9751 0.0551147 17.9738C0.0551147 17.9721 0.0553648 17.9708 0.056115 17.9698C0.0571154 17.9688 0.0583657 17.9683 0.0601163 17.9683C0.0617418 17.9683 0.0628671 17.9688 0.0636175 17.9698C0.0646178 17.9708 0.0651179 17.972 0.0651179 17.9733H0.0651176ZM0.0621167 17.9723C0.0621167 17.9716 0.0618667 17.9713 0.0616166 17.9713C0.0612414 17.971 0.0607413 17.9708 0.0601161 17.9708C0.0593659 17.9708 0.0588657 17.971 0.0586156 17.9713C0.0582405 17.9713 0.0581155 17.9716 0.0581155 17.9723H0.0621167Z" fill="white" fill-opacity="0.8"/>
<path d="M0.0739577 17.9698V17.9648H0.0769586V17.9783H0.0739577V17.9768C0.0735826 17.9776 0.0730824 17.9781 0.0724572 17.9783C0.0720821 17.9786 0.071582 17.9788 0.0709568 17.9788C0.0695814 17.9788 0.0685811 17.9783 0.0679559 17.9773C0.0672056 17.9763 0.0669556 17.9752 0.0669556 17.9738C0.0669556 17.9722 0.0672056 17.9708 0.0679559 17.9698C0.0685811 17.9688 0.0695814 17.9683 0.0709568 17.9683C0.071582 17.9683 0.0720821 17.9686 0.0724572 17.9688C0.0730824 17.9692 0.0735826 17.9696 0.0739577 17.9698ZM0.0719571 17.9763C0.0725823 17.9763 0.0730824 17.9762 0.0734575 17.9758C0.0737076 17.9752 0.0739577 17.9746 0.0739577 17.9738C0.0739577 17.9728 0.0737076 17.9722 0.0734575 17.9718C0.0730824 17.9712 0.0725823 17.9708 0.0719571 17.9708C0.0712068 17.9708 0.0707067 17.9712 0.0704566 17.9718C0.0700815 17.9722 0.0699565 17.9728 0.0699565 17.9738C0.0699565 17.9746 0.0700815 17.9752 0.0704566 17.9758C0.0707067 17.9762 0.0712068 17.9763 0.0719571 17.9763Z" fill="white" fill-opacity="0.8"/>
<path d="M0.0912442 17.9763C0.0918694 17.9763 0.0923695 17.9762 0.0927446 17.9758C0.0929947 17.9752 0.0932448 17.9746 0.0932448 17.9738C0.0932448 17.9728 0.0929947 17.9722 0.0927446 17.9718C0.0923695 17.9712 0.0918694 17.9708 0.0912442 17.9708C0.090494 17.9708 0.0899938 17.9712 0.0897437 17.9718C0.0893686 17.9722 0.0892436 17.9728 0.0892436 17.9738C0.0892436 17.9746 0.0893686 17.9752 0.0897437 17.9758C0.0899938 17.9762 0.090494 17.9763 0.0912442 17.9763ZM0.0892436 17.9698C0.0894937 17.9696 0.0899938 17.9692 0.090744 17.9688C0.0913692 17.9686 0.0918694 17.9683 0.0922445 17.9683C0.0934949 17.9683 0.0944952 17.9688 0.0952454 17.9698C0.0962457 17.9708 0.0967459 17.9722 0.0967459 17.9738C0.0967459 17.9752 0.0962457 17.9763 0.0952454 17.9773C0.0944952 17.9783 0.0934949 17.9788 0.0922445 17.9788C0.0918694 17.9788 0.0913692 17.9786 0.090744 17.9783C0.0899938 17.9781 0.0894937 17.9776 0.0892436 17.9768V17.9783H0.0862427V17.9648H0.0892436V17.9698Z" fill="white" fill-opacity="0.8"/>
<path d="M0.0978394 17.9688H0.10084L0.103341 17.9753L0.105342 17.9688H0.108843L0.104342 17.9793C0.103967 17.9803 0.103466 17.9809 0.102841 17.9813C0.102466 17.9819 0.101841 17.9823 0.100841 17.9823H0.09884V17.9798H0.10034H0.100841C0.101091 17.9798 0.101466 17.9794 0.101841 17.9788L0.0978394 17.9688Z" fill="white" fill-opacity="0.8"/>
<path d="M0.116455 17.9653H0.119956V17.9783H0.116455V17.9653Z" fill="white" fill-opacity="0.8"/>
<path d="M0.127499 17.9708C0.126749 17.9708 0.126249 17.971 0.125999 17.9713C0.125623 17.9716 0.125498 17.9725 0.125498 17.9738C0.125498 17.9745 0.125623 17.9751 0.125999 17.9758C0.126249 17.9761 0.126749 17.9763 0.127499 17.9763C0.128124 17.9763 0.128624 17.9761 0.129 17.9758C0.129625 17.9751 0.13 17.9745 0.13 17.9738C0.13 17.9725 0.129625 17.9716 0.129 17.9713C0.128624 17.971 0.128124 17.9708 0.127499 17.9708ZM0.127499 17.9683C0.129125 17.9683 0.1305 17.9688 0.1315 17.9698C0.132501 17.9708 0.133001 17.9721 0.133001 17.9738C0.133001 17.9751 0.132501 17.9763 0.1315 17.9773C0.1305 17.9783 0.129125 17.9788 0.127499 17.9788C0.125749 17.9788 0.124498 17.9783 0.123498 17.9773C0.122748 17.9763 0.122498 17.9751 0.122498 17.9738C0.122498 17.9721 0.122748 17.9708 0.123498 17.9698C0.124498 17.9688 0.125749 17.9683 0.127499 17.9683Z" fill="white" fill-opacity="0.8"/>
<path d="M0.139584 17.9738C0.138834 17.9738 0.138334 17.974 0.138084 17.9743C0.137709 17.9746 0.137584 17.975 0.137584 17.9753V17.9763H0.138584C0.139584 17.9763 0.140209 17.9761 0.140585 17.9758C0.140835 17.9755 0.141085 17.975 0.141085 17.9743V17.9738H0.139584ZM0.144085 17.9728V17.9783H0.141084V17.9768C0.140709 17.9775 0.140209 17.978 0.139584 17.9783C0.138834 17.9785 0.138209 17.9788 0.137583 17.9788C0.136833 17.9788 0.136208 17.9784 0.135583 17.9778C0.134833 17.9771 0.134583 17.9763 0.134583 17.9753C0.134583 17.9743 0.134833 17.9736 0.135583 17.9733C0.136208 17.9726 0.137333 17.9723 0.139084 17.9723H0.141085V17.9718C0.141085 17.9715 0.140835 17.9713 0.140585 17.9713C0.140209 17.971 0.139584 17.9708 0.138584 17.9708H0.136583C0.135833 17.9708 0.135333 17.971 0.135083 17.9713V17.9688H0.137083C0.137709 17.9685 0.138334 17.9683 0.139084 17.9683C0.141085 17.9683 0.142335 17.9688 0.143085 17.9698C0.14371 17.9705 0.144086 17.9715 0.144086 17.9728L0.144085 17.9728Z" fill="white" fill-opacity="0.8"/>
<path d="M0.156976 17.9723V17.9783H0.153475V17.9738V17.9723C0.153475 17.972 0.153225 17.9716 0.152974 17.9713H0.152474C0.152474 17.971 0.152224 17.9708 0.151974 17.9708C0.151599 17.9708 0.151099 17.9711 0.150474 17.9718C0.150099 17.9721 0.149974 17.9728 0.149974 17.9738V17.9783H0.146973V17.9688H0.149974V17.9698C0.150224 17.9695 0.150724 17.9691 0.151474 17.9688C0.152099 17.9685 0.152599 17.9683 0.152974 17.9683C0.154225 17.9683 0.155225 17.9688 0.155975 17.9698C0.156601 17.9705 0.156976 17.9713 0.156976 17.9723L0.156976 17.9723Z" fill="white" fill-opacity="0.8"/>
<path d="M0.169488 17.9723V17.9783H0.165987V17.9738V17.9723C0.165987 17.972 0.165737 17.9716 0.165487 17.9713H0.164987C0.164987 17.971 0.164736 17.9708 0.164486 17.9708C0.164111 17.9708 0.163611 17.9711 0.162986 17.9718C0.162611 17.9721 0.162486 17.9728 0.162486 17.9738V17.9783H0.159485V17.9688H0.162486V17.9698C0.162736 17.9695 0.163236 17.9691 0.163986 17.9688C0.164611 17.9685 0.165112 17.9683 0.165487 17.9683C0.166737 17.9683 0.167737 17.9688 0.168488 17.9698C0.169113 17.9705 0.169488 17.9713 0.169488 17.9723L0.169488 17.9723Z" fill="white" fill-opacity="0.8"/>
<path d="M0.171997 17.9688H0.174998V17.9783H0.171997V17.9688ZM0.171997 17.9648H0.174998V17.9673H0.171997V17.9648Z" fill="white" fill-opacity="0.8"/>
<path d="M0.185615 17.9688V17.9713C0.184865 17.971 0.184239 17.9708 0.183614 17.9708H0.181614H0.180613C0.180238 17.9708 0.180113 17.971 0.180113 17.9713C0.180113 17.9716 0.180238 17.972 0.180613 17.9723H0.181614H0.182614C0.183864 17.9723 0.18474 17.9726 0.185115 17.9733C0.18574 17.9736 0.186115 17.9743 0.186115 17.9753C0.186115 17.9763 0.18574 17.9771 0.185115 17.9778C0.184365 17.9784 0.183239 17.9788 0.181614 17.9788C0.180863 17.9788 0.180238 17.9785 0.179613 17.9783C0.178863 17.9783 0.178237 17.9781 0.177612 17.9778V17.9753C0.178237 17.976 0.178863 17.9763 0.179613 17.9763H0.181614H0.182614C0.182864 17.9763 0.183114 17.976 0.183114 17.9753C0.183114 17.975 0.182864 17.9748 0.182614 17.9748C0.182614 17.9748 0.182239 17.9746 0.181614 17.9743H0.181113C0.179738 17.9743 0.178738 17.9741 0.178112 17.9738C0.177737 17.9731 0.177612 17.9723 0.177612 17.9713C0.177612 17.9703 0.177862 17.9696 0.178613 17.9693C0.179238 17.9686 0.180238 17.9683 0.181614 17.9683C0.182239 17.9683 0.182864 17.9685 0.183614 17.9688H0.185615H0.185615Z" fill="white" fill-opacity="0.8"/>
<path d="M0.194641 17.9653H0.199143L0.202144 17.9723L0.205144 17.9653H0.209146V17.9783H0.205644V17.9688L0.203144 17.9758H0.200643L0.197642 17.9688V17.9783H0.194641L0.194641 17.9653Z" fill="white" fill-opacity="0.8"/>
<path d="M0.216733 17.9738C0.215982 17.9738 0.215482 17.974 0.215232 17.9743C0.214857 17.9746 0.214732 17.975 0.214732 17.9753V17.9763H0.215732C0.216733 17.9763 0.217358 17.9761 0.217733 17.9758C0.217983 17.9755 0.218233 17.975 0.218233 17.9743V17.9738H0.216733ZM0.221234 17.9728V17.9783H0.218233V17.9768C0.217858 17.9775 0.217358 17.978 0.216732 17.9783C0.215982 17.9785 0.215357 17.9788 0.214732 17.9788C0.213982 17.9788 0.213356 17.9784 0.212731 17.9778C0.211981 17.9771 0.211731 17.9763 0.211731 17.9753C0.211731 17.9743 0.211981 17.9736 0.212731 17.9733C0.213356 17.9726 0.214482 17.9723 0.216232 17.9723H0.218233V17.9718C0.218233 17.9715 0.217983 17.9713 0.217733 17.9713C0.217358 17.971 0.216733 17.9708 0.215732 17.9708H0.213732C0.212981 17.9708 0.212481 17.971 0.212231 17.9713V17.9688H0.214232C0.214857 17.9685 0.215482 17.9683 0.216232 17.9683C0.218233 17.9683 0.219483 17.9688 0.220234 17.9698C0.220859 17.9705 0.221234 17.9715 0.221234 17.9728L0.221234 17.9728Z" fill="white" fill-opacity="0.8"/>
<path d="M0.224121 17.9648H0.227122V17.9783H0.224121V17.9648Z" fill="white" fill-opacity="0.8"/>
<path d="M0.230164 17.9688H0.233164V17.9783H0.230164V17.9688ZM0.230164 17.9648H0.233164V17.9673H0.230164V17.9648Z" fill="white" fill-opacity="0.8"/>
<path d="M0.236145 17.9648H0.239146V17.9723L0.242647 17.9688H0.246148L0.241647 17.9733L0.246649 17.9783H0.243147L0.239146 17.9743V17.9783H0.236145L0.236145 17.9648Z" fill="white" fill-opacity="0.8"/>
<path d="M0.252377 17.9708C0.251627 17.9708 0.251127 17.971 0.250877 17.9713C0.250501 17.9716 0.250376 17.9725 0.250376 17.9738C0.250376 17.9745 0.250501 17.9751 0.250877 17.9758C0.251127 17.9761 0.251627 17.9763 0.252377 17.9763C0.253002 17.9763 0.253502 17.9761 0.253877 17.9758C0.254503 17.9751 0.254878 17.9745 0.254878 17.9738C0.254878 17.9725 0.254503 17.9716 0.253877 17.9713C0.253502 17.971 0.253002 17.9708 0.252377 17.9708ZM0.252377 17.9683C0.254002 17.9683 0.255378 17.9688 0.256378 17.9698C0.257379 17.9708 0.257879 17.9721 0.257879 17.9738C0.257879 17.9751 0.257379 17.9763 0.256378 17.9773C0.255378 17.9783 0.254002 17.9788 0.252377 17.9788C0.250626 17.9788 0.249376 17.9783 0.248376 17.9773C0.247626 17.9763 0.247375 17.9751 0.247375 17.9738C0.247375 17.9721 0.247626 17.9708 0.248376 17.9698C0.249376 17.9688 0.250626 17.9683 0.252377 17.9683Z" fill="white" fill-opacity="0.8"/>
<path d="M0.26001 17.9743V17.9688H0.263011V17.9693V17.9718V17.9733V17.9748V17.9753C0.263261 17.9756 0.263511 17.976 0.263511 17.9763H0.264511C0.265136 17.9763 0.265636 17.9761 0.266012 17.9758C0.266262 17.9751 0.266512 17.9743 0.266512 17.9733V17.9688H0.269513V17.9783H0.266512V17.9768C0.265761 17.9775 0.265261 17.978 0.265011 17.9783C0.264636 17.9785 0.264011 17.9788 0.263011 17.9788C0.26201 17.9788 0.261135 17.9784 0.26051 17.9778C0.260135 17.9768 0.26001 17.9756 0.26001 17.9743Z" fill="white" fill-opacity="0.8"/>
<path d="M0.276047 17.9658V17.9688H0.279048V17.9708H0.276047V17.9748V17.9758C0.276297 17.9762 0.276672 17.9763 0.277047 17.9763H0.278548V17.9783H0.276047C0.275046 17.9783 0.274171 17.9782 0.273546 17.9778C0.272796 17.9772 0.272546 17.9762 0.272546 17.9748V17.9708H0.271545V17.9688H0.272546V17.9658H0.276047Z" fill="white" fill-opacity="0.8"/>
<path d="M0.288398 17.9688V17.9713C0.287648 17.971 0.287023 17.9708 0.286397 17.9708H0.284397H0.283397C0.283021 17.9708 0.282896 17.971 0.282896 17.9713C0.282896 17.9716 0.283021 17.972 0.283397 17.9723H0.284397H0.285397C0.286648 17.9723 0.287523 17.9726 0.287898 17.9733C0.288523 17.9736 0.288898 17.9743 0.288898 17.9753C0.288898 17.9763 0.288523 17.9771 0.287898 17.9778C0.287148 17.9784 0.286022 17.9788 0.284397 17.9788C0.283646 17.9788 0.283021 17.9785 0.282396 17.9783C0.281646 17.9783 0.281021 17.9781 0.280396 17.9778V17.9753C0.281021 17.976 0.281646 17.9763 0.282396 17.9763H0.284397H0.285397C0.285647 17.9763 0.285897 17.976 0.285897 17.9753C0.285897 17.975 0.285647 17.9748 0.285397 17.9748C0.285397 17.9748 0.285022 17.9746 0.284397 17.9743H0.283897C0.282521 17.9743 0.281521 17.9741 0.280896 17.9738C0.280521 17.9731 0.280396 17.9723 0.280396 17.9713C0.280396 17.9703 0.280646 17.9696 0.281396 17.9693C0.282021 17.9686 0.283021 17.9683 0.284397 17.9683C0.285022 17.9683 0.285647 17.9685 0.286397 17.9688H0.288398H0.288398Z" fill="white" fill-opacity="0.8"/>
<path d="M0.295895 17.9738C0.295145 17.9738 0.294645 17.974 0.294395 17.9743C0.29402 17.9746 0.293895 17.975 0.293895 17.9753V17.9763H0.294895C0.295895 17.9763 0.29652 17.9761 0.296896 17.9758C0.297146 17.9755 0.297396 17.975 0.297396 17.9743V17.9738H0.295895ZM0.300396 17.9728V17.9783H0.297396V17.9768C0.29702 17.9775 0.29652 17.978 0.295895 17.9783C0.295145 17.9785 0.29452 17.9788 0.293894 17.9788C0.293144 17.9788 0.292519 17.9784 0.291894 17.9778C0.291144 17.9771 0.290894 17.9763 0.290894 17.9753C0.290894 17.9743 0.291144 17.9736 0.291894 17.9733C0.292519 17.9726 0.293644 17.9723 0.295395 17.9723H0.297396V17.9718C0.297396 17.9715 0.297146 17.9713 0.296896 17.9713C0.29652 17.971 0.295895 17.9708 0.294895 17.9708H0.292894C0.292144 17.9708 0.291644 17.971 0.291394 17.9713V17.9688H0.293394C0.29402 17.9685 0.294645 17.9683 0.295395 17.9683C0.297396 17.9683 0.298646 17.9688 0.299396 17.9698C0.300021 17.9705 0.300397 17.9715 0.300397 17.9728L0.300396 17.9728Z" fill="white" fill-opacity="0.8"/>
<path d="M0.303284 17.9648H0.306285V17.9723L0.309786 17.9688H0.313287L0.308786 17.9733L0.313787 17.9783H0.310286L0.306285 17.9743V17.9783H0.303284L0.303284 17.9648Z" fill="white" fill-opacity="0.8"/>
<path d="M0.315063 17.9688H0.318064V17.9783H0.315063V17.9688ZM0.315063 17.9648H0.318064V17.9673H0.315063V17.9648Z" fill="white" fill-opacity="0.8"/>
<path d="M0.328559 17.9688V17.9713C0.327809 17.971 0.327184 17.9708 0.326559 17.9708H0.324558H0.323558C0.323183 17.9708 0.323058 17.971 0.323058 17.9713C0.323058 17.9716 0.323183 17.972 0.323558 17.9723H0.324558H0.325558C0.326809 17.9723 0.327684 17.9726 0.328059 17.9733C0.328684 17.9736 0.329059 17.9743 0.329059 17.9753C0.329059 17.9763 0.328684 17.9771 0.328059 17.9778C0.327309 17.9784 0.326184 17.9788 0.324558 17.9788C0.323808 17.9788 0.323182 17.9785 0.322557 17.9783C0.321807 17.9783 0.321182 17.9781 0.320557 17.9778V17.9753C0.321182 17.976 0.321807 17.9763 0.322557 17.9763H0.324558H0.325558C0.325808 17.9763 0.326058 17.976 0.326058 17.9753C0.326058 17.975 0.325808 17.9748 0.325558 17.9748C0.325558 17.9748 0.325183 17.9746 0.324558 17.9743H0.324058C0.322682 17.9743 0.321682 17.9741 0.321057 17.9738C0.320682 17.9731 0.320557 17.9723 0.320557 17.9713C0.320557 17.9703 0.320807 17.9696 0.321557 17.9693C0.322182 17.9686 0.323182 17.9683 0.324558 17.9683C0.325183 17.9683 0.325808 17.9685 0.326558 17.9688H0.328559H0.328559Z" fill="white" fill-opacity="0.8"/>
<path d="M0.00767351 17.9824V17.9844H0.00617306C0.00579794 17.9844 0.00542281 17.9847 0.00517275 17.9849V17.9859V17.9864H0.00767351V17.9884H0.00517275V17.9959H0.00217184V17.9884H0.000671387V17.9864H0.00217184V17.9859C0.00217184 17.9847 0.00229688 17.9838 0.00267199 17.9834C0.00329718 17.9828 0.00429748 17.9824 0.00567291 17.9824H0.00767351Z" fill="white" fill-opacity="0.8"/>
<path d="M0.0163405 17.9891H0.0158404C0.0154652 17.9888 0.0150901 17.9886 0.01484 17.9886C0.0140898 17.9886 0.0134646 17.989 0.0128394 17.9896C0.0124643 17.99 0.0123393 17.9906 0.0123393 17.9916V17.9961H0.00933838V17.9866H0.0123393V17.9881C0.0125894 17.9875 0.0129645 17.987 0.0133396 17.9866C0.0139648 17.9863 0.01459 17.9861 0.0153402 17.9861H0.0158404H0.0163405V17.9891Z" fill="white" fill-opacity="0.8"/>
<path d="M0.0225796 17.9886C0.0218294 17.9886 0.0213293 17.9888 0.0210792 17.9891C0.0207041 17.9895 0.020579 17.9903 0.020579 17.9916C0.020579 17.9923 0.0207041 17.993 0.0210792 17.9936C0.0213293 17.994 0.0218294 17.9941 0.0225796 17.9941C0.0232048 17.9941 0.023705 17.994 0.0240801 17.9936C0.0247053 17.993 0.0250804 17.9923 0.0250804 17.9916C0.0250804 17.9903 0.0247053 17.9895 0.0240801 17.9891C0.023705 17.9888 0.0232048 17.9886 0.0225796 17.9886ZM0.0225796 17.9861C0.0242051 17.9861 0.0255806 17.9866 0.0265809 17.9876C0.0275812 17.9886 0.0280813 17.99 0.0280813 17.9916C0.0280813 17.993 0.0275812 17.9941 0.0265809 17.9951C0.0255806 17.9961 0.0242051 17.9966 0.0225796 17.9966C0.0208291 17.9966 0.0195787 17.9961 0.0185784 17.9951C0.0178282 17.9941 0.0175781 17.993 0.0175781 17.9916C0.0175781 17.99 0.0178282 17.9886 0.0185784 17.9876C0.0195787 17.9866 0.0208291 17.9861 0.0225796 17.9861Z" fill="white" fill-opacity="0.8"/>
<path d="M0.0390931 17.9881C0.0393432 17.9875 0.0397182 17.987 0.0400934 17.9866C0.0407186 17.9863 0.0413438 17.9861 0.042094 17.9861C0.0430943 17.9861 0.0438445 17.9866 0.0445947 17.9876C0.0452199 17.9883 0.045595 17.9891 0.045595 17.9901V17.9961H0.0425941V17.9911V17.9906C0.0425941 17.99 0.0423441 17.9895 0.042094 17.9891C0.0417189 17.9888 0.0413438 17.9886 0.0410937 17.9886C0.0407186 17.9886 0.0402184 17.989 0.0395932 17.9896C0.0392181 17.99 0.0390931 17.9906 0.0390931 17.9916V17.9961H0.0360922V17.9911C0.0360922 17.9901 0.0358421 17.9895 0.035592 17.9891C0.035592 17.9888 0.0353419 17.9886 0.0350919 17.9886C0.0343416 17.9886 0.0338415 17.989 0.0335914 17.9896C0.0332163 17.99 0.0330912 17.9906 0.0330912 17.9916V17.9961H0.0300903V17.9866H0.0330912V17.9876L0.0340915 17.9866C0.0347167 17.9863 0.0353419 17.9861 0.0360922 17.9861C0.0367173 17.9861 0.0372175 17.9863 0.0375926 17.9866C0.0382178 17.987 0.0387179 17.9875 0.0390931 17.9881V17.9881Z" fill="white" fill-opacity="0.8"/>
<path d="M0.0580902 17.9836V17.9866H0.0610911V17.9886H0.0580902V17.9926V17.9936C0.0583403 17.994 0.0587154 17.9941 0.0590905 17.9941H0.060591V17.9961H0.0580902C0.0570899 17.9961 0.0562147 17.996 0.0555895 17.9956C0.0548392 17.995 0.0545892 17.994 0.0545892 17.9926V17.9886H0.0535889V17.9866H0.0545892V17.9836H0.0580902Z" fill="white" fill-opacity="0.8"/>
<path d="M0.0731135 17.9899V17.9959H0.0696123V17.9914V17.9899C0.0696123 17.9897 0.0693623 17.9893 0.0691122 17.9889H0.068612C0.068612 17.9887 0.068362 17.9884 0.0681119 17.9884C0.0677367 17.9884 0.0672366 17.9888 0.0666114 17.9894C0.0662363 17.9898 0.0661113 17.9904 0.0661113 17.9914V17.9959H0.0631104V17.9824H0.0661113V17.9874C0.0663614 17.9872 0.0668615 17.9868 0.0676117 17.9864C0.0682369 17.9862 0.0687371 17.9859 0.0691122 17.9859C0.0703626 17.9859 0.0713629 17.9864 0.0721131 17.9874C0.0727383 17.9882 0.0731134 17.9889 0.0731134 17.9899L0.0731135 17.9899Z" fill="white" fill-opacity="0.8"/>
<path d="M0.0850761 17.9911V17.9921H0.078074C0.078074 17.9928 0.078199 17.9933 0.0785741 17.9936C0.0788242 17.994 0.0795744 17.9941 0.0805748 17.9941H0.0825754C0.0832005 17.9938 0.0838258 17.9935 0.084576 17.9931V17.9956C0.0838258 17.9956 0.0832005 17.9958 0.0825754 17.9961C0.0818251 17.9963 0.0811999 17.9966 0.0805748 17.9966C0.0785741 17.9966 0.0770735 17.9961 0.0760735 17.9951C0.0753233 17.9941 0.0750732 17.993 0.0750732 17.9916C0.0750732 17.99 0.0753233 17.9886 0.0760735 17.9876C0.0770738 17.9866 0.0783242 17.9861 0.0800748 17.9861C0.0817002 17.9861 0.0828256 17.9866 0.083576 17.9876C0.0845763 17.9886 0.0850764 17.9898 0.0850764 17.9911H0.0850761ZM0.0820752 17.9901C0.0820752 17.9895 0.0818251 17.9891 0.0815751 17.9891C0.0811999 17.9888 0.0806998 17.9886 0.0800746 17.9886C0.0793244 17.9886 0.0788242 17.9888 0.0785741 17.9891C0.078199 17.9891 0.078074 17.9895 0.078074 17.9901H0.0820752Z" fill="white" fill-opacity="0.8"/>
<path d="M0.0936279 17.9829H0.0971292L0.102131 17.9919V17.9829H0.105132V17.9959H0.10163L0.0966288 17.9869V17.9959H0.0936279V17.9829Z" fill="white" fill-opacity="0.8"/>
<path d="M0.112851 17.9886C0.1121 17.9886 0.1116 17.9888 0.11135 17.9891C0.110975 17.9895 0.11085 17.9903 0.11085 17.9916C0.11085 17.9923 0.110975 17.993 0.11135 17.9936C0.1116 17.994 0.1121 17.9941 0.112851 17.9941C0.113476 17.9941 0.113976 17.994 0.114351 17.9936C0.114976 17.993 0.115351 17.9923 0.115351 17.9916C0.115351 17.9903 0.114976 17.9895 0.114351 17.9891C0.113976 17.9888 0.113476 17.9886 0.112851 17.9886ZM0.112851 17.9861C0.114476 17.9861 0.115852 17.9866 0.116852 17.9876C0.117852 17.9886 0.118352 17.99 0.118352 17.9916C0.118352 17.993 0.117852 17.9941 0.116852 17.9951C0.115852 17.9961 0.114476 17.9966 0.112851 17.9966C0.1111 17.9966 0.10985 17.9961 0.108849 17.9951C0.108099 17.9941 0.107849 17.993 0.107849 17.9916C0.107849 17.99 0.108099 17.9886 0.108849 17.9876C0.10985 17.9866 0.1111 17.9861 0.112851 17.9861Z" fill="white" fill-opacity="0.8"/>
<path d="M0.120483 17.9921V17.9866H0.123484V17.9871V17.9896V17.9911V17.9926V17.9931C0.123734 17.9934 0.123984 17.9938 0.123984 17.9941H0.124985C0.12561 17.9941 0.12611 17.9939 0.126485 17.9936C0.126735 17.9929 0.126985 17.9921 0.126985 17.9911V17.9866H0.129986V17.9961H0.126985V17.9946C0.126235 17.9953 0.125735 17.9958 0.125485 17.9961C0.12511 17.9963 0.124485 17.9966 0.123484 17.9966C0.122484 17.9966 0.121609 17.9962 0.120984 17.9956C0.120608 17.9946 0.120483 17.9934 0.120483 17.9921Z" fill="white" fill-opacity="0.8"/>
<path d="M0.142999 17.9901V17.9961H0.139498V17.9916V17.9901C0.139498 17.9898 0.139248 17.9895 0.138997 17.9891H0.138497C0.138497 17.9888 0.138247 17.9886 0.137997 17.9886C0.137622 17.9886 0.137122 17.989 0.136497 17.9896C0.136122 17.99 0.135997 17.9906 0.135997 17.9916V17.9961H0.132996V17.9866H0.135997V17.9876C0.136247 17.9873 0.136747 17.987 0.137497 17.9866C0.138122 17.9863 0.138622 17.9861 0.138997 17.9861C0.140248 17.9861 0.141248 17.9866 0.141998 17.9876C0.142624 17.9883 0.142999 17.9891 0.142999 17.9901L0.142999 17.9901Z" fill="white" fill-opacity="0.8"/>
<path d="M0.151611 17.9829H0.157113C0.158739 17.9829 0.159864 17.9834 0.160614 17.9844C0.161615 17.9852 0.162115 17.9862 0.162115 17.9874C0.162115 17.9888 0.161615 17.9898 0.160614 17.9904C0.159864 17.9912 0.158739 17.9914 0.157113 17.9914H0.155113V17.9959H0.151611V17.9829ZM0.155113 17.9854V17.9889H0.157113H0.158113C0.158739 17.9887 0.159114 17.9882 0.159114 17.9874C0.159114 17.9868 0.158739 17.9863 0.158113 17.9859C0.157738 17.9857 0.157363 17.9854 0.157113 17.9854L0.155113 17.9854Z" fill="white" fill-opacity="0.8"/>
<path d="M0.171614 17.9891H0.171114C0.170739 17.9888 0.170364 17.9886 0.170113 17.9886C0.169363 17.9886 0.168738 17.989 0.168113 17.9896C0.167738 17.99 0.167613 17.9906 0.167613 17.9916V17.9961H0.164612V17.9866H0.167613V17.9881C0.167863 17.9875 0.168238 17.987 0.168613 17.9866C0.169238 17.9863 0.169863 17.9861 0.170614 17.9861H0.171114H0.171614V17.9891Z" fill="white" fill-opacity="0.8"/>
<path d="M0.177731 17.9886C0.176981 17.9886 0.176481 17.9888 0.176231 17.9891C0.175855 17.9895 0.17573 17.9903 0.17573 17.9916C0.17573 17.9923 0.175855 17.993 0.176231 17.9936C0.176481 17.994 0.176981 17.9941 0.177731 17.9941C0.178356 17.9941 0.178856 17.994 0.179231 17.9936C0.179857 17.993 0.180232 17.9923 0.180232 17.9916C0.180232 17.9903 0.179857 17.9895 0.179231 17.9891C0.178856 17.9888 0.178356 17.9886 0.177731 17.9886ZM0.177731 17.9861C0.179356 17.9861 0.180732 17.9866 0.181732 17.9876C0.182733 17.9886 0.183233 17.99 0.183233 17.9916C0.183233 17.993 0.182733 17.9941 0.181732 17.9951C0.180732 17.9961 0.179356 17.9966 0.177731 17.9966C0.17598 17.9966 0.17473 17.9961 0.17373 17.9951C0.17298 17.9941 0.172729 17.993 0.172729 17.9916C0.172729 17.99 0.17298 17.9886 0.17373 17.9876C0.17473 17.9866 0.17598 17.9861 0.177731 17.9861Z" fill="white" fill-opacity="0.8"/>
<path d="M0.18535 17.9864H0.188351V17.9954C0.188351 17.9967 0.187976 17.9977 0.187351 17.9984C0.186976 17.9994 0.1861 17.9999 0.18485 17.9999H0.18335V17.9974H0.18385C0.184475 17.9974 0.18485 17.9972 0.18485 17.9969C0.1851 17.9969 0.18535 17.9964 0.18535 17.9954V17.9864ZM0.18535 17.9824H0.188351V17.9849H0.18535V17.9824Z" fill="white" fill-opacity="0.8"/>
<path d="M0.20086 17.9911V17.9921H0.193858C0.193858 17.9928 0.193983 17.9933 0.194358 17.9936C0.194608 17.994 0.195358 17.9941 0.196358 17.9941H0.198359C0.198984 17.9938 0.199609 17.9935 0.20036 17.9931V17.9956C0.199609 17.9956 0.198984 17.9958 0.198359 17.9961C0.197609 17.9963 0.196984 17.9966 0.196358 17.9966C0.194358 17.9966 0.192857 17.9961 0.191857 17.9951C0.191107 17.9941 0.190857 17.993 0.190857 17.9916C0.190857 17.99 0.191107 17.9886 0.191857 17.9876C0.192858 17.9866 0.194108 17.9861 0.195858 17.9861C0.197484 17.9861 0.198609 17.9866 0.19936 17.9876C0.20036 17.9886 0.20086 17.9898 0.20086 17.9911H0.20086ZM0.197859 17.9901C0.197859 17.9895 0.197609 17.9891 0.197359 17.9891C0.196984 17.9888 0.196483 17.9886 0.195858 17.9886C0.195108 17.9886 0.194608 17.9888 0.194358 17.9891C0.193983 17.9891 0.193858 17.9895 0.193858 17.9901H0.197859Z" fill="white" fill-opacity="0.8"/>
<path d="M0.211383 17.9866V17.9891H0.209883C0.209508 17.9888 0.209008 17.9886 0.208382 17.9886C0.207632 17.9886 0.207007 17.989 0.206382 17.9896C0.206007 17.99 0.205882 17.9906 0.205882 17.9916C0.205882 17.9923 0.206007 17.993 0.206382 17.9936C0.207007 17.994 0.207632 17.9941 0.208382 17.9941H0.209883C0.210508 17.9938 0.211008 17.9935 0.211383 17.9931V17.9956C0.210633 17.996 0.210008 17.9961 0.209383 17.9961C0.209008 17.9963 0.208632 17.9966 0.208382 17.9966C0.206382 17.9966 0.204881 17.9961 0.203881 17.9951C0.203131 17.9941 0.202881 17.993 0.202881 17.9916C0.202881 17.99 0.203131 17.9886 0.203881 17.9876C0.204881 17.9866 0.206382 17.9861 0.208382 17.9861C0.208632 17.9861 0.209008 17.9863 0.209383 17.9866H0.211383V17.9866Z" fill="white" fill-opacity="0.8"/>
<path d="M0.21727 17.9836V17.9866H0.220271V17.9886H0.21727V17.9926V17.9936C0.21752 17.994 0.217895 17.9941 0.21827 17.9941H0.219771V17.9961H0.21727C0.21627 17.9961 0.215394 17.996 0.214769 17.9956C0.214019 17.995 0.213769 17.994 0.213769 17.9926V17.9886H0.212769V17.9866H0.213769V17.9836H0.21727Z" fill="white" fill-opacity="0.8"/>
</svg>
