<svg width="12" height="13" viewBox="0 0 12 13" fill="none" xmlns="http://www.w3.org/2000/svg">
<path d="M5.7918 2.76794C4.16403 2.76794 2.80125 3.89098 2.43532 5.40518C2.34701 5.39257 2.25865 5.37996 2.15774 5.37996C0.958994 5.37996 0 6.35155 0 7.53769C0 8.72382 0.971591 9.69543 2.15774 9.69543H2.78865L6.08204 2.78058C5.99369 2.78058 5.89272 2.76797 5.7918 2.76797V2.76794Z" fill="white"/>
<path d="M9.43849 4.61038C9.24921 4.61038 9.05994 4.6356 8.88327 4.67348C8.71921 4.34541 8.49211 4.04256 8.22714 3.77758L9.16087 1.82174C9.31226 1.50628 9.17348 1.14034 8.87062 0.988942C8.55516 0.837543 8.18922 0.976332 8.03782 1.27918L3.3438 11.1593C3.1924 11.4748 3.33119 11.8407 3.63404 11.9921C3.72235 12.03 3.81071 12.0552 3.89902 12.0552C4.12617 12.0552 4.35327 11.9291 4.46684 11.7019L5.41322 9.72082H9.45109C10.8517 9.72082 12 8.58517 12 7.17192C12 5.75866 10.8517 4.61039 9.43847 4.61039L9.43849 4.61038Z" fill="white"/>
</svg>
