<svg width="20" height="20" viewBox="0 0 20 20" fill="none" xmlns="http://www.w3.org/2000/svg">
<path d="M9.76119 10.5732C8.48731 10.5732 7.4682 11.5924 7.4682 12.8662C7.4682 14.1401 8.48731 15.1592 9.76119 15.1592C11.0351 15.1592 12.0542 14.1401 12.0542 12.8662C12.0542 11.465 11.0351 10.5732 9.76119 10.5732ZM9.76119 13.8854C9.12425 13.8854 8.6147 13.3757 8.6147 12.7389C8.6147 12.1019 9.12425 11.5924 9.76119 11.5924C10.3981 11.5924 10.9077 12.1019 10.9077 12.7389C10.9077 13.3757 10.3981 13.8854 9.76119 13.8854Z" fill="#D2D0D3"/>
<path d="M9.88855 8.02539C7.21339 8.02539 5.04779 10.191 5.04779 12.8662C5.04779 15.5413 7.21339 17.7069 9.88855 17.7069C12.5637 17.7069 14.7293 15.5413 14.7293 12.8662C14.7293 10.191 12.5637 8.02539 9.88855 8.02539ZM9.88855 16.433C7.97773 16.433 6.32168 14.9044 6.32168 12.8662C6.32168 10.9553 7.85034 9.29928 9.88855 9.29928C11.7994 9.29928 13.4554 10.9553 13.4554 12.8662C13.328 14.777 11.7994 16.433 9.88855 16.433Z" fill="#D2D0D3"/>
<path fill-rule="evenodd" clip-rule="evenodd" d="M4.6656 5.09554C4.6656 2.29299 6.9586 0 9.76115 0C12.5638 0 14.8566 2.1656 14.6019 4.96815V7.36981C16.0802 8.70779 17.0222 10.6327 17.0222 12.7389C17.0222 16.6879 13.7102 20 9.76115 20C5.8121 20 2.5 16.8153 2.5 12.7389C2.5 10.6925 3.33468 8.87081 4.6656 7.56394V5.09554ZM6.19427 6.41391C7.2537 5.81627 8.47357 5.47771 9.76115 5.47771C10.9467 5.47771 12.0749 5.77623 13.0733 6.30088V4.96815C13.0733 3.05732 11.5446 1.52866 9.63377 1.52866C7.72293 1.52866 6.19427 3.05732 6.19427 4.96815V6.41391ZM3.77389 12.7389C3.77389 16.051 6.44905 18.7261 9.76115 18.7261C13.0732 18.7261 15.7484 16.051 15.7484 12.7389C15.7484 9.42676 13.0732 6.7516 9.76115 6.7516C6.44905 6.7516 3.77389 9.42676 3.77389 12.7389Z" fill="#D2D0D3"/>
</svg>
