<svg width="20" height="20" viewBox="0 0 20 20" fill="none" xmlns="http://www.w3.org/2000/svg">
<g clip-path="url(#clip0_15826_21035)">
<path d="M10.785 20H9.2225C8.7818 19.9986 8.35341 19.8545 8.00144 19.5893C7.64948 19.324 7.39286 18.952 7.27 18.5287L6.7625 16.7612C6.4231 16.5923 6.09715 16.3975 5.7875 16.1787L3.9775 16.6287C3.54967 16.7335 3.09944 16.6969 2.6941 16.5246C2.28877 16.3522 1.95011 16.0533 1.72875 15.6725L0.947497 14.32C0.73015 13.9401 0.640645 13.5005 0.692185 13.0659C0.743725 12.6313 0.933581 12.2247 1.23375 11.9062L2.54 10.53C2.51521 10.3544 2.50185 10.1773 2.5 10C2.5 9.80875 2.5175 9.6225 2.54 9.4375L1.24875 8.09875C0.943704 7.78101 0.749841 7.37297 0.696206 6.93579C0.642572 6.4986 0.732055 6.0558 0.951247 5.67375L1.7325 4.32C1.9531 3.94203 2.28914 3.6448 2.69122 3.472C3.09329 3.29919 3.5402 3.25994 3.96625 3.36L5.8125 3.80375C6.135 3.58 6.45 3.3925 6.76375 3.23875L7.27125 1.47125C7.39369 1.04802 7.65003 0.675877 8.00182 0.410623C8.35361 0.145369 8.78191 0.00129465 9.2225 0L10.785 0C11.6775 0 12.4775 0.5975 12.7337 1.45375L13.265 3.24875C13.5675 3.4 13.87 3.58125 14.1887 3.80375L16.0362 3.36C16.4621 3.26003 16.9088 3.29933 17.3107 3.47214C17.7125 3.64494 18.0484 3.94213 18.2687 4.32L19.05 5.67375C19.5 6.455 19.3787 7.45125 18.7537 8.1L17.46 9.4375C17.4825 9.6225 17.5 9.80875 17.5 10C17.5 10.1812 17.4825 10.3562 17.4612 10.53L18.7675 11.9062C19.3825 12.555 19.5 13.5463 19.0537 14.32L18.2725 15.6737C18.0512 16.0549 17.7123 16.3539 17.3066 16.5261C16.9009 16.6983 16.4504 16.7343 16.0225 16.6287L14.2137 16.1787C13.89 16.4062 13.5762 16.595 13.265 16.7512L12.7337 18.5475C12.6067 18.966 12.3489 19.3328 11.9982 19.5942C11.6475 19.8556 11.2224 19.9978 10.785 20ZM5.765 14.5738L6.425 14.71C6.8205 15.0201 7.25401 15.2785 7.715 15.4788L8.16375 15.9837L8.77 18.0975C8.8275 18.2975 9.0125 18.4362 9.22 18.4362H10.7825C10.8838 18.4371 10.9826 18.4046 11.0636 18.3439C11.1447 18.2831 11.2036 18.1975 11.2312 18.1L11.8637 15.9662L12.3075 15.4688C12.7125 15.2975 13.1137 15.0563 13.57 14.7087L14.2312 14.5725L16.395 15.1112C16.4938 15.1354 16.5978 15.1271 16.6915 15.0875C16.7852 15.0478 16.8636 14.979 16.915 14.8913L17.6962 13.5375C17.7463 13.4497 17.7668 13.3482 17.7549 13.2478C17.743 13.1475 17.6992 13.0536 17.63 12.98L16.0675 11.3338L15.8587 10.7025L15.8862 10.485C15.9125 10.3262 15.9375 10.1663 15.9375 10C15.9375 9.81375 15.9112 9.63375 15.885 9.45375L15.8587 9.26625L16.0725 8.625L17.6275 7.01375C17.6977 6.94022 17.7422 6.84602 17.7546 6.74514C17.767 6.64426 17.7465 6.54207 17.6962 6.45375L16.915 5.10125C16.8637 5.01452 16.7862 4.94634 16.6936 4.90657C16.601 4.86679 16.4982 4.85749 16.4 4.88L14.2025 5.4075L13.5512 5.2725C13.1704 4.975 12.7544 4.72561 12.3125 4.53L11.8675 4.0325L11.235 1.89875C11.2067 1.8014 11.1475 1.71592 11.0663 1.65525C10.9851 1.59457 10.8864 1.56201 10.785 1.5625H9.2225C9.12101 1.56298 9.0224 1.59621 8.94132 1.65725C8.86024 1.71828 8.80103 1.80386 8.7725 1.90125L8.165 4.015L7.715 4.52125C7.26321 4.7173 6.8378 4.96927 6.44875 5.27125L5.7975 5.4075L3.60125 4.88C3.50286 4.8578 3.39997 4.86723 3.30727 4.90697C3.21456 4.9467 3.13677 5.01469 3.085 5.10125L2.30375 6.455C2.25315 6.54302 2.2325 6.64508 2.2449 6.74584C2.2573 6.84661 2.30208 6.94062 2.3725 7.01375L3.9275 8.625L4.14125 9.2675L4.115 9.455C4.08416 9.63513 4.06661 9.81729 4.0625 10C4.0625 10.1663 4.0875 10.3263 4.10875 10.4862L4.13625 10.7037L3.9275 11.335L2.365 12.9813C2.29615 13.0551 2.2526 13.1489 2.24069 13.2492C2.22878 13.3494 2.24911 13.4508 2.29875 13.5388L3.08 14.8925C3.13167 14.9797 3.20989 15.0481 3.30323 15.0877C3.39657 15.1273 3.50012 15.136 3.59875 15.1125L5.765 14.5738Z" fill="white" fill-opacity="0.8"/>
<path d="M10 7.8125C11.2063 7.8125 12.1875 8.79375 12.1875 10C12.1875 11.2063 11.2063 12.1875 10 12.1875C8.79375 12.1875 7.8125 11.2063 7.8125 10C7.8125 8.79375 8.79375 7.8125 10 7.8125ZM10 6.25C9.00544 6.25 8.05161 6.64509 7.34835 7.34835C6.64509 8.05161 6.25 9.00544 6.25 10C6.25 10.9946 6.64509 11.9484 7.34835 12.6517C8.05161 13.3549 9.00544 13.75 10 13.75C10.9946 13.75 11.9484 13.3549 12.6517 12.6517C13.3549 11.9484 13.75 10.9946 13.75 10C13.75 9.00544 13.3549 8.05161 12.6517 7.34835C11.9484 6.64509 10.9946 6.25 10 6.25Z" fill="white" fill-opacity="0.8"/>
</g>
<defs>
<clipPath id="clip0_15826_21035">
<rect width="20" height="20" fill="white"/>
</clipPath>
</defs>
</svg>
