<svg width="132" height="125" viewBox="0 0 132 125" fill="none" xmlns="http://www.w3.org/2000/svg">
<g clip-path="url(#clip0_15835_24446)">
<path d="M122.025 70.5562C122.025 70.5562 129.201 72.7162 131.272 87.0929C133.339 101.47 126.739 105.968 123.716 106.27C121.982 106.444 115.63 105.844 112.97 91.8039C112.397 88.7691 112.235 85.5794 112.552 82.6878C112.92 79.3781 113.923 74.7639 116.923 71.6478" fill="#848687"/>
<path d="M129.132 85.0607C128.613 86.7097 128.067 88.3471 127.417 89.9497C125.683 94.0607 121.552 99.5729 116.903 102.058C112.564 94.6529 110.168 80.1484 117.105 72.2516L122.028 70.5562C122.028 70.5562 127.119 72.7471 129.797 82.0142C129.627 83.0361 129.449 84.062 129.135 85.0568L129.132 85.0607Z" fill="#6E7072"/>
<path d="M126.159 98.8645C128.253 97.3703 129.875 95.7174 131.381 93.6387C131.09 102.948 126.341 105.898 123.894 106.146C122.81 106.254 119.857 106.045 117.221 102.163C120.391 101.853 123.461 100.792 126.159 98.8645Z" fill="#ACADA8"/>
<path d="M125.342 104.009C127.246 102.832 128.741 100.904 129.747 98.9148C130.568 97.289 131.23 95.4813 131.381 93.6387C131.427 93.5768 131.474 93.5187 131.52 93.4529C131.23 102.763 126.341 105.898 123.894 106.146C123.143 106.223 121.49 106.146 119.667 104.791C121.572 105.29 123.573 105.101 125.338 104.009H125.342Z" fill="#D2D4CF"/>
<path d="M109.885 90.0078C109.885 90.0078 115.831 94.0065 113.659 107.714C111.488 121.421 104.191 123.666 101.346 123.085C99.7123 122.756 94.0839 120.41 95.6207 106.843C95.9497 103.908 96.7045 100.955 97.8155 98.4001C99.0852 95.4814 101.303 91.5524 104.923 89.5549" fill="#848687"/>
<path d="M96.7703 117.554C102.883 114.999 108.67 110.957 113.535 106.483C115.947 98.9884 111.213 91.5174 111.503 92.3845L104.915 93.209C101.443 95.1252 99.0929 96.1781 98.0284 99.0387C95.3419 106.955 95.0478 113.617 96.3329 117.732L96.7703 117.554Z" fill="#6E7072"/>
<path d="M105.712 116.911C108.05 116.121 110.179 114.91 112.142 113.4C109.262 122.059 103.901 123.573 101.59 123.089C100.568 122.876 97.92 121.815 96.5961 117.391C99.5884 118.03 102.697 117.933 105.708 116.911H105.712Z" fill="#ACADA8"/>
<path d="M103.517 121.502C105.592 120.952 107.505 119.582 108.983 118.01C110.195 116.725 111.306 115.219 111.964 113.535C112.022 113.489 112.084 113.446 112.142 113.404C109.262 122.063 103.905 123.577 101.594 123.093C100.885 122.942 99.391 122.388 98.1019 120.581C99.7045 121.61 101.594 122.013 103.517 121.506V121.502Z" fill="#D2D4CF"/>
<path d="M9.97548 70.5562C9.97548 70.5562 2.7987 72.7162 0.727736 87.0929C-1.33936 101.47 5.26064 105.968 8.28386 106.27C10.0181 106.444 16.3703 105.844 19.0297 91.8039C19.6026 88.7691 19.7652 85.5794 19.4477 82.6878C19.08 79.3781 18.0774 74.7639 15.0774 71.6478" fill="#848687"/>
<path d="M5.91871 98.7716C3.84 97.2581 2.09032 95.3961 0.59613 93.2942C0.882582 102.72 5.73678 105.894 8.16774 106.142C9.24387 106.254 12.1742 106.041 14.7948 102.108C11.6477 101.795 8.60129 100.723 5.91871 98.7716Z" fill="#ACADA8"/>
<path d="M6.73162 103.978C4.83872 102.786 3.35614 100.835 2.35743 98.822C1.54065 97.1768 0.747104 94.7536 0.596136 92.8878C0.549685 92.8259 0.638717 93.3601 0.596136 93.2943C0.882588 102.72 5.73678 105.894 8.16775 106.142C8.91485 106.219 10.5523 106.142 12.3639 104.772C10.471 105.279 8.48517 105.085 6.73162 103.978Z" fill="#D2D4CF"/>
<path d="M2.86838 85.0607C3.28257 86.3691 3.70838 87.6698 4.19225 88.9549C4.31999 89.2878 4.4516 89.6169 4.58322 89.9498C4.38967 89.462 4.66451 90.1356 4.73418 90.2866C4.99741 90.8711 5.27612 91.4478 5.59354 92.0053C6.24773 93.1511 6.96773 94.262 7.73805 95.3343C7.85418 95.4969 7.97418 95.6556 8.09031 95.8182C8.09805 95.8259 8.15612 95.9033 8.20257 95.9691C8.25289 96.0311 8.30709 96.1007 8.31096 96.1124C8.40386 96.2285 8.49676 96.3446 8.59354 96.4607C8.99999 96.9562 9.41805 97.444 9.8516 97.9162C10.2929 98.3962 10.7497 98.8646 11.2374 99.302C11.4387 99.484 11.6516 99.6582 11.8568 99.8362C11.8645 99.844 11.8916 99.8633 11.9187 99.8866C12.0039 99.9485 12.1277 100.045 12.1664 100.072C13.0297 100.696 13.9432 101.249 14.8761 101.764C16.3587 99.693 17.76 96.4994 18.6852 91.5949C19.2387 88.684 19.3935 85.6259 19.0839 82.8504C18.7316 79.6762 17.7677 75.2517 14.8916 72.2595L9.96773 70.564C9.96773 70.564 4.87741 72.7549 2.1987 82.022C2.36902 83.044 2.54709 84.0698 2.86064 85.0646L2.86838 85.0607Z" fill="#6E7072"/>
<path d="M22.3858 90.3522C22.3858 90.3522 16.2426 94.0374 17.7058 107.841C19.1652 121.645 26.3381 124.262 29.2103 123.828C30.8594 123.581 36.6 121.533 35.7678 107.903C35.5897 104.957 34.9897 101.965 34.0103 99.36C32.8955 96.3793 30.8787 92.3419 27.3678 90.1587" fill="#848687"/>
<path d="M25.2619 117.716C22.9897 116.841 20.9458 115.576 19.08 114.031C21.4993 122.458 26.7213 124.177 29.0284 123.832C30.0503 123.677 32.7174 122.799 34.2464 118.641C31.2581 119.094 28.1922 118.85 25.2619 117.716Z" fill="#ACADA8"/>
<path d="M27.2013 122.218C25.1768 121.591 23.3574 120.178 21.9716 118.599C20.8413 117.31 19.8155 115.812 19.2465 114.166C19.1884 114.12 19.1303 114.077 19.0761 114.027C21.4955 122.454 26.7174 124.173 29.0245 123.828C29.7329 123.724 31.2349 123.267 32.5974 121.606C30.9639 122.508 29.0787 122.799 27.2013 122.214V122.218Z" fill="#D2D4CF"/>
<path d="M34.0645 118.541C33.4761 118.219 32.8994 117.879 32.3071 117.561C31.1497 116.946 29.9845 116.346 28.8426 115.695C27.7471 115.072 26.6865 114.399 25.6723 113.655C25.3897 113.446 25.1071 113.233 24.8323 113.013C24.7587 112.955 24.3019 112.575 24.2671 112.548C23.8374 112.165 22.2232 110.814 21.7974 110.427C20.2723 109.041 19.7458 108.461 18.2129 107.079C17.9807 106.61 17.9342 106.312 17.7252 105.832C17.5007 96.418 20.6516 92.6399 20.6516 92.6399L27.1897 93.8051C30.5574 95.8992 32.849 97.0722 33.7626 99.9831C35.4116 105.24 35.2413 109.808 35.2761 110.992C35.3923 114.673 34.1961 118.606 34.0607 118.537L34.0645 118.541Z" fill="#6E7072"/>
<path d="M9.99096 70.6065C9.03096 71.0246 8.14451 71.7291 7.39741 72.4568C7.03354 72.7859 6.64257 73.262 6.31354 73.6297C5.99999 74.0594 5.65161 74.462 5.37677 74.9188L5.02838 75.453L4.85419 75.7201L4.69935 75.9988C4.49806 76.3742 4.28903 76.7459 4.09548 77.1213L3.56516 78.2865C3.30967 78.813 3.08903 79.5252 2.87225 80.0749C2.72128 80.4581 2.42709 81.4994 2.29935 81.9059C2.04774 82.7071 1.8929 83.582 1.68774 84.3949C0.859349 88.5755 0.216768 92.9226 0.994833 97.1575C1.54451 100.065 2.90322 102.991 5.35354 104.752C7.6529 106.428 9.90193 106.305 12.2013 104.694C15.6155 102.136 17.0516 97.7691 18.0387 93.7704C19.2581 88.8039 19.5368 83.5588 18.3368 78.5613C17.7368 76.0684 16.7264 73.6413 15.0387 71.6788L15.1123 71.6052C17.6748 74.0517 18.9755 77.5239 19.6181 80.942C20.4581 85.2697 20.1716 89.7639 19.1187 94.0297C18.2787 97.4478 17.0284 100.893 14.7019 103.599C13.231 105.298 11.1135 106.63 8.80257 106.607C6.84774 106.572 5.14451 105.356 3.87096 103.978C-2.10194 97.3239 -0.483877 82.7342 4.09935 75.6349C4.28516 75.302 4.63354 74.8607 4.85032 74.5472C5.63225 73.4942 6.5729 72.5149 7.62967 71.733C8.33419 71.2065 9.10838 70.7613 9.95225 70.5059L9.98322 70.6065H9.99096Z" fill="#4E5152"/>
<path d="M122.04 70.5058C123.205 70.862 124.223 71.5665 125.137 72.3561C125.872 73.0065 126.561 73.7613 127.146 74.551C127.281 74.7445 127.599 75.1742 127.726 75.3561C128.009 75.8284 128.307 76.2968 128.582 76.7729C128.698 77.0129 129.217 78.0387 129.321 78.2516C129.399 78.4413 129.619 78.9639 129.697 79.169C129.786 79.3781 129.983 79.8852 130.072 80.0865C130.126 80.2761 130.51 81.4374 130.575 81.6542C132.612 88.4207 133.068 98.7445 127.905 104.218C126.674 105.492 125.036 106.575 123.201 106.606C120.89 106.626 118.777 105.294 117.302 103.599C114.975 100.893 113.725 97.4478 112.885 94.0297C111.832 89.7678 111.546 85.2697 112.386 80.942C113.028 77.5239 114.329 74.0516 116.892 71.6052L116.965 71.6787C115.277 73.6413 114.271 76.0684 113.667 78.5613C112.467 83.5626 112.746 88.8039 113.965 93.7703C114.948 97.769 116.385 102.139 119.803 104.694C122.098 106.301 124.343 106.432 126.65 104.752C129.101 102.991 130.459 100.068 131.009 97.1574C131.489 94.6258 131.419 92.0168 131.141 89.4697C130.877 87.1316 130.436 84.8052 129.879 82.5213C129.732 81.9407 129.406 80.9536 129.24 80.3729C129.031 79.8232 128.779 79.1226 128.57 78.5768C128.47 78.3484 128.017 77.3613 127.908 77.1252C127.665 76.6568 127.401 76.1884 127.15 75.72C126.755 75.1123 126.341 74.4465 125.884 73.8813C125.795 73.7652 125.594 73.4981 125.481 73.3858C125.365 73.2697 124.978 72.7858 124.839 72.6774C124.312 72.1471 123.751 71.6594 123.135 71.2297C122.775 71.0013 122.412 70.7613 122.021 70.6026L122.052 70.502L122.04 70.5058Z" fill="#4E5152"/>
<path d="M109.916 89.9651C110.884 90.6154 111.615 91.5483 112.227 92.5238C112.715 93.3251 113.137 94.2077 113.446 95.0941C113.516 95.3109 113.686 95.787 113.752 95.9961C113.876 96.507 114.015 97.0219 114.135 97.529C114.174 97.7845 114.36 98.8683 114.395 99.089C114.445 99.5419 114.492 100.208 114.534 100.661L114.561 100.978V101.292C114.782 108.364 112.413 118.304 106.026 122.253C104.474 123.155 102.569 123.786 100.773 123.267C98.6477 122.632 97.0916 120.817 96.2206 118.846C94.858 115.719 94.6877 112.215 94.8813 108.855C95.1251 104.659 96.1355 100.475 98.129 96.7587C99.6851 93.8167 101.861 91.0141 104.895 89.5122L104.946 89.6051C102.855 90.9251 101.253 92.8567 100.006 94.9625C97.5019 99.1896 96.2864 104.052 95.9961 108.925C95.8413 111.348 95.8374 113.81 96.36 116.191C96.9871 119.137 98.7871 122.582 102.097 122.876C105.418 122.965 108.252 120.577 109.947 117.886C112.347 114.031 113.048 109.417 113.52 104.977C113.559 104.175 113.667 103.335 113.663 102.53C113.659 102.124 113.69 101.094 113.655 100.695C113.563 97.9625 113.075 95.1909 111.836 92.7367C111.519 92.1174 111.124 91.4825 110.69 90.9329C110.427 90.6232 110.164 90.3019 109.85 90.0464L109.908 89.9574L109.916 89.9651Z" fill="#4E5152"/>
<path d="M22.4129 90.3988C21.7858 90.8711 21.2323 91.5679 20.7794 92.2104C20.4465 92.6827 20.1213 93.2672 19.8619 93.7937C19.7768 93.9369 19.6723 94.1885 19.6065 94.3472C18.8052 96.2091 18.3213 98.2143 18.1277 100.235C18.1006 100.444 18.0542 100.943 18.031 101.145C18.0194 101.721 17.9419 102.712 17.9458 103.281C17.9768 104.09 17.9535 104.927 18.0116 105.732C18.2826 109.99 18.7781 114.407 20.8839 118.196C22.4361 120.968 25.1458 123.503 28.4671 123.585C31.7884 123.461 33.7626 120.112 34.5406 117.201C35.1832 114.852 35.3071 112.394 35.28 109.967C35.2258 104.292 33.9406 98.4737 30.7355 93.724C29.8103 92.3691 28.6839 91.1653 27.3406 90.2091L27.3948 90.1201C31.0994 92.2221 33.3097 96.155 34.7419 100.038C36.9097 105.91 37.5445 117.116 33.0852 122.001C30.5458 124.723 27.5923 124.738 24.5845 122.756C18.4103 118.487 16.5561 108.434 17.1406 101.381L17.16 101.067L17.2026 100.754C17.249 100.444 17.3342 99.813 17.3768 99.5033C17.4271 99.0582 17.6748 98.0904 17.76 97.6453C17.9032 97.1421 18.0697 96.635 18.2206 96.1317C18.3019 95.915 18.4877 95.4621 18.569 95.2491C18.751 94.7575 19.0219 94.293 19.2465 93.8208C19.6103 93.2014 20.0245 92.5356 20.4852 91.9898C21.0155 91.3395 21.631 90.7433 22.3548 90.3098L22.409 90.3988H22.4129Z" fill="#4E5152"/>
<path d="M66 121.618C100.827 121.618 129.097 96.333 129.097 65.1021C129.097 33.8711 100.827 8.58594 66 8.58594C31.1729 8.58594 2.90323 33.8672 2.90323 65.1021C2.90323 96.3369 31.1729 121.618 66 121.618Z" fill="url(#paint0_linear_15835_24446)"/>
<path d="M66 8.97303C82.4671 8.97303 98.3303 15.0969 109.963 25.5098C121.552 35.8879 127.548 50.4466 127.548 65.1021C127.548 79.7575 122.326 93.5421 110.737 103.92C99.1045 114.337 82.4671 121.231 66 121.231C49.5329 121.231 34.0568 114.333 22.4245 103.92C10.8348 93.5421 4.45162 79.7575 4.45162 65.1021C4.45162 50.4466 10.8348 36.6621 22.4245 26.284C34.0568 15.8672 49.5329 8.97303 66 8.97303ZM66 8.58594C31.1729 8.58594 2.90323 33.8672 2.90323 65.1021C2.90323 96.3369 31.1729 121.618 66 121.618C100.827 121.618 129.097 96.333 129.097 65.1021C129.097 33.8711 100.827 8.58594 66 8.58594Z" fill="#B0B1B2"/>
<path d="M66 121.812C31.1032 121.812 2.70969 96.3717 2.70969 65.102C2.70969 33.8323 31.1032 8.39233 66 8.39233C100.897 8.39233 129.29 33.8323 129.29 65.102C129.29 96.3717 100.897 121.812 66 121.812ZM66 8.77943C31.3161 8.77943 3.09678 34.0452 3.09678 65.102C3.09678 96.1588 31.3161 121.425 66 121.425C100.684 121.425 128.903 96.1588 128.903 65.102C128.903 34.0452 100.684 8.77943 66 8.77943Z" fill="#4E5152"/>
<path d="M90.0348 116.748C68.0052 124.173 59.1523 120.825 59.1523 120.825C59.1523 120.825 109.181 123.449 124.301 75.4375C124.595 68.551 128.079 70.0917 128.234 68.551C127.715 72.5768 128.234 100.626 90.0348 116.748Z" fill="#B9B9B9"/>
<path d="M6.48 79.1807C3.57628e-06 18.9794 61.4013 9.39486 65.2761 7.90454C51.5226 9.20519 6.00775 19.9858 3.96387 63.0774C3.54581 71.8529 6.48 79.1768 6.48 79.1768V79.1807Z" fill="#D4D7D7"/>
<path d="M113.079 35.4348C113.079 35.4348 111.112 35.6322 110.52 36.8129C109.932 37.9935 111.503 39.96 112.486 39.3716C113.47 38.7793 114.848 36.4219 113.075 35.4387L113.079 35.4348Z" fill="#D4D7D7"/>
<path d="M104.226 24.6156C104.226 24.6156 100.293 26.3846 103.44 30.124C106.587 33.8633 107.768 34.6491 109.142 32.6827C110.52 30.7162 109.537 25.6027 107.373 24.813C105.209 24.0272 104.226 24.6156 104.226 24.6156Z" fill="#D4D7D7"/>
<path d="M5.87226 56.7329C5.87226 56.7329 9.70839 55.6993 10.5948 57.1742C11.4813 58.649 11.4813 59.8297 9.70839 61.5987C7.93549 63.3677 7.4942 64.1071 6.16646 64.2542C4.83872 64.4013 5.87226 56.729 5.87226 56.729" fill="#D4D7D7"/>
<path d="M7.99354 50.8337C7.99354 50.8337 10.0606 49.8001 10.649 50.5395C11.2413 51.2788 10.0568 53.0479 9.02709 53.342C7.99354 53.6362 6.95999 52.3085 7.99354 50.8337Z" fill="#D4D7D7"/>
<path d="M67.5406 106.943C67.5406 106.943 68.3264 119.81 68.7213 120.693C66.36 121.185 64.2039 120.987 64.2039 120.987C64.2039 120.987 65.3768 113.729 65.1832 106.254C67.2503 106.057 67.5445 106.943 67.5445 106.943" fill="#B9B9B9"/>
<path d="M127.533 67.9626C127.533 67.9626 119.075 74.6788 113.272 73.9936C113.272 74.7794 112.943 75.9291 112.943 75.9291C112.943 75.9291 122.187 73.862 126.221 70.1265C128.071 69.4568 127.529 67.9665 127.529 67.9665L127.533 67.9626Z" fill="#D4D7D7"/>
<path d="M127.355 69.1102C127.355 69.1102 121.677 74.4069 112.743 76.0603C112.743 76.8372 112.258 77.0324 112.258 77.0324C112.258 77.0324 122.013 76.0603 126.289 71.1539C127.259 67.9429 127.355 69.1102 127.355 69.1102Z" fill="#B9B9B9"/>
<path d="M113.09 77.636C113.09 93.6502 92.4774 107.079 66.1781 107.079C39.8787 107.079 18.9677 93.8476 18.9677 77.8335C18.9677 61.8193 39.8787 49.0876 66.1781 49.0876C92.4774 49.0876 113.09 61.6218 113.09 77.636Z" fill="#3E3E3E"/>
<path d="M113.667 72.747C113.667 88.7612 92.4968 102.058 66.1974 102.058C39.8981 102.058 18.5807 89.0786 18.5807 73.0606C18.5807 57.0425 39.9019 43.5444 66.1974 43.5444C92.4929 43.5444 113.667 56.7328 113.667 72.7431V72.747Z" fill="#D4D7D7"/>
<path d="M66.0464 103.974C91.8348 103.974 112.738 90.9909 112.738 74.9806C112.738 58.9703 91.8348 45.9871 66.0464 45.9871C40.2581 45.9871 19.3548 58.9703 19.3548 74.9806C19.3548 90.9909 40.2581 103.974 66.0464 103.974Z" fill="#848484"/>
<path d="M111.097 75.6775C111.089 75.9717 110.543 75.5807 110.516 75.871C110.334 77.6246 109.928 78.6659 109.111 80.2297C93.6968 111.945 29.8181 108.321 21.9213 75.6504C21.0387 75.5807 20.5084 75.5265 19.6297 75.4646C20.4852 91.0104 40.6993 103.452 65.9419 103.452C91.1845 103.452 112.254 90.9214 112.39 74.9807C112.065 75.2904 112.134 75.6388 111.484 75.4839L111.097 75.6775Z" fill="#696969"/>
<path d="M65.8065 99.871C87.4004 99.871 104.903 88.8654 104.903 75.2904C104.903 61.7153 87.3966 50.7097 65.8065 50.7097C44.2163 50.7097 26.7097 61.7153 26.7097 75.2904C26.7097 88.8654 44.2163 99.871 65.8065 99.871Z" fill="#272727"/>
<path fill-rule="evenodd" clip-rule="evenodd" d="M38.2606 58.4052C31.2232 62.7755 26.9768 68.7407 26.9768 75.2439C26.9768 81.7471 31.2232 87.7162 38.2606 92.0826C45.2903 96.4452 55.0297 99.1626 65.8181 99.1626C76.6065 99.1626 86.3497 96.4452 93.3755 92.0826C100.409 87.7123 104.655 81.7471 104.655 75.2439C104.655 68.7407 100.409 62.7755 93.3755 58.4052C86.3497 54.0426 76.6065 51.3252 65.8181 51.3252C55.0297 51.3252 45.2903 54.0426 38.2606 58.4052ZM37.711 57.5187C44.9303 53.0362 54.8671 50.28 65.8181 50.28C76.769 50.28 86.7097 53.0362 93.9252 57.5187C101.137 61.9974 105.701 68.2491 105.701 75.2439C105.701 82.2387 101.137 88.4942 93.9252 92.9729C86.7058 97.4555 76.769 100.212 65.8181 100.212C54.8671 100.212 44.9265 97.4555 37.711 92.9729C30.4994 88.4942 25.9355 82.2426 25.9355 75.2439C25.9355 68.2452 30.4994 61.9936 37.711 57.5187Z" fill="#1B1B1B"/>
<path fill-rule="evenodd" clip-rule="evenodd" d="M65.2181 99.9523C65.2181 99.9523 65.2181 99.9524 65.7368 100.022C66.0826 100.071 66.2555 100.094 66.2555 100.092V100.107C66.2555 100.107 66.2516 100.134 66.2477 100.161C66.2439 100.208 66.2361 100.281 66.2284 100.378C66.2129 100.572 66.1974 100.854 66.1935 101.21C66.1897 101.923 66.2361 102.918 66.4568 104.048L65.431 104.245C65.1987 103.034 65.1445 101.965 65.1522 101.203C65.1522 100.819 65.1716 100.51 65.191 100.297C65.1987 100.188 65.2064 100.107 65.2142 100.045C65.2142 100.014 65.2181 99.9949 65.2219 99.9756C65.2219 99.9678 65.2219 99.9601 65.2219 99.9562V99.9485L65.2181 99.9523Z" fill="#1B1B1B"/>
<path fill-rule="evenodd" clip-rule="evenodd" d="M19.3548 76.2176C19.3548 76.2176 19.3548 76.2176 19.5057 75.7091C19.6063 75.3701 19.6566 75.2005 19.6566 75.2005H19.6638C19.6638 75.2005 19.6782 75.2085 19.689 75.2125C19.7141 75.2204 19.7501 75.2323 19.8004 75.2482C19.901 75.276 20.0483 75.3197 20.2351 75.3634C20.6124 75.4508 21.1513 75.5422 21.7837 75.5661C23.052 75.6137 24.6796 75.3873 26.1851 74.3225L26.7097 75.2244C24.985 76.4441 23.1454 76.6904 21.7513 76.6388C21.0543 76.611 20.4615 76.5116 20.0411 76.4163C19.8327 76.3686 19.6638 76.3209 19.5453 76.2891C19.4878 76.2732 19.4411 76.2574 19.4087 76.2454C19.3944 76.2415 19.38 76.2375 19.3728 76.2335H19.3584L19.3548 76.2176Z" fill="#1B1B1B"/>
<path fill-rule="evenodd" clip-rule="evenodd" d="M112.452 76.2176C112.452 76.2176 112.452 76.2176 112.301 75.7091C112.2 75.3701 112.15 75.2005 112.15 75.2005H112.143C112.143 75.2005 112.128 75.2085 112.117 75.2125C112.092 75.2204 112.056 75.2323 112.006 75.2482C111.905 75.276 111.758 75.3197 111.571 75.3634C111.194 75.4508 110.655 75.5422 110.023 75.5661C108.754 75.6137 107.127 75.3873 105.621 74.3225L105.097 75.2244C106.821 76.4441 108.661 76.6904 110.055 76.6388C110.752 76.611 111.345 76.5116 111.765 76.4163C111.974 76.3686 112.143 76.3209 112.261 76.2891C112.319 76.2732 112.365 76.2574 112.398 76.2454C112.412 76.2415 112.426 76.2375 112.434 76.2335H112.448L112.452 76.2176Z" fill="#1B1B1B"/>
<path d="M115.564 72.6775C116.021 72.6233 116.334 72.0969 116.265 71.5046C116.195 70.9124 115.761 70.4749 115.305 70.533C114.848 70.5872 114.534 71.1137 114.604 71.7059C114.674 72.2982 115.103 72.7356 115.564 72.6775Z" fill="#4E5152"/>
<path d="M115.87 81.5923C116.021 81.0155 115.785 80.4504 115.339 80.3342C114.894 80.2181 114.406 80.5897 114.255 81.1665C114.101 81.7433 114.341 82.3084 114.786 82.4245C115.231 82.5445 115.719 82.1691 115.87 81.5923Z" fill="#4E5152"/>
<path d="M17.4581 81.5806C17.9148 81.4993 18.1974 80.9613 18.0968 80.3729C17.9961 79.7845 17.5432 79.3703 17.0865 79.4516C16.6297 79.5329 16.3471 80.0709 16.4478 80.6593C16.5484 81.2477 17.0013 81.6619 17.4581 81.5806Z" fill="#4E5152"/>
<path d="M17.9536 70.924C18.0774 70.3394 17.8103 69.7898 17.3574 69.693C16.9045 69.6001 16.44 69.9949 16.3161 70.5794C16.1923 71.164 16.4594 71.7136 16.9123 71.8104C17.3652 71.9033 17.8297 71.5085 17.9536 70.924Z" fill="#4E5152"/>
<path d="M19.1419 77.4272C9.47226 75.5692 4.33936 69.6775 4.33936 69.6775L4.49032 67.5137C4.49032 67.5137 9.46839 72.093 18.9755 74.6479C18.9639 75.6814 19.1071 76.7266 19.1381 77.4233L19.1419 77.4272Z" fill="#D4D7D7"/>
<path fill-rule="evenodd" clip-rule="evenodd" d="M3.10071 68.153C3.10071 68.153 3.10071 68.153 3.27408 67.9475L3.44745 67.7419H3.45139L3.46715 67.7581C3.46715 67.7581 3.50261 67.7903 3.53019 67.8145C3.58535 67.8629 3.66809 67.9354 3.77842 68.0281C3.99513 68.2135 4.31428 68.4755 4.728 68.7979C5.54755 69.4427 6.7296 70.3133 8.16382 71.2282C11.0362 73.058 14.9173 75.049 18.9677 75.722L18.8811 76.2581C14.7281 75.5689 10.7801 73.5376 7.88013 71.6877C6.42621 70.7607 5.23234 69.878 4.40096 69.2291C3.98331 68.9027 3.66021 68.6367 3.43957 68.4473C3.32924 68.3546 3.24256 68.282 3.1874 68.2296C3.15981 68.2054 3.13617 68.1853 3.12041 68.1732L3.10465 68.1571H3.09677L3.10071 68.153Z" fill="#4E5152"/>
<path fill-rule="evenodd" clip-rule="evenodd" d="M127.459 68.9768L127.63 69.1742L127.8 69.3716H127.796L127.781 69.3871C127.781 69.3871 127.75 69.4142 127.723 69.4335C127.672 69.4761 127.599 69.5381 127.502 69.6155C127.308 69.7742 127.022 69.9987 126.654 70.2735C125.919 70.8232 124.854 71.5665 123.538 72.3561C120.906 73.9277 116.865 75.6697 112.788 76.3316L112.703 75.8168C116.69 75.1703 120.67 73.4632 123.267 71.9071C124.568 71.1329 125.617 70.3974 126.341 69.8555C126.701 69.5845 126.983 69.3639 127.173 69.209C127.266 69.1316 127.339 69.0735 127.386 69.031C127.409 69.0116 127.428 68.9961 127.44 68.9845L127.452 68.9729L127.459 68.9768Z" fill="#4E5152"/>
<path fill-rule="evenodd" clip-rule="evenodd" d="M65.6748 104.396L65.9342 104.365C66.1936 104.334 66.1936 104.334 66.1936 104.334V104.361C66.1936 104.361 66.2013 104.4 66.2052 104.435C66.2129 104.497 66.2516 104.81 66.2632 104.93C66.2865 105.174 66.3213 105.53 66.3561 105.983C66.4297 106.889 66.511 108.178 66.5536 109.719C66.6387 112.8 66.4181 117.418 65.7755 121.471L65.2607 121.39C65.8955 117.379 66.1161 112.8 66.031 109.734C65.9884 108.201 65.9071 106.924 65.8336 106.026C65.7987 105.577 65.7639 105.225 65.7407 104.985C65.729 104.865 65.7174 104.772 65.7136 104.71C65.7136 104.679 65.6787 104.439 65.6748 104.423L65.7019 104.625L65.671 104.4L65.6748 104.396Z" fill="#4E5152"/>
<path d="M70.9548 108.248C71.5432 108.151 71.9613 107.702 71.8839 107.245C71.8064 106.788 71.2684 106.502 70.68 106.599C70.0916 106.695 69.6735 107.144 69.751 107.601C69.8284 108.058 70.3664 108.348 70.9548 108.248Z" fill="#4E5152"/>
<path d="M62.1019 107.702C62.1987 107.249 61.8039 106.781 61.2232 106.657C60.6387 106.529 60.089 106.792 59.9884 107.245C59.8916 107.698 60.2864 108.166 60.8671 108.29C61.4516 108.418 62.0013 108.155 62.1019 107.702Z" fill="#4E5152"/>
<path d="M84.9484 16.5328C84.9484 16.5328 84.391 24.4025 75.3097 24.4025C67.6374 24.4025 65.2761 16.1418 65.2761 16.1418L84.9484 16.5367V16.5328Z" fill="#898B8C"/>
<path d="M65.0787 17.5162C78.8478 22.2387 85.7342 19.0916 86.911 16.5329C90.8439 8.07487 73.1419 7.28906 73.1419 7.28906C73.1419 7.28906 67.6336 7.48648 63.1084 10.2387" fill="#C9CACB"/>
<path d="M66.1006 12.0852C73.8348 8.66326 74.6206 8.7639 79.9045 8.28777C76.4632 7.43616 73.1497 7.28906 73.1497 7.28906C73.1497 7.28906 67.6413 7.48648 63.1161 10.2387L65.0826 10.7613C65.5161 9.97164 65.28 12.4491 66.1006 12.0852Z" fill="#898B8C"/>
<path d="M79.9007 8.28784C80.8336 12.2788 79.8348 16.3936 77.4348 19.5253C82.7574 19.6336 85.6219 17.8995 86.3187 16.3898C88.0994 11.4388 83.849 9.15107 79.9007 8.28784Z" fill="#999999"/>
<path d="M85.2 10.6453C85.3161 10.893 85.3935 10.9433 85.4864 11.1988C85.8735 12.2324 85.8813 13.3162 85.6297 14.3807C85.2193 16.1111 83.9303 17.7485 82.6258 18.9833C84.9019 18.3678 86.2297 17.3382 86.6826 16.3975C88.1148 14.4737 86.8955 11.9111 85.2 10.6491V10.6453Z" fill="#A2A2A3"/>
<path d="M65.0787 17.5162C70.8039 19.1149 80.28 21.0969 85.4052 17.4194C90.1703 12.693 82.5677 8.99234 78.3406 8.4775C73.169 7.12266 67.8232 7.80395 63.1122 10.2388C67.6103 7.21169 73.2697 6.24782 78.5419 7.45169C97.3858 11.1175 86.5548 26.9343 65.0787 17.5162H65.0826H65.0787Z" fill="#4E5152"/>
<path d="M65.7678 12.2052C72.4065 8.81421 77.6671 4.79615 77.6323 2.9226C77.8297 -2.73288 68.7755 1.62195 64.6374 3.54583C63.3639 4.13808 62.1445 4.8426 60.991 5.64776C58.8581 7.13808 55.6955 8.79099 53.4929 11.2878" fill="#C7C8C9"/>
<path d="M75.8516 0.696783C68.7136 0.139364 58.5407 6.27098 53.0129 11.5239L56.3265 9.70453C62.8181 5.80646 70.2194 2.65936 75.8516 0.696783Z" fill="#D4D7D7"/>
<path d="M68.6555 1.58317C70.7845 3.34833 70.9084 6.93672 69.8826 9.91736C78.96 4.45156 78.9987 -2.22586 68.6555 1.58317Z" fill="#999999"/>
<path d="M73.6684 0.4685C76.7381 1.43237 75.449 4.45947 74.2761 6.73947C77.7639 4.20786 78.4142 0.011726 73.6684 0.4685Z" fill="#A2A2A3"/>
<path d="M77.4387 0.696773C73.1923 -2.47355 57.6774 5.90322 53.0129 11.5239C57.3368 7.42064 74.7677 -2.10968 76.8194 1.54064C78.871 5.19097 68.4271 10.231 65.7677 12.2052C69.3561 10.3006 81.6852 3.8671 77.4387 0.696773Z" fill="#4E5152"/>
<path d="M2.90323 65.1018C2.90323 96.3328 31.1729 121.618 66 121.618C66.0697 121.618 66.1394 121.614 66.209 121.614L66.0465 121.231C66.0465 121.231 66.0155 121.231 66 121.231C49.5329 121.231 34.0568 114.333 22.4245 103.92C10.8348 93.5418 4.45162 79.7573 4.45162 65.1018C4.45162 50.4464 10.8348 36.6618 22.4245 26.2838C31.3045 18.3328 42.4258 12.4373 54.5187 10.0876L55.3239 9.39087C25.5755 13.9393 2.90323 37.1302 2.90323 65.1018Z" fill="#4E5152"/>
<path d="M86.3148 11.5781L86.729 12.2594C95.3923 15.0697 103.359 19.5988 109.963 25.5097C121.552 35.8878 127.548 50.4465 127.548 65.102C127.548 79.7575 122.326 93.542 110.737 103.92C99.1045 114.337 82.4671 121.231 66 121.231C65.8684 121.231 65.7368 121.223 65.6052 121.208L65.5394 121.607C65.6942 121.61 65.8452 121.618 66 121.618C100.827 121.618 129.097 96.333 129.097 65.102C129.097 40.2426 111.186 19.1536 86.3148 11.582V11.5781Z" fill="#4E5152"/>
<path fill-rule="evenodd" clip-rule="evenodd" d="M33.2013 54.9214C24.84 60.1123 19.7729 67.2194 19.7729 74.9807C19.7729 82.742 24.84 89.8452 33.2013 95.0401C41.5548 100.227 53.129 103.456 65.9419 103.456C78.7548 103.456 90.329 100.231 98.6826 95.0401C107.044 89.8452 112.111 82.742 112.111 74.9807C112.111 67.2194 107.044 60.1162 98.6826 54.9214C90.329 49.7343 78.7548 46.5059 65.9419 46.5059C53.129 46.5059 41.5548 49.7304 33.2013 54.9214ZM32.6516 54.0349C41.1948 48.7278 52.9703 45.4646 65.9458 45.4646C78.9213 45.4646 90.6929 48.7278 99.2361 54.0349C107.772 59.3343 113.16 66.7278 113.16 74.9807C113.16 83.2336 107.775 90.6272 99.2361 95.9265C90.6929 101.234 78.9174 104.497 65.9458 104.497C52.9742 104.497 41.1987 101.234 32.6516 95.9265C24.1161 90.6233 18.7278 83.2336 18.7278 74.9807C18.7278 66.7278 24.1123 59.3343 32.6516 54.0349Z" fill="#1B1B1B"/>
<path d="M101.419 67.8542C96.2594 58.7701 82.3079 52.2581 65.9062 52.2581C45.1147 52.2581 28.2581 62.7179 28.2581 75.6183C28.2581 78.8683 29.3276 81.9628 31.2591 84.7742C52.4935 56.3096 91.0236 56.3774 101.415 67.8542H101.419Z" fill="#5D5D5D"/>
<path d="M71 83.6833C71 86.066 68.7598 88.0001 66 88.0001C63.2402 88.0001 61 86.066 61 83.6833" stroke="#7B7B79" stroke-width="2.10319" stroke-miterlimit="10" stroke-linecap="round"/>
<path d="M57.4118 76.0605C57.4118 78.658 55.3033 80.7664 52.7059 80.7664C50.1084 80.7664 48 78.658 48 76.0605" stroke="#7B7B79" stroke-width="2.10319" stroke-miterlimit="10" stroke-linecap="round"/>
<path d="M48.2658 72.0903C48.2658 72.0903 49.7241 70.6509 51.8562 70.0632C53.9882 69.4754 55.9781 69.9641 55.9781 69.9641" stroke="#7B7B79" stroke-width="2" stroke-miterlimit="10" stroke-linecap="round"/>
<rect x="47" y="84.0002" width="11" height="5" rx="2.5" fill="#7B7B79" fill-opacity="0.3"/>
<path d="M74.5882 76.0605C74.5882 78.658 76.6967 80.7664 79.2941 80.7664C81.8916 80.7664 84 78.658 84 76.0605" stroke="#7B7B79" stroke-width="2.10319" stroke-miterlimit="10" stroke-linecap="round"/>
<path d="M83.7342 72.0903C83.7342 72.0903 82.2759 70.6509 80.1438 70.0632C78.0118 69.4754 76.0219 69.9641 76.0219 69.9641" stroke="#7B7B79" stroke-width="2" stroke-miterlimit="10" stroke-linecap="round"/>
<rect width="11" height="5" rx="2.5" transform="matrix(-1 0 0 1 85 84)" fill="#7B7B79" fill-opacity="0.3"/>
</g>
<defs>
<linearGradient id="paint0_linear_15835_24446" x1="66" y1="8.58594" x2="66" y2="121.618" gradientUnits="userSpaceOnUse">
<stop stop-color="#CDCECF"/>
<stop offset="0.5" stop-color="#A4A4A4"/>
<stop offset="1" stop-color="#777878"/>
</linearGradient>
<clipPath id="clip0_15835_24446">
<rect width="132" height="124.157" fill="white"/>
</clipPath>
</defs>
</svg>
