<svg width="132" height="125" viewBox="0 0 132 125" fill="none" xmlns="http://www.w3.org/2000/svg">
<g clip-path="url(#clip0_15835_25486)">
<path d="M122.025 70.5562C122.025 70.5562 129.201 72.7162 131.272 87.0929C133.339 101.47 126.739 105.968 123.716 106.27C121.982 106.444 115.63 105.844 112.97 91.8039C112.398 88.7691 112.235 85.5794 112.552 82.6878C112.92 79.3781 113.923 74.7639 116.923 71.6478" fill="#659DBA"/>
<path d="M129.132 85.0607C128.613 86.7097 128.067 88.3471 127.417 89.9497C125.683 94.0607 121.552 99.5729 116.903 102.058C112.564 94.6529 110.168 80.1484 117.105 72.2516L122.028 70.5562C122.028 70.5562 127.119 72.7471 129.797 82.0142C129.627 83.0361 129.449 84.062 129.135 85.0568L129.132 85.0607Z" fill="#3C8898"/>
<path d="M126.159 98.8645C128.253 97.3703 129.875 95.7174 131.381 93.6387C131.09 102.948 126.341 105.898 123.894 106.146C122.81 106.254 119.857 106.045 117.221 102.163C120.391 101.853 123.461 100.792 126.159 98.8645Z" fill="#57BF38"/>
<path d="M125.342 104.009C127.247 102.832 128.741 100.904 129.747 98.9148C130.568 97.289 131.23 95.4813 131.381 93.6387C131.427 93.5768 131.474 93.5187 131.52 93.4529C131.23 102.763 126.341 105.898 123.894 106.146C123.143 106.223 121.49 106.146 119.667 104.791C121.572 105.29 123.573 105.101 125.338 104.009H125.342Z" fill="#6FE043"/>
<path d="M109.885 90.0077C109.885 90.0077 115.831 94.0064 113.659 107.714C111.488 121.421 104.191 123.666 101.346 123.085C99.7123 122.756 94.0839 120.41 95.6207 106.843C95.9497 103.908 96.7046 100.955 97.8156 98.4C99.0852 95.4813 101.303 91.5522 104.923 89.5548" fill="#659DBA"/>
<path d="M96.7703 117.554C102.883 114.999 108.67 110.957 113.535 106.483C115.947 98.9884 111.213 91.5174 111.503 92.3845L104.915 93.209C101.443 95.1252 99.0929 96.1781 98.0284 99.0387C95.3419 106.955 95.0478 113.617 96.3329 117.732L96.7703 117.554Z" fill="#3C8898"/>
<path d="M105.712 116.911C108.05 116.121 110.179 114.91 112.142 113.4C109.262 122.059 103.901 123.573 101.59 123.089C100.568 122.876 97.9201 121.816 96.5962 117.391C99.5884 118.03 102.697 117.933 105.708 116.911H105.712Z" fill="#57BF38"/>
<path d="M103.518 121.502C105.592 120.952 107.505 119.582 108.983 118.01C110.195 116.725 111.306 115.219 111.964 113.535C112.022 113.489 112.084 113.446 112.142 113.404C109.262 122.063 103.905 123.577 101.594 123.093C100.885 122.942 99.3911 122.388 98.1021 120.581C99.7046 121.61 101.594 122.013 103.518 121.506V121.502Z" fill="#6FE043"/>
<path d="M9.97542 70.5562C9.97542 70.5562 2.79864 72.7162 0.727675 87.0929C-1.33942 101.47 5.26058 105.968 8.2838 106.27C10.018 106.444 16.3703 105.844 19.0296 91.8039C19.6025 88.7691 19.7651 85.5794 19.4477 82.6878C19.0799 79.3781 18.0774 74.7639 15.0774 71.6478" fill="#659DBA"/>
<path d="M5.91877 98.7716C3.84006 97.2581 2.09038 95.3961 0.596191 93.2942C0.882643 102.72 5.73684 105.894 8.1678 106.142C9.24393 106.254 12.1743 106.041 14.7949 102.108C11.6478 101.795 8.60135 100.723 5.91877 98.7716Z" fill="#57BF38"/>
<path d="M6.73159 103.978C4.83869 102.786 3.35611 100.835 2.3574 98.8219C1.54062 97.1767 0.747074 94.7535 0.596106 92.8877C0.549654 92.8258 0.638686 93.36 0.596106 93.2941C0.882557 102.72 5.73675 105.894 8.16772 106.142C8.91482 106.219 10.5522 106.142 12.3638 104.772C10.4709 105.279 8.48514 105.085 6.73159 103.978Z" fill="#6FE043"/>
<path d="M2.86841 85.0606C3.2826 86.369 3.70841 87.6697 4.19228 88.9548C4.32002 89.2877 4.45163 89.6167 4.58325 89.9496C4.3897 89.4619 4.66454 90.1355 4.73421 90.2864C4.99744 90.8709 5.27615 91.4477 5.59357 92.0051C6.24776 93.1509 6.96776 94.2619 7.73808 95.3342C7.85421 95.4967 7.97421 95.6555 8.09034 95.818C8.09808 95.8258 8.15615 95.9032 8.2026 95.969C8.25292 96.0309 8.30712 96.1006 8.31099 96.1122C8.40389 96.2284 8.4968 96.3445 8.59357 96.4606C9.00002 96.9561 9.41809 97.4438 9.85163 97.9161C10.2929 98.3961 10.7497 98.8645 11.2374 99.3019C11.4387 99.4838 11.6516 99.658 11.8568 99.8361C11.8645 99.8438 11.8916 99.8632 11.9187 99.8864C12.0039 99.9484 12.1278 100.045 12.1665 100.072C13.0297 100.695 13.9432 101.249 14.8761 101.764C16.3587 99.6929 17.76 96.4993 18.6852 91.5948C19.2387 88.6838 19.3936 85.6258 19.0839 82.8503C18.7316 79.6761 17.7678 75.2516 14.8916 72.2593L9.96776 70.5638C9.96776 70.5638 4.87744 72.7548 2.19873 82.0219C2.36905 83.0438 2.54712 84.0697 2.86067 85.0645L2.86841 85.0606Z" fill="#3C8898"/>
<path d="M22.3858 90.3522C22.3858 90.3522 16.2425 94.0374 17.7058 107.841C19.1651 121.645 26.338 124.262 29.2103 123.828C30.8593 123.581 36.5999 121.533 35.7677 107.903C35.5896 104.957 34.9896 101.965 34.0103 99.36C32.8954 96.3793 30.8787 92.3419 27.3677 90.1587" fill="#659DBA"/>
<path d="M25.262 117.716C22.9898 116.841 20.9459 115.576 19.0801 114.031C21.4994 122.458 26.7214 124.177 29.0285 123.832C30.0504 123.677 32.7175 122.799 34.2465 118.641C31.2581 119.094 28.1923 118.85 25.262 117.716Z" fill="#57BF38"/>
<path d="M27.2013 122.218C25.1768 121.591 23.3575 120.178 21.9717 118.599C20.8413 117.31 19.8155 115.812 19.2465 114.166C19.1884 114.12 19.1304 114.077 19.0762 114.027C21.4955 122.454 26.7175 124.173 29.0246 123.828C29.7329 123.724 31.2349 123.267 32.5975 121.606C30.9639 122.508 29.0788 122.799 27.2013 122.214V122.218Z" fill="#6FE043"/>
<path d="M34.0644 118.541C33.476 118.219 32.8993 117.879 32.307 117.561C31.1496 116.946 29.9844 116.346 28.8425 115.695C27.747 115.072 26.6864 114.399 25.6722 113.655C25.3896 113.446 25.107 113.234 24.8322 113.013C24.7586 112.955 24.3018 112.575 24.267 112.548C23.8373 112.165 22.2231 110.814 21.7973 110.427C20.2722 109.041 19.7457 108.461 18.2128 107.079C17.9806 106.61 17.9341 106.312 17.7251 105.832C17.5006 96.4181 20.6515 92.64 20.6515 92.64L27.1896 93.8052C30.5573 95.8994 32.8489 97.0723 33.7625 99.9832C35.4115 105.24 35.2412 109.808 35.276 110.992C35.3922 114.674 34.196 118.606 34.0606 118.537L34.0644 118.541Z" fill="#3C8898"/>
<path d="M9.99108 70.6065C9.03108 71.0246 8.14463 71.7291 7.39754 72.4568C7.03366 72.7859 6.6427 73.262 6.31366 73.6297C6.00012 74.0594 5.65173 74.462 5.37689 74.9188L5.0285 75.453L4.85431 75.7201L4.69947 75.9988C4.49818 76.3742 4.28915 76.7459 4.0956 77.1213L3.56528 78.2865C3.30979 78.813 3.08915 79.5252 2.87237 80.0749C2.72141 80.4581 2.42721 81.4994 2.29947 81.9059C2.04786 82.7071 1.89302 83.582 1.68786 84.3949C0.859471 88.5755 0.21689 92.9226 0.994955 97.1575C1.54463 100.065 2.90334 102.991 5.35366 104.752C7.65302 106.428 9.90205 106.305 12.2014 104.694C15.6156 102.136 17.0517 97.7691 18.0388 93.7704C19.2582 88.8039 19.5369 83.5588 18.3369 78.5613C17.7369 76.0684 16.7266 73.6413 15.0388 71.6788L15.1124 71.6052C17.675 74.0517 18.9756 77.5239 19.6182 80.942C20.4582 85.2697 20.1717 89.7639 19.1188 94.0297C18.2788 97.4478 17.0285 100.893 14.7021 103.599C13.2311 105.298 11.1137 106.63 8.8027 106.607C6.84786 106.572 5.14463 105.356 3.87108 103.978C-2.10182 97.3239 -0.483755 82.7342 4.09947 75.6349C4.28528 75.302 4.63366 74.8607 4.85044 74.5472C5.63237 73.4942 6.57302 72.5149 7.62979 71.733C8.33431 71.2065 9.1085 70.7613 9.95237 70.5059L9.98334 70.6065H9.99108Z" fill="#3E6473"/>
<path d="M122.04 70.5058C123.205 70.862 124.223 71.5665 125.137 72.3561C125.872 73.0065 126.561 73.7613 127.146 74.551C127.281 74.7445 127.599 75.1742 127.727 75.3561C128.009 75.8284 128.307 76.2968 128.582 76.7729C128.698 77.0129 129.217 78.0387 129.321 78.2516C129.399 78.4413 129.619 78.9639 129.697 79.169C129.786 79.3781 129.983 79.8852 130.072 80.0865C130.127 80.2761 130.51 81.4374 130.576 81.6542C132.612 88.4207 133.068 98.7445 127.905 104.218C126.674 105.492 125.036 106.575 123.201 106.606C120.89 106.626 118.777 105.294 117.302 103.599C114.976 100.893 113.725 97.4478 112.885 94.0297C111.832 89.7678 111.546 85.2697 112.386 80.942C113.028 77.5239 114.329 74.0516 116.892 71.6052L116.965 71.6787C115.277 73.6413 114.271 76.0684 113.667 78.5613C112.467 83.5626 112.746 88.8039 113.965 93.7703C114.948 97.769 116.385 102.139 119.803 104.694C122.098 106.301 124.343 106.432 126.65 104.752C129.101 102.991 130.459 100.068 131.009 97.1574C131.489 94.6258 131.419 92.0168 131.141 89.4697C130.877 87.1316 130.436 84.8052 129.879 82.5213C129.732 81.9407 129.407 80.9536 129.24 80.3729C129.031 79.8232 128.779 79.1226 128.57 78.5768C128.47 78.3484 128.017 77.3613 127.908 77.1252C127.665 76.6568 127.401 76.1884 127.15 75.72C126.755 75.1123 126.341 74.4465 125.884 73.8813C125.795 73.7652 125.594 73.4981 125.481 73.3858C125.365 73.2697 124.978 72.7858 124.839 72.6774C124.312 72.1471 123.751 71.6594 123.136 71.2297C122.776 71.0013 122.412 70.7613 122.021 70.6026L122.052 70.502L122.04 70.5058Z" fill="#3E6473"/>
<path d="M109.916 89.9651C110.884 90.6154 111.616 91.5483 112.227 92.5238C112.715 93.3251 113.137 94.2077 113.446 95.0941C113.516 95.3109 113.686 95.787 113.752 95.9961C113.876 96.507 114.016 97.0219 114.136 97.529C114.174 97.7845 114.36 98.8683 114.395 99.089C114.445 99.5419 114.492 100.208 114.534 100.661L114.561 100.978V101.292C114.782 108.364 112.413 118.304 106.026 122.253C104.474 123.155 102.569 123.786 100.773 123.267C98.6478 122.632 97.0917 120.817 96.2207 118.846C94.8581 115.719 94.6878 112.215 94.8813 108.855C95.1252 104.659 96.1355 100.475 98.1291 96.7587C99.6852 93.8167 101.861 91.0141 104.896 89.5122L104.946 89.6051C102.856 90.9251 101.253 92.8567 100.006 94.9625C97.502 99.1896 96.2865 104.052 95.9962 108.925C95.8413 111.348 95.8375 113.81 96.36 116.191C96.9871 119.137 98.7871 122.582 102.097 122.876C105.418 122.965 108.252 120.577 109.947 117.886C112.347 114.031 113.048 109.417 113.52 104.977C113.559 104.175 113.667 103.335 113.663 102.53C113.659 102.124 113.69 101.094 113.656 100.695C113.563 97.9625 113.075 95.1909 111.836 92.7367C111.519 92.1174 111.124 91.4825 110.69 90.9329C110.427 90.6232 110.164 90.3019 109.85 90.0464L109.908 89.9574L109.916 89.9651Z" fill="#3E6473"/>
<path d="M22.4129 90.3987C21.7858 90.871 21.2322 91.5677 20.7793 92.2103C20.4464 92.6826 20.1213 93.2671 19.8619 93.7935C19.7767 93.9368 19.6722 94.1884 19.6064 94.3471C18.8051 96.209 18.3213 98.2142 18.1277 100.235C18.1006 100.444 18.0542 100.943 18.0309 101.145C18.0193 101.721 17.9419 102.712 17.9458 103.281C17.9767 104.09 17.9535 104.926 18.0116 105.732C18.2826 109.99 18.778 114.406 20.8838 118.196C22.4361 120.968 25.1458 123.503 28.4671 123.585C31.7884 123.461 33.7626 120.112 34.5406 117.201C35.1832 114.852 35.3071 112.394 35.28 109.966C35.2258 104.292 33.9406 98.4735 30.7355 93.7239C29.8103 92.369 28.6838 91.1652 27.3406 90.209L27.3948 90.12C31.0993 92.2219 33.3096 96.1548 34.7419 100.037C36.9096 105.91 37.5445 117.116 33.0851 122.001C30.5458 124.723 27.5922 124.738 24.5845 122.756C18.4103 118.486 16.5561 108.434 17.1406 101.381L17.16 101.067L17.2026 100.754C17.249 100.444 17.3342 99.8129 17.3767 99.5032C17.4271 99.0581 17.6748 98.0903 17.76 97.6452C17.9032 97.1419 18.0696 96.6348 18.2206 96.1316C18.3019 95.9148 18.4877 95.4619 18.569 95.249C18.7509 94.7574 19.0219 94.2929 19.2464 93.8206C19.6103 93.2013 20.0245 92.5355 20.4851 91.9897C21.0155 91.3394 21.6309 90.7432 22.3548 90.3097L22.409 90.3987H22.4129Z" fill="#3E6473"/>
<path d="M66.0001 121.618C100.827 121.618 129.097 96.3329 129.097 65.1019C129.097 33.871 100.827 8.58582 66.0001 8.58582C31.173 8.58582 2.90332 33.8671 2.90332 65.1019C2.90332 96.3368 31.173 121.618 66.0001 121.618Z" fill="url(#paint0_linear_15835_25486)"/>
<path d="M66.0001 8.97291C82.4672 8.97291 98.3304 15.0968 109.963 25.5097C121.552 35.8878 127.548 50.4465 127.548 65.1019C127.548 79.7574 122.327 93.5419 110.737 103.92C99.1046 114.337 82.4672 121.231 66.0001 121.231C49.533 121.231 34.0569 114.333 22.4246 103.92C10.8349 93.5419 4.45171 79.7574 4.45171 65.1019C4.45171 50.4465 10.8349 36.6619 22.4246 26.2839C34.0569 15.8671 49.533 8.97291 66.0001 8.97291ZM66.0001 8.58582C31.173 8.58582 2.90332 33.8671 2.90332 65.1019C2.90332 96.3368 31.173 121.618 66.0001 121.618C100.827 121.618 129.097 96.3329 129.097 65.1019C129.097 33.871 100.827 8.58582 66.0001 8.58582Z" fill="#3E6473"/>
<path d="M66 121.812C31.1033 121.812 2.70972 96.3716 2.70972 65.1019C2.70972 33.8322 31.1033 8.39221 66 8.39221C100.897 8.39221 129.29 33.8322 129.29 65.1019C129.29 96.3716 100.897 121.812 66 121.812ZM66 8.77931C31.3162 8.77931 3.09681 34.0451 3.09681 65.1019C3.09681 96.1587 31.3162 121.424 66 121.424C100.684 121.424 128.903 96.1587 128.903 65.1019C128.903 34.0451 100.684 8.77931 66 8.77931Z" fill="#3E6473"/>
<path d="M90.0349 116.748C68.0052 124.173 59.1523 120.825 59.1523 120.825C59.1523 120.825 109.181 123.449 124.301 75.4375C124.595 68.551 128.079 70.0917 128.234 68.551C127.715 72.5768 128.234 100.626 90.0349 116.748Z" fill="#7DC6E1"/>
<path d="M6.48 79.1807C3.57628e-06 18.9794 61.4013 9.39486 65.2761 7.90454C51.5226 9.20519 6.00775 19.9858 3.96387 63.0774C3.54581 71.8529 6.48 79.1768 6.48 79.1768V79.1807Z" fill="#99DBE9"/>
<path d="M113.079 35.4348C113.079 35.4348 111.112 35.6322 110.52 36.8129C109.932 37.9935 111.503 39.96 112.487 39.3716C113.47 38.7793 114.848 36.4219 113.075 35.4387L113.079 35.4348Z" fill="#98DAE8"/>
<path d="M104.226 24.6155C104.226 24.6155 100.293 26.3845 103.44 30.1239C106.587 33.8632 107.768 34.649 109.142 32.6826C110.52 30.7161 109.537 25.6026 107.373 24.8129C105.209 24.0271 104.226 24.6155 104.226 24.6155Z" fill="#98DAE8"/>
<path d="M5.8722 56.7329C5.8722 56.7329 9.70833 55.6993 10.5948 57.1742C11.4812 58.649 11.4812 59.8297 9.70833 61.5987C7.93543 63.3677 7.49414 64.1071 6.1664 64.2542C4.83866 64.4013 5.8722 56.729 5.8722 56.729" fill="#98DAE8"/>
<path d="M7.99354 50.8335C7.99354 50.8335 10.0606 49.8 10.649 50.5393C11.2413 51.2787 10.0568 53.0477 9.02709 53.3419C7.99354 53.6361 6.95999 52.3084 7.99354 50.8335Z" fill="#98DAE8"/>
<path d="M67.5406 106.943C67.5406 106.943 68.3264 119.81 68.7213 120.693C66.36 121.184 64.2039 120.987 64.2039 120.987C64.2039 120.987 65.3768 113.729 65.1832 106.254C67.2503 106.057 67.5445 106.943 67.5445 106.943" fill="#7DC6E1"/>
<path d="M127.533 67.9626C127.533 67.9626 119.075 74.6788 113.272 73.9936C113.272 74.7794 112.943 75.9291 112.943 75.9291C112.943 75.9291 122.187 73.862 126.221 70.1265C128.071 69.4568 127.529 67.9665 127.529 67.9665L127.533 67.9626Z" fill="#98DAE8"/>
<path d="M127.355 69.1101C127.355 69.1101 121.677 74.4068 112.743 76.0601C112.743 76.837 112.258 77.0322 112.258 77.0322C112.258 77.0322 122.013 76.0601 126.289 71.1538C127.259 67.9428 127.355 69.1101 127.355 69.1101Z" fill="#7DC6E1"/>
<path d="M113.09 77.6362C113.09 93.6503 92.4775 107.079 66.1781 107.079C39.8787 107.079 18.9678 93.8478 18.9678 77.8336C18.9678 61.8194 39.8787 49.0878 66.1781 49.0878C92.4775 49.0878 113.09 61.622 113.09 77.6362Z" fill="#3C8998"/>
<path d="M113.667 72.7471C113.667 88.7613 92.4967 102.058 66.1973 102.058C39.898 102.058 18.5806 89.0788 18.5806 73.0607C18.5806 57.0426 39.9019 43.5446 66.1973 43.5446C92.4928 43.5446 113.667 56.7329 113.667 72.7433V72.7471Z" fill="#98DAE8"/>
<path d="M66.0464 103.974C91.8347 103.974 112.738 90.9909 112.738 74.9806C112.738 58.9703 91.8347 45.9871 66.0464 45.9871C40.258 45.9871 19.3547 58.9703 19.3547 74.9806C19.3547 90.9909 40.258 103.974 66.0464 103.974Z" fill="#B659EF"/>
<path d="M111.097 75.6774C111.089 75.9716 110.543 75.5806 110.516 75.8709C110.334 77.6245 109.928 78.6658 109.111 80.2296C93.6967 111.944 29.818 108.321 21.9213 75.6503C21.0387 75.5806 20.5083 75.5264 19.6296 75.4645C20.4851 91.0103 40.6993 103.452 65.9419 103.452C91.1845 103.452 112.254 90.9212 112.39 74.9806C112.064 75.2903 112.134 75.6387 111.484 75.4838L111.097 75.6774Z" fill="#9529F4"/>
<path d="M65.8065 99.871C87.4005 99.871 104.903 88.8654 104.903 75.2904C104.903 61.7153 87.3966 50.7097 65.8065 50.7097C44.2164 50.7097 26.7097 61.7153 26.7097 75.2904C26.7097 88.8654 44.2164 99.871 65.8065 99.871Z" fill="#290052"/>
<path fill-rule="evenodd" clip-rule="evenodd" d="M38.2607 58.4052C31.2233 62.7755 26.9768 68.7407 26.9768 75.2439C26.9768 81.7471 31.2233 87.7162 38.2607 92.0826C45.2904 96.4452 55.0297 99.1626 65.8181 99.1626C76.6065 99.1626 86.3497 96.4452 93.3755 92.0826C100.409 87.7123 104.656 81.7471 104.656 75.2439C104.656 68.7407 100.409 62.7755 93.3755 58.4052C86.3497 54.0426 76.6065 51.3252 65.8181 51.3252C55.0297 51.3252 45.2904 54.0426 38.2607 58.4052ZM37.711 57.5187C44.9304 53.0362 54.8672 50.28 65.8181 50.28C76.7691 50.28 86.7097 53.0362 93.9252 57.5187C101.137 61.9974 105.701 68.2491 105.701 75.2439C105.701 82.2387 101.137 88.4942 93.9252 92.9729C86.7059 97.4555 76.7691 100.212 65.8181 100.212C54.8672 100.212 44.9265 97.4555 37.711 92.9729C30.4994 88.4942 25.9355 82.2426 25.9355 75.2439C25.9355 68.2452 30.4994 61.9936 37.711 57.5187Z" fill="#4F0D76"/>
<path fill-rule="evenodd" clip-rule="evenodd" d="M65.2181 99.9522C65.2181 99.9522 65.2181 99.9522 65.7368 100.022C66.0826 100.071 66.2555 100.094 66.2555 100.092V100.107C66.2555 100.107 66.2517 100.134 66.2478 100.161C66.2439 100.208 66.2362 100.281 66.2284 100.378C66.213 100.572 66.1975 100.854 66.1936 101.21C66.1897 101.923 66.2362 102.917 66.4568 104.048L65.431 104.245C65.1988 103.034 65.1446 101.965 65.1523 101.203C65.1523 100.819 65.1717 100.51 65.191 100.297C65.1988 100.188 65.2065 100.107 65.2142 100.045C65.2142 100.014 65.2181 99.9948 65.222 99.9755C65.222 99.9677 65.222 99.96 65.222 99.9561V99.9484L65.2181 99.9522Z" fill="#4F0D76"/>
<path fill-rule="evenodd" clip-rule="evenodd" d="M19.3547 76.2177C19.3547 76.2177 19.3547 76.2177 19.5056 75.7092C19.6062 75.3702 19.6565 75.2007 19.6565 75.2007H19.6637C19.6637 75.2007 19.6781 75.2086 19.6889 75.2126C19.714 75.2205 19.75 75.2324 19.8003 75.2483C19.9009 75.2761 20.0482 75.3199 20.235 75.3636C20.6123 75.451 21.1512 75.5423 21.7836 75.5662C23.0519 75.6139 24.6795 75.3874 26.185 74.3226L26.7096 75.2245C24.9849 76.4442 23.1453 76.6905 21.7513 76.6389C21.0542 76.6111 20.4614 76.5117 20.041 76.4164C19.8326 76.3687 19.6637 76.321 19.5452 76.2893C19.4877 76.2734 19.441 76.2575 19.4086 76.2456C19.3943 76.2416 19.3799 76.2376 19.3727 76.2336H19.3583L19.3547 76.2177Z" fill="#4F0D76"/>
<path fill-rule="evenodd" clip-rule="evenodd" d="M112.452 76.2177C112.452 76.2177 112.452 76.2177 112.301 75.7092C112.2 75.3702 112.15 75.2007 112.15 75.2007H112.143C112.143 75.2007 112.128 75.2086 112.118 75.2126C112.092 75.2205 112.056 75.2324 112.006 75.2483C111.906 75.2761 111.758 75.3199 111.571 75.3636C111.194 75.451 110.655 75.5423 110.023 75.5662C108.754 75.6139 107.127 75.3874 105.621 74.3226L105.097 75.2245C106.821 76.4442 108.661 76.6905 110.055 76.6389C110.752 76.6111 111.345 76.5117 111.765 76.4164C111.974 76.3687 112.143 76.321 112.261 76.2893C112.319 76.2734 112.365 76.2575 112.398 76.2456C112.412 76.2416 112.427 76.2376 112.434 76.2336H112.448L112.452 76.2177Z" fill="#4F0D76"/>
<path d="M115.564 72.6774C116.021 72.6232 116.334 72.0968 116.265 71.5045C116.195 70.9122 115.761 70.4748 115.305 70.5329C114.848 70.5871 114.534 71.1135 114.604 71.7058C114.674 72.298 115.103 72.7355 115.564 72.6774Z" fill="#406B79"/>
<path d="M115.87 81.5923C116.021 81.0155 115.785 80.4504 115.339 80.3342C114.894 80.2181 114.407 80.5897 114.256 81.1665C114.101 81.7433 114.341 82.3084 114.786 82.4245C115.231 82.5445 115.719 82.1691 115.87 81.5923Z" fill="#406B79"/>
<path d="M17.4581 81.5806C17.9149 81.4993 18.1975 80.9613 18.0968 80.3729C17.9962 79.7845 17.5433 79.3703 17.0865 79.4516C16.6297 79.5329 16.3472 80.0709 16.4478 80.6593C16.5485 81.2477 17.0014 81.6619 17.4581 81.5806Z" fill="#406B79"/>
<path d="M17.9536 70.9238C18.0775 70.3393 17.8104 69.7896 17.3575 69.6929C16.9046 69.6 16.4401 69.9948 16.3162 70.5793C16.1923 71.1638 16.4594 71.7135 16.9123 71.8103C17.3652 71.9032 17.8297 71.5083 17.9536 70.9238Z" fill="#406B79"/>
<path d="M19.1419 77.4271C9.47226 75.569 4.33936 69.6774 4.33936 69.6774L4.49032 67.5135C4.49032 67.5135 9.46839 72.0929 18.9755 74.6477C18.9639 75.6813 19.1071 76.7264 19.1381 77.4232L19.1419 77.4271Z" fill="#98DAE8"/>
<path fill-rule="evenodd" clip-rule="evenodd" d="M3.10062 68.153C3.10062 68.153 3.10062 68.153 3.27399 67.9475L3.44735 67.7419H3.45129L3.46705 67.7581C3.46705 67.7581 3.50252 67.7903 3.5301 67.8145C3.58526 67.8629 3.668 67.9354 3.77833 68.0281C3.99504 68.2135 4.31419 68.4755 4.72791 68.7979C5.54746 69.4427 6.72951 70.3133 8.16373 71.2282C11.0361 73.058 14.9172 75.049 18.9676 75.722L18.881 76.2581C14.728 75.5689 10.78 73.5376 7.88003 71.6877C6.42612 70.7607 5.23225 69.878 4.40087 69.2291C3.98322 68.9027 3.66012 68.6367 3.43947 68.4473C3.32915 68.3546 3.24247 68.282 3.1873 68.2296C3.15972 68.2054 3.13608 68.1853 3.12032 68.1732L3.10456 68.1571H3.09668L3.10062 68.153Z" fill="#406B79"/>
<path fill-rule="evenodd" clip-rule="evenodd" d="M127.459 68.9768L127.63 69.1742L127.8 69.3716H127.796L127.781 69.3871C127.781 69.3871 127.75 69.4142 127.722 69.4335C127.672 69.4761 127.599 69.5381 127.502 69.6155C127.308 69.7742 127.022 69.9987 126.654 70.2735C125.919 70.8232 124.854 71.5665 123.538 72.3561C120.906 73.9277 116.864 75.6697 112.788 76.3316L112.703 75.8168C116.69 75.1703 120.67 73.4632 123.267 71.9071C124.568 71.1329 125.617 70.3974 126.341 69.8555C126.701 69.5845 126.983 69.3639 127.173 69.209C127.266 69.1316 127.339 69.0735 127.386 69.031C127.409 69.0116 127.428 68.9961 127.44 68.9845L127.452 68.9729L127.459 68.9768Z" fill="#406B79"/>
<path fill-rule="evenodd" clip-rule="evenodd" d="M65.6749 104.396L65.9343 104.365C66.1936 104.334 66.1936 104.334 66.1936 104.334V104.361C66.1936 104.361 66.2014 104.4 66.2053 104.435C66.213 104.497 66.2517 104.81 66.2633 104.93C66.2865 105.174 66.3214 105.53 66.3562 105.983C66.4298 106.889 66.5111 108.178 66.5536 109.719C66.6388 112.8 66.4182 117.418 65.7756 121.471L65.2607 121.39C65.8956 117.379 66.1162 112.8 66.0311 109.734C65.9885 108.201 65.9072 106.924 65.8336 106.026C65.7988 105.577 65.764 105.225 65.7407 104.985C65.7291 104.865 65.7175 104.772 65.7136 104.71C65.7136 104.679 65.6788 104.439 65.6749 104.423L65.702 104.625L65.6711 104.4L65.6749 104.396Z" fill="#406B79"/>
<path d="M70.9548 108.248C71.5432 108.151 71.9613 107.702 71.8838 107.245C71.8064 106.788 71.2684 106.502 70.68 106.599C70.0916 106.696 69.6735 107.145 69.7509 107.601C69.8284 108.058 70.3664 108.348 70.9548 108.248Z" fill="#406B79"/>
<path d="M62.102 107.702C62.1988 107.249 61.804 106.781 61.2233 106.657C60.6388 106.529 60.0891 106.792 59.9885 107.245C59.8917 107.698 60.2865 108.166 60.8672 108.29C61.4517 108.418 62.0014 108.155 62.102 107.702Z" fill="#406B79"/>
<path d="M84.9484 16.5329C84.9484 16.5329 84.391 24.4026 75.3097 24.4026C67.6374 24.4026 65.2761 16.142 65.2761 16.142L84.9484 16.5368V16.5329Z" fill="#47979E"/>
<path d="M65.0787 17.5162C78.8478 22.2387 85.7342 19.0916 86.911 16.5329C90.8439 8.07487 73.1419 7.28906 73.1419 7.28906C73.1419 7.28906 67.6336 7.48648 63.1084 10.2387" fill="#96BEC7"/>
<path d="M66.1007 12.0852C73.8349 8.66326 74.6207 8.7639 79.9046 8.28777C76.4633 7.43616 73.1498 7.28906 73.1498 7.28906C73.1498 7.28906 67.6414 7.48648 63.1162 10.2387L65.0827 10.7613C65.5162 9.97164 65.2801 12.4491 66.1007 12.0852Z" fill="#47979E"/>
<path d="M79.9006 8.28772C80.8335 12.2787 79.8348 16.3935 77.4348 19.5251C82.7574 19.6335 85.6219 17.8993 86.3187 16.3897C88.0993 11.4387 83.849 9.15095 79.9006 8.28772Z" fill="#57BF38"/>
<path d="M85.1999 10.6451C85.3161 10.8929 85.3935 10.9432 85.4864 11.1987C85.8735 12.2322 85.8812 13.3161 85.6296 14.3806C85.2193 16.1109 83.9302 17.7484 82.6257 18.9832C84.9019 18.3677 86.2296 17.338 86.6825 16.3974C88.1148 14.4735 86.8954 11.9109 85.1999 10.649V10.6451Z" fill="#6FE043"/>
<path d="M65.0788 17.5161C70.8039 19.1148 80.2801 21.0967 85.4052 17.4193C90.1704 12.6929 82.5678 8.99222 78.3407 8.47738C73.1691 7.12254 67.8233 7.80383 63.1123 10.2387C67.6104 7.21157 73.2697 6.2477 78.542 7.45157C97.3859 11.1174 86.5549 26.9342 65.0788 17.5161H65.0826H65.0788Z" fill="#446372"/>
<path d="M65.7678 12.2052C72.4065 8.81421 77.6671 4.79615 77.6323 2.9226C77.8297 -2.73288 68.7755 1.62195 64.6374 3.54583C63.3639 4.13808 62.1445 4.8426 60.991 5.64776C58.8581 7.13808 55.6955 8.79099 53.4929 11.2878" fill="#96BEC7"/>
<path d="M75.8516 0.696783C68.7136 0.139364 58.5407 6.27098 53.0129 11.5239L56.3265 9.70453C62.8181 5.80646 70.2194 2.65936 75.8516 0.696783Z" fill="#99DBE9"/>
<path d="M68.6555 1.58317C70.7845 3.34833 70.9084 6.93672 69.8826 9.91736C78.96 4.45156 78.9987 -2.22586 68.6555 1.58317Z" fill="#57BF38"/>
<path d="M73.6685 0.468378C76.7381 1.43225 75.4491 4.45935 74.2762 6.73935C77.7639 4.20773 78.4143 0.011604 73.6685 0.468378Z" fill="#6FE043"/>
<path d="M77.4387 0.696773C73.1923 -2.47355 57.6775 5.90322 53.0129 11.5239C57.3368 7.42064 74.7678 -2.10968 76.8194 1.54064C78.871 5.19097 68.4271 10.231 65.7678 12.2052C69.3562 10.3006 81.6852 3.86709 77.4387 0.696773Z" fill="#446372"/>
<path d="M2.90332 65.102C2.90332 96.3329 31.173 121.618 66.0001 121.618C66.0698 121.618 66.1395 121.614 66.2091 121.614L66.0465 121.231C66.0465 121.231 66.0156 121.231 66.0001 121.231C49.533 121.231 34.0569 114.333 22.4246 103.92C10.8349 93.542 4.45171 79.7574 4.45171 65.102C4.45171 50.4465 10.8349 36.662 22.4246 26.2839C31.3046 18.3329 42.4259 12.4374 54.5188 10.0878L55.324 9.39099C25.5756 13.9394 2.90332 37.1303 2.90332 65.102Z" fill="#3E6473"/>
<path d="M86.3148 11.578L86.729 12.2593C95.3922 15.0696 103.359 19.5986 109.963 25.5096C121.552 35.8877 127.548 50.4464 127.548 65.1019C127.548 79.7574 122.326 93.5419 110.737 103.92C99.1045 114.337 82.467 121.231 66 121.231C65.8683 121.231 65.7367 121.223 65.6051 121.208L65.5393 121.606C65.6941 121.61 65.8451 121.618 66 121.618C100.827 121.618 129.097 96.3328 129.097 65.1019C129.097 40.2425 111.186 19.1535 86.3148 11.5819V11.578Z" fill="#3E6473"/>
<path fill-rule="evenodd" clip-rule="evenodd" d="M33.2013 54.9213C24.84 60.1122 19.7729 67.2193 19.7729 74.9806C19.7729 82.7419 24.84 89.8451 33.2013 95.04C41.5549 100.227 53.1291 103.455 65.942 103.455C78.7549 103.455 90.3291 100.231 98.6826 95.04C107.044 89.8451 112.111 82.7419 112.111 74.9806C112.111 67.2193 107.044 60.1161 98.6826 54.9213C90.3291 49.7342 78.7549 46.5058 65.942 46.5058C53.1291 46.5058 41.5549 49.7303 33.2013 54.9213ZM32.6517 54.0348C41.1949 48.7277 52.9704 45.4645 65.9458 45.4645C78.9213 45.4645 90.6929 48.7277 99.2362 54.0348C107.772 59.3342 113.16 66.7277 113.16 74.9806C113.16 83.2335 107.776 90.6271 99.2362 95.9264C90.6929 101.234 78.9175 104.497 65.9458 104.497C52.9742 104.497 41.1987 101.234 32.6517 95.9264C24.1162 90.6232 18.7278 83.2335 18.7278 74.9806C18.7278 66.7277 24.1123 59.3342 32.6517 54.0348Z" fill="#4F0D76"/>
<path d="M101.419 67.8542C96.2594 58.7701 82.3079 52.2581 65.9062 52.2581C45.1147 52.2581 28.2581 62.7179 28.2581 75.6183C28.2581 78.8683 29.3276 81.9628 31.2591 84.7742C52.4935 56.3096 91.0236 56.3774 101.415 67.8542H101.419Z" fill="#CB50FF" fill-opacity="0.32"/>
<path d="M52.5402 66.3363H46.885V84.2058H52.5402V66.3363Z" fill="#DD13FD"/>
<path d="M52.4914 67.8777L52.5402 66.3363H46.885V70.9117C47.3013 70.6313 49.4087 69.3198 52.4914 67.8777Z" fill="#EB50F7"/>
<path d="M85.5866 66.3362H79.9314V84.2057H85.5866V66.3362Z" fill="#DD13FD"/>
<path d="M66.8777 92.0851C64.307 92.0851 62.217 91.2561 60.6599 89.6137C58.1258 86.9419 57.9081 82.9866 58.0369 81.6891L58.1623 80.4351H74.6142L74.6821 81.757C74.6925 81.966 74.9172 86.9245 72.2228 89.8975C70.9967 91.2508 69.3926 91.9823 67.4541 92.0729C67.2591 92.0816 67.0658 92.0868 66.8759 92.0868L66.8777 92.0851ZM60.8515 83.2217C60.9891 84.4966 61.4384 86.3829 62.6837 87.6961C63.7879 88.8613 65.3067 89.382 67.327 89.288C68.5096 89.2322 69.4344 88.8212 70.1537 88.0305C71.3746 86.6876 71.7509 84.582 71.8606 83.22H60.8497L60.8515 83.2217Z" fill="#DD13FD"/>
<g clip-path="url(#clip1_15835_25486)">
<path d="M122.025 70.5562C122.025 70.5562 129.201 72.7162 131.272 87.0929C133.339 101.47 126.739 105.968 123.716 106.27C121.982 106.444 115.63 105.844 112.97 91.8039C112.398 88.7691 112.235 85.5794 112.552 82.6878C112.92 79.3781 113.923 74.7639 116.923 71.6478" fill="#659DBA"/>
<path d="M129.132 85.0607C128.613 86.7097 128.067 88.3471 127.417 89.9497C125.683 94.0607 121.552 99.5729 116.903 102.058C112.564 94.6529 110.168 80.1484 117.105 72.2516L122.028 70.5562C122.028 70.5562 127.119 72.7471 129.797 82.0142C129.627 83.0361 129.449 84.062 129.135 85.0568L129.132 85.0607Z" fill="#3C8898"/>
<path d="M126.159 98.8645C128.253 97.3703 129.875 95.7174 131.381 93.6387C131.09 102.948 126.341 105.898 123.894 106.146C122.81 106.254 119.857 106.045 117.221 102.163C120.391 101.853 123.461 100.792 126.159 98.8645Z" fill="#57BF38"/>
<path d="M125.342 104.009C127.247 102.832 128.741 100.904 129.747 98.9148C130.568 97.289 131.23 95.4813 131.381 93.6387C131.427 93.5768 131.474 93.5187 131.52 93.4529C131.23 102.763 126.341 105.898 123.894 106.146C123.143 106.223 121.49 106.146 119.667 104.791C121.572 105.29 123.573 105.101 125.338 104.009H125.342Z" fill="#6FE043"/>
<path d="M109.885 90.0077C109.885 90.0077 115.831 94.0064 113.659 107.714C111.488 121.421 104.191 123.666 101.346 123.085C99.7123 122.756 94.0839 120.41 95.6207 106.843C95.9497 103.908 96.7046 100.955 97.8156 98.4C99.0852 95.4813 101.303 91.5522 104.923 89.5548" fill="#659DBA"/>
<path d="M96.7703 117.554C102.883 114.999 108.67 110.957 113.535 106.483C115.947 98.9884 111.213 91.5174 111.503 92.3845L104.915 93.209C101.443 95.1252 99.0929 96.1781 98.0284 99.0387C95.3419 106.955 95.0478 113.617 96.3329 117.732L96.7703 117.554Z" fill="#3C8898"/>
<path d="M105.712 116.911C108.05 116.121 110.179 114.91 112.142 113.4C109.262 122.059 103.901 123.573 101.59 123.089C100.568 122.876 97.9201 121.816 96.5962 117.391C99.5884 118.03 102.697 117.933 105.708 116.911H105.712Z" fill="#57BF38"/>
<path d="M103.518 121.502C105.592 120.952 107.505 119.582 108.983 118.01C110.195 116.725 111.306 115.219 111.964 113.535C112.022 113.489 112.084 113.446 112.142 113.404C109.262 122.063 103.905 123.577 101.594 123.093C100.885 122.942 99.3911 122.388 98.1021 120.581C99.7046 121.61 101.594 122.013 103.518 121.506V121.502Z" fill="#6FE043"/>
<path d="M9.97542 70.5562C9.97542 70.5562 2.79864 72.7162 0.727675 87.0929C-1.33942 101.47 5.26058 105.968 8.2838 106.27C10.018 106.444 16.3703 105.844 19.0296 91.8039C19.6025 88.7691 19.7651 85.5794 19.4477 82.6878C19.0799 79.3781 18.0774 74.7639 15.0774 71.6478" fill="#659DBA"/>
<path d="M5.91877 98.7716C3.84006 97.2581 2.09038 95.3961 0.596191 93.2942C0.882643 102.72 5.73684 105.894 8.1678 106.142C9.24393 106.254 12.1743 106.041 14.7949 102.108C11.6478 101.795 8.60135 100.723 5.91877 98.7716Z" fill="#57BF38"/>
<path d="M6.73159 103.978C4.83869 102.786 3.35611 100.835 2.3574 98.8219C1.54062 97.1767 0.747074 94.7535 0.596106 92.8877C0.549654 92.8258 0.638686 93.36 0.596106 93.2941C0.882557 102.72 5.73675 105.894 8.16772 106.142C8.91482 106.219 10.5522 106.142 12.3638 104.772C10.4709 105.279 8.48514 105.085 6.73159 103.978Z" fill="#6FE043"/>
<path d="M2.86841 85.0606C3.2826 86.369 3.70841 87.6697 4.19228 88.9548C4.32002 89.2877 4.45163 89.6167 4.58325 89.9496C4.3897 89.4619 4.66454 90.1355 4.73421 90.2864C4.99744 90.8709 5.27615 91.4477 5.59357 92.0051C6.24776 93.1509 6.96776 94.2619 7.73808 95.3342C7.85421 95.4967 7.97421 95.6555 8.09034 95.818C8.09808 95.8258 8.15615 95.9032 8.2026 95.969C8.25292 96.0309 8.30712 96.1006 8.31099 96.1122C8.40389 96.2284 8.4968 96.3445 8.59357 96.4606C9.00002 96.9561 9.41809 97.4438 9.85163 97.9161C10.2929 98.3961 10.7497 98.8645 11.2374 99.3019C11.4387 99.4838 11.6516 99.658 11.8568 99.8361C11.8645 99.8438 11.8916 99.8632 11.9187 99.8864C12.0039 99.9484 12.1278 100.045 12.1665 100.072C13.0297 100.695 13.9432 101.249 14.8761 101.764C16.3587 99.6929 17.76 96.4993 18.6852 91.5948C19.2387 88.6838 19.3936 85.6258 19.0839 82.8503C18.7316 79.6761 17.7678 75.2516 14.8916 72.2593L9.96776 70.5638C9.96776 70.5638 4.87744 72.7548 2.19873 82.0219C2.36905 83.0438 2.54712 84.0697 2.86067 85.0645L2.86841 85.0606Z" fill="#3C8898"/>
<path d="M22.3858 90.3522C22.3858 90.3522 16.2425 94.0374 17.7058 107.841C19.1651 121.645 26.338 124.262 29.2103 123.828C30.8593 123.581 36.5999 121.533 35.7677 107.903C35.5896 104.957 34.9896 101.965 34.0103 99.36C32.8954 96.3793 30.8787 92.3419 27.3677 90.1587" fill="#659DBA"/>
<path d="M25.262 117.716C22.9898 116.841 20.9459 115.576 19.0801 114.031C21.4994 122.458 26.7214 124.177 29.0285 123.832C30.0504 123.677 32.7175 122.799 34.2465 118.641C31.2581 119.094 28.1923 118.85 25.262 117.716Z" fill="#57BF38"/>
<path d="M27.2013 122.218C25.1768 121.591 23.3575 120.178 21.9717 118.599C20.8413 117.31 19.8155 115.812 19.2465 114.166C19.1884 114.12 19.1304 114.077 19.0762 114.027C21.4955 122.454 26.7175 124.173 29.0246 123.828C29.7329 123.724 31.2349 123.267 32.5975 121.606C30.9639 122.508 29.0788 122.799 27.2013 122.214V122.218Z" fill="#6FE043"/>
<path d="M34.0644 118.541C33.476 118.219 32.8993 117.879 32.307 117.561C31.1496 116.946 29.9844 116.346 28.8425 115.695C27.747 115.072 26.6864 114.399 25.6722 113.655C25.3896 113.446 25.107 113.234 24.8322 113.013C24.7586 112.955 24.3018 112.575 24.267 112.548C23.8373 112.165 22.2231 110.814 21.7973 110.427C20.2722 109.041 19.7457 108.461 18.2128 107.079C17.9806 106.61 17.9341 106.312 17.7251 105.832C17.5006 96.4181 20.6515 92.64 20.6515 92.64L27.1896 93.8052C30.5573 95.8994 32.8489 97.0723 33.7625 99.9832C35.4115 105.24 35.2412 109.808 35.276 110.992C35.3922 114.674 34.196 118.606 34.0606 118.537L34.0644 118.541Z" fill="#3C8898"/>
<path d="M9.99108 70.6065C9.03108 71.0246 8.14463 71.7291 7.39754 72.4568C7.03366 72.7859 6.6427 73.262 6.31366 73.6297C6.00012 74.0594 5.65173 74.462 5.37689 74.9188L5.0285 75.453L4.85431 75.7201L4.69947 75.9988C4.49818 76.3742 4.28915 76.7459 4.0956 77.1213L3.56528 78.2865C3.30979 78.813 3.08915 79.5252 2.87237 80.0749C2.72141 80.4581 2.42721 81.4994 2.29947 81.9059C2.04786 82.7071 1.89302 83.582 1.68786 84.3949C0.859471 88.5755 0.21689 92.9226 0.994955 97.1575C1.54463 100.065 2.90334 102.991 5.35366 104.752C7.65302 106.428 9.90205 106.305 12.2014 104.694C15.6156 102.136 17.0517 97.7691 18.0388 93.7704C19.2582 88.8039 19.5369 83.5588 18.3369 78.5613C17.7369 76.0684 16.7266 73.6413 15.0388 71.6788L15.1124 71.6052C17.675 74.0517 18.9756 77.5239 19.6182 80.942C20.4582 85.2697 20.1717 89.7639 19.1188 94.0297C18.2788 97.4478 17.0285 100.893 14.7021 103.599C13.2311 105.298 11.1137 106.63 8.8027 106.607C6.84786 106.572 5.14463 105.356 3.87108 103.978C-2.10182 97.3239 -0.483755 82.7342 4.09947 75.6349C4.28528 75.302 4.63366 74.8607 4.85044 74.5472C5.63237 73.4942 6.57302 72.5149 7.62979 71.733C8.33431 71.2065 9.1085 70.7613 9.95237 70.5059L9.98334 70.6065H9.99108Z" fill="#3E6473"/>
<path d="M122.04 70.5058C123.205 70.862 124.223 71.5665 125.137 72.3561C125.872 73.0065 126.561 73.7613 127.146 74.551C127.281 74.7445 127.599 75.1742 127.727 75.3561C128.009 75.8284 128.307 76.2968 128.582 76.7729C128.698 77.0129 129.217 78.0387 129.321 78.2516C129.399 78.4413 129.619 78.9639 129.697 79.169C129.786 79.3781 129.983 79.8852 130.072 80.0865C130.127 80.2761 130.51 81.4374 130.576 81.6542C132.612 88.4207 133.068 98.7445 127.905 104.218C126.674 105.492 125.036 106.575 123.201 106.606C120.89 106.626 118.777 105.294 117.302 103.599C114.976 100.893 113.725 97.4478 112.885 94.0297C111.832 89.7678 111.546 85.2697 112.386 80.942C113.028 77.5239 114.329 74.0516 116.892 71.6052L116.965 71.6787C115.277 73.6413 114.271 76.0684 113.667 78.5613C112.467 83.5626 112.746 88.8039 113.965 93.7703C114.948 97.769 116.385 102.139 119.803 104.694C122.098 106.301 124.343 106.432 126.65 104.752C129.101 102.991 130.459 100.068 131.009 97.1574C131.489 94.6258 131.419 92.0168 131.141 89.4697C130.877 87.1316 130.436 84.8052 129.879 82.5213C129.732 81.9407 129.407 80.9536 129.24 80.3729C129.031 79.8232 128.779 79.1226 128.57 78.5768C128.47 78.3484 128.017 77.3613 127.908 77.1252C127.665 76.6568 127.401 76.1884 127.15 75.72C126.755 75.1123 126.341 74.4465 125.884 73.8813C125.795 73.7652 125.594 73.4981 125.481 73.3858C125.365 73.2697 124.978 72.7858 124.839 72.6774C124.312 72.1471 123.751 71.6594 123.136 71.2297C122.776 71.0013 122.412 70.7613 122.021 70.6026L122.052 70.502L122.04 70.5058Z" fill="#3E6473"/>
<path d="M109.916 89.9651C110.884 90.6154 111.616 91.5483 112.227 92.5238C112.715 93.3251 113.137 94.2077 113.446 95.0941C113.516 95.3109 113.686 95.787 113.752 95.9961C113.876 96.507 114.016 97.0219 114.136 97.529C114.174 97.7845 114.36 98.8683 114.395 99.089C114.445 99.5419 114.492 100.208 114.534 100.661L114.561 100.978V101.292C114.782 108.364 112.413 118.304 106.026 122.253C104.474 123.155 102.569 123.786 100.773 123.267C98.6478 122.632 97.0917 120.817 96.2207 118.846C94.8581 115.719 94.6878 112.215 94.8813 108.855C95.1252 104.659 96.1355 100.475 98.1291 96.7587C99.6852 93.8167 101.861 91.0141 104.896 89.5122L104.946 89.6051C102.856 90.9251 101.253 92.8567 100.006 94.9625C97.502 99.1896 96.2865 104.052 95.9962 108.925C95.8413 111.348 95.8375 113.81 96.36 116.191C96.9871 119.137 98.7871 122.582 102.097 122.876C105.418 122.965 108.252 120.577 109.947 117.886C112.347 114.031 113.048 109.417 113.52 104.977C113.559 104.175 113.667 103.335 113.663 102.53C113.659 102.124 113.69 101.094 113.656 100.695C113.563 97.9625 113.075 95.1909 111.836 92.7367C111.519 92.1174 111.124 91.4825 110.69 90.9329C110.427 90.6232 110.164 90.3019 109.85 90.0464L109.908 89.9574L109.916 89.9651Z" fill="#3E6473"/>
<path d="M22.4129 90.3987C21.7858 90.871 21.2322 91.5677 20.7793 92.2103C20.4464 92.6826 20.1213 93.2671 19.8619 93.7935C19.7767 93.9368 19.6722 94.1884 19.6064 94.3471C18.8051 96.209 18.3213 98.2142 18.1277 100.235C18.1006 100.444 18.0542 100.943 18.0309 101.145C18.0193 101.721 17.9419 102.712 17.9458 103.281C17.9767 104.09 17.9535 104.926 18.0116 105.732C18.2826 109.99 18.778 114.406 20.8838 118.196C22.4361 120.968 25.1458 123.503 28.4671 123.585C31.7884 123.461 33.7626 120.112 34.5406 117.201C35.1832 114.852 35.3071 112.394 35.28 109.966C35.2258 104.292 33.9406 98.4735 30.7355 93.7239C29.8103 92.369 28.6838 91.1652 27.3406 90.209L27.3948 90.12C31.0993 92.2219 33.3096 96.1548 34.7419 100.037C36.9096 105.91 37.5445 117.116 33.0851 122.001C30.5458 124.723 27.5922 124.738 24.5845 122.756C18.4103 118.486 16.5561 108.434 17.1406 101.381L17.16 101.067L17.2026 100.754C17.249 100.444 17.3342 99.8129 17.3767 99.5032C17.4271 99.0581 17.6748 98.0903 17.76 97.6452C17.9032 97.1419 18.0696 96.6348 18.2206 96.1316C18.3019 95.9148 18.4877 95.4619 18.569 95.249C18.7509 94.7574 19.0219 94.2929 19.2464 93.8206C19.6103 93.2013 20.0245 92.5355 20.4851 91.9897C21.0155 91.3394 21.6309 90.7432 22.3548 90.3097L22.409 90.3987H22.4129Z" fill="#3E6473"/>
<path d="M66.2904 121.618C101.117 121.618 129.387 96.3329 129.387 65.1019C129.387 33.871 101.117 8.58582 66.2904 8.58582C31.4633 8.58582 3.1936 33.8671 3.1936 65.1019C3.1936 96.3368 31.4633 121.618 66.2904 121.618Z" fill="url(#paint1_linear_15835_25486)"/>
<path d="M66.2904 8.97291C82.7575 8.97291 98.6207 15.0968 110.253 25.5097C121.843 35.8878 127.839 50.4465 127.839 65.1019C127.839 79.7574 122.617 93.5419 111.027 103.92C99.3949 114.337 82.7575 121.231 66.2904 121.231C49.8233 121.231 34.3472 114.333 22.7149 103.92C11.1252 93.5419 4.74199 79.7574 4.74199 65.1019C4.74199 50.4465 11.1252 36.6619 22.7149 26.2839C34.3472 15.8671 49.8233 8.97291 66.2904 8.97291ZM66.2904 8.58582C31.4633 8.58582 3.1936 33.8671 3.1936 65.1019C3.1936 96.3368 31.4633 121.618 66.2904 121.618C101.117 121.618 129.387 96.3329 129.387 65.1019C129.387 33.871 101.117 8.58582 66.2904 8.58582Z" fill="#3E6473"/>
<path d="M66.2903 121.812C31.3935 121.812 3 96.3716 3 65.1019C3 33.8322 31.3935 8.39221 66.2903 8.39221C101.187 8.39221 129.581 33.8322 129.581 65.1019C129.581 96.3716 101.187 121.812 66.2903 121.812ZM66.2903 8.77931C31.6065 8.77931 3.3871 34.0451 3.3871 65.1019C3.3871 96.1587 31.6065 121.424 66.2903 121.424C100.974 121.424 129.194 96.1587 129.194 65.1019C129.194 34.0451 100.974 8.77931 66.2903 8.77931Z" fill="#3E6473"/>
<path d="M90.0349 116.748C68.0052 124.173 59.1523 120.825 59.1523 120.825C59.1523 120.825 109.181 123.449 124.301 75.4375C124.595 68.551 128.079 70.0917 128.234 68.551C127.715 72.5768 128.234 100.626 90.0349 116.748Z" fill="#7DC6E1"/>
<path d="M6.48 79.1807C3.57628e-06 18.9794 61.4013 9.39486 65.2761 7.90454C51.5226 9.20519 6.00775 19.9858 3.96387 63.0774C3.54581 71.8529 6.48 79.1768 6.48 79.1768V79.1807Z" fill="#99DBE9"/>
<path d="M113.079 35.4348C113.079 35.4348 111.112 35.6322 110.52 36.8129C109.932 37.9935 111.503 39.96 112.487 39.3716C113.47 38.7793 114.848 36.4219 113.075 35.4387L113.079 35.4348Z" fill="#98DAE8"/>
<path d="M104.226 24.6155C104.226 24.6155 100.293 26.3845 103.44 30.1239C106.587 33.8632 107.768 34.649 109.142 32.6826C110.52 30.7161 109.537 25.6026 107.373 24.8129C105.209 24.0271 104.226 24.6155 104.226 24.6155Z" fill="#98DAE8"/>
<path d="M5.8722 56.7329C5.8722 56.7329 9.70833 55.6993 10.5948 57.1742C11.4812 58.649 11.4812 59.8297 9.70833 61.5987C7.93543 63.3677 7.49414 64.1071 6.1664 64.2542C4.83866 64.4013 5.8722 56.729 5.8722 56.729" fill="#98DAE8"/>
<path d="M7.99354 50.8335C7.99354 50.8335 10.0606 49.8 10.649 50.5393C11.2413 51.2787 10.0568 53.0477 9.02709 53.3419C7.99354 53.6361 6.95999 52.3084 7.99354 50.8335Z" fill="#98DAE8"/>
<path d="M67.5406 106.943C67.5406 106.943 68.3264 119.81 68.7213 120.693C66.36 121.184 64.2039 120.987 64.2039 120.987C64.2039 120.987 65.3768 113.729 65.1832 106.254C67.2503 106.057 67.5445 106.943 67.5445 106.943" fill="#7DC6E1"/>
<path d="M127.533 67.9626C127.533 67.9626 119.075 74.6788 113.272 73.9936C113.272 74.7794 112.943 75.9291 112.943 75.9291C112.943 75.9291 122.187 73.862 126.221 70.1265C128.071 69.4568 127.529 67.9665 127.529 67.9665L127.533 67.9626Z" fill="#98DAE8"/>
<path d="M127.355 69.1101C127.355 69.1101 121.677 74.4068 112.743 76.0601C112.743 76.837 112.258 77.0322 112.258 77.0322C112.258 77.0322 122.013 76.0601 126.289 71.1538C127.259 67.9428 127.355 69.1101 127.355 69.1101Z" fill="#7DC6E1"/>
<path d="M113.09 77.6362C113.09 93.6503 92.4775 107.079 66.1781 107.079C39.8787 107.079 18.9678 93.8478 18.9678 77.8336C18.9678 61.8194 39.8787 49.0878 66.1781 49.0878C92.4775 49.0878 113.09 61.622 113.09 77.6362Z" fill="#3C8998"/>
<path d="M113.667 72.7471C113.667 88.7613 92.4967 102.058 66.1973 102.058C39.898 102.058 18.5806 89.0788 18.5806 73.0607C18.5806 57.0426 39.9019 43.5446 66.1973 43.5446C92.4928 43.5446 113.667 56.7329 113.667 72.7433V72.7471Z" fill="#98DAE8"/>
<path d="M66.0464 103.974C91.8347 103.974 112.738 90.9909 112.738 74.9806C112.738 58.9703 91.8347 45.9871 66.0464 45.9871C40.258 45.9871 19.3547 58.9703 19.3547 74.9806C19.3547 90.9909 40.258 103.974 66.0464 103.974Z" fill="#B659EF"/>
<path d="M111.097 75.6774C111.089 75.9716 110.543 75.5806 110.516 75.8709C110.334 77.6245 109.928 78.6658 109.111 80.2296C93.6967 111.944 29.818 108.321 21.9213 75.6503C21.0387 75.5806 20.5083 75.5264 19.6296 75.4645C20.4851 91.0103 40.6993 103.452 65.9419 103.452C91.1845 103.452 112.254 90.9212 112.39 74.9806C112.064 75.2903 112.134 75.6387 111.484 75.4838L111.097 75.6774Z" fill="#9529F4"/>
<path d="M65.8065 99.871C87.4005 99.871 104.903 88.8654 104.903 75.2904C104.903 61.7153 87.3966 50.7097 65.8065 50.7097C44.2164 50.7097 26.7097 61.7153 26.7097 75.2904C26.7097 88.8654 44.2164 99.871 65.8065 99.871Z" fill="#290052"/>
<path fill-rule="evenodd" clip-rule="evenodd" d="M38.2607 58.4052C31.2233 62.7755 26.9768 68.7407 26.9768 75.2439C26.9768 81.7471 31.2233 87.7162 38.2607 92.0826C45.2904 96.4452 55.0297 99.1626 65.8181 99.1626C76.6065 99.1626 86.3497 96.4452 93.3755 92.0826C100.409 87.7123 104.656 81.7471 104.656 75.2439C104.656 68.7407 100.409 62.7755 93.3755 58.4052C86.3497 54.0426 76.6065 51.3252 65.8181 51.3252C55.0297 51.3252 45.2904 54.0426 38.2607 58.4052ZM37.711 57.5187C44.9304 53.0362 54.8672 50.28 65.8181 50.28C76.7691 50.28 86.7097 53.0362 93.9252 57.5187C101.137 61.9974 105.701 68.2491 105.701 75.2439C105.701 82.2387 101.137 88.4942 93.9252 92.9729C86.7059 97.4555 76.7691 100.212 65.8181 100.212C54.8672 100.212 44.9265 97.4555 37.711 92.9729C30.4994 88.4942 25.9355 82.2426 25.9355 75.2439C25.9355 68.2452 30.4994 61.9936 37.711 57.5187Z" fill="#4F0D76"/>
<path fill-rule="evenodd" clip-rule="evenodd" d="M65.2181 99.9522C65.2181 99.9522 65.2181 99.9522 65.7368 100.022C66.0826 100.071 66.2555 100.094 66.2555 100.092V100.107C66.2555 100.107 66.2517 100.134 66.2478 100.161C66.2439 100.208 66.2362 100.281 66.2284 100.378C66.213 100.572 66.1975 100.854 66.1936 101.21C66.1897 101.923 66.2362 102.917 66.4568 104.048L65.431 104.245C65.1988 103.034 65.1446 101.965 65.1523 101.203C65.1523 100.819 65.1717 100.51 65.191 100.297C65.1988 100.188 65.2065 100.107 65.2142 100.045C65.2142 100.014 65.2181 99.9948 65.222 99.9755C65.222 99.9677 65.222 99.96 65.222 99.9561V99.9484L65.2181 99.9522Z" fill="#4F0D76"/>
<path fill-rule="evenodd" clip-rule="evenodd" d="M19.3547 76.2177C19.3547 76.2177 19.3547 76.2177 19.5056 75.7092C19.6062 75.3702 19.6565 75.2007 19.6565 75.2007H19.6637C19.6637 75.2007 19.6781 75.2086 19.6889 75.2126C19.714 75.2205 19.75 75.2324 19.8003 75.2483C19.9009 75.2761 20.0482 75.3199 20.235 75.3636C20.6123 75.451 21.1512 75.5423 21.7836 75.5662C23.0519 75.6139 24.6795 75.3874 26.185 74.3226L26.7096 75.2245C24.9849 76.4442 23.1453 76.6905 21.7513 76.6389C21.0542 76.6111 20.4614 76.5117 20.041 76.4164C19.8326 76.3687 19.6637 76.321 19.5452 76.2893C19.4877 76.2734 19.441 76.2575 19.4086 76.2456C19.3943 76.2416 19.3799 76.2376 19.3727 76.2336H19.3583L19.3547 76.2177Z" fill="#4F0D76"/>
<path fill-rule="evenodd" clip-rule="evenodd" d="M112.452 76.2177C112.452 76.2177 112.452 76.2177 112.301 75.7092C112.2 75.3702 112.15 75.2007 112.15 75.2007H112.143C112.143 75.2007 112.128 75.2086 112.118 75.2126C112.092 75.2205 112.056 75.2324 112.006 75.2483C111.906 75.2761 111.758 75.3199 111.571 75.3636C111.194 75.451 110.655 75.5423 110.023 75.5662C108.754 75.6139 107.127 75.3874 105.621 74.3226L105.097 75.2245C106.821 76.4442 108.661 76.6905 110.055 76.6389C110.752 76.6111 111.345 76.5117 111.765 76.4164C111.974 76.3687 112.143 76.321 112.261 76.2893C112.319 76.2734 112.365 76.2575 112.398 76.2456C112.412 76.2416 112.427 76.2376 112.434 76.2336H112.448L112.452 76.2177Z" fill="#4F0D76"/>
<path d="M115.564 72.6774C116.021 72.6232 116.334 72.0968 116.265 71.5045C116.195 70.9122 115.761 70.4748 115.305 70.5329C114.848 70.5871 114.534 71.1135 114.604 71.7058C114.674 72.298 115.103 72.7355 115.564 72.6774Z" fill="#406B79"/>
<path d="M115.87 81.5923C116.021 81.0155 115.785 80.4504 115.339 80.3342C114.894 80.2181 114.407 80.5897 114.256 81.1665C114.101 81.7433 114.341 82.3084 114.786 82.4245C115.231 82.5445 115.719 82.1691 115.87 81.5923Z" fill="#406B79"/>
<path d="M17.4581 81.5806C17.9149 81.4993 18.1975 80.9613 18.0968 80.3729C17.9962 79.7845 17.5433 79.3703 17.0865 79.4516C16.6297 79.5329 16.3472 80.0709 16.4478 80.6593C16.5485 81.2477 17.0014 81.6619 17.4581 81.5806Z" fill="#406B79"/>
<path d="M17.9536 70.9238C18.0775 70.3393 17.8104 69.7896 17.3575 69.6929C16.9046 69.6 16.4401 69.9948 16.3162 70.5793C16.1923 71.1638 16.4594 71.7135 16.9123 71.8103C17.3652 71.9032 17.8297 71.5083 17.9536 70.9238Z" fill="#406B79"/>
<path d="M19.1419 77.4271C9.47226 75.569 4.33936 69.6774 4.33936 69.6774L4.49032 67.5135C4.49032 67.5135 9.46839 72.0929 18.9755 74.6477C18.9639 75.6813 19.1071 76.7264 19.1381 77.4232L19.1419 77.4271Z" fill="#98DAE8"/>
<path fill-rule="evenodd" clip-rule="evenodd" d="M3.10062 68.153C3.10062 68.153 3.10062 68.153 3.27399 67.9475L3.44735 67.7419H3.45129L3.46705 67.7581C3.46705 67.7581 3.50252 67.7903 3.5301 67.8145C3.58526 67.8629 3.668 67.9354 3.77833 68.0281C3.99504 68.2135 4.31419 68.4755 4.72791 68.7979C5.54746 69.4427 6.72951 70.3133 8.16373 71.2282C11.0361 73.058 14.9172 75.049 18.9676 75.722L18.881 76.2581C14.728 75.5689 10.78 73.5376 7.88003 71.6877C6.42612 70.7607 5.23225 69.878 4.40087 69.2291C3.98322 68.9027 3.66012 68.6367 3.43947 68.4473C3.32915 68.3546 3.24247 68.282 3.1873 68.2296C3.15972 68.2054 3.13608 68.1853 3.12032 68.1732L3.10456 68.1571H3.09668L3.10062 68.153Z" fill="#406B79"/>
<path fill-rule="evenodd" clip-rule="evenodd" d="M127.459 68.9768L127.63 69.1742L127.8 69.3716H127.796L127.781 69.3871C127.781 69.3871 127.75 69.4142 127.722 69.4335C127.672 69.4761 127.599 69.5381 127.502 69.6155C127.308 69.7742 127.022 69.9987 126.654 70.2735C125.919 70.8232 124.854 71.5665 123.538 72.3561C120.906 73.9277 116.864 75.6697 112.788 76.3316L112.703 75.8168C116.69 75.1703 120.67 73.4632 123.267 71.9071C124.568 71.1329 125.617 70.3974 126.341 69.8555C126.701 69.5845 126.983 69.3639 127.173 69.209C127.266 69.1316 127.339 69.0735 127.386 69.031C127.409 69.0116 127.428 68.9961 127.44 68.9845L127.452 68.9729L127.459 68.9768Z" fill="#406B79"/>
<path fill-rule="evenodd" clip-rule="evenodd" d="M65.6749 104.396L65.9343 104.365C66.1936 104.334 66.1936 104.334 66.1936 104.334V104.361C66.1936 104.361 66.2014 104.4 66.2053 104.435C66.213 104.497 66.2517 104.81 66.2633 104.93C66.2865 105.174 66.3214 105.53 66.3562 105.983C66.4298 106.889 66.5111 108.178 66.5536 109.719C66.6388 112.8 66.4182 117.418 65.7756 121.471L65.2607 121.39C65.8956 117.379 66.1162 112.8 66.0311 109.734C65.9885 108.201 65.9072 106.924 65.8336 106.026C65.7988 105.577 65.764 105.225 65.7407 104.985C65.7291 104.865 65.7175 104.772 65.7136 104.71C65.7136 104.679 65.6788 104.439 65.6749 104.423L65.702 104.625L65.6711 104.4L65.6749 104.396Z" fill="#406B79"/>
<path d="M70.9548 108.248C71.5432 108.151 71.9613 107.702 71.8838 107.245C71.8064 106.788 71.2684 106.502 70.68 106.599C70.0916 106.696 69.6735 107.145 69.7509 107.601C69.8284 108.058 70.3664 108.348 70.9548 108.248Z" fill="#406B79"/>
<path d="M62.102 107.702C62.1988 107.249 61.804 106.781 61.2233 106.657C60.6388 106.529 60.0891 106.792 59.9885 107.245C59.8917 107.698 60.2865 108.166 60.8672 108.29C61.4517 108.418 62.0014 108.155 62.102 107.702Z" fill="#406B79"/>
<path d="M84.9484 16.5329C84.9484 16.5329 84.391 24.4026 75.3097 24.4026C67.6374 24.4026 65.2761 16.142 65.2761 16.142L84.9484 16.5368V16.5329Z" fill="#47979E"/>
<path d="M65.0787 17.5162C78.8478 22.2387 85.7342 19.0916 86.911 16.5329C90.8439 8.07487 73.1419 7.28906 73.1419 7.28906C73.1419 7.28906 67.6336 7.48648 63.1084 10.2387" fill="#96BEC7"/>
<path d="M66.1007 12.0852C73.8349 8.66326 74.6207 8.7639 79.9046 8.28777C76.4633 7.43616 73.1498 7.28906 73.1498 7.28906C73.1498 7.28906 67.6414 7.48648 63.1162 10.2387L65.0827 10.7613C65.5162 9.97164 65.2801 12.4491 66.1007 12.0852Z" fill="#47979E"/>
<path d="M79.9006 8.28772C80.8335 12.2787 79.8348 16.3935 77.4348 19.5251C82.7574 19.6335 85.6219 17.8993 86.3187 16.3897C88.0993 11.4387 83.849 9.15095 79.9006 8.28772Z" fill="#57BF38"/>
<path d="M85.1999 10.6451C85.3161 10.8929 85.3935 10.9432 85.4864 11.1987C85.8735 12.2322 85.8812 13.3161 85.6296 14.3806C85.2193 16.1109 83.9302 17.7484 82.6257 18.9832C84.9019 18.3677 86.2296 17.338 86.6825 16.3974C88.1148 14.4735 86.8954 11.9109 85.1999 10.649V10.6451Z" fill="#6FE043"/>
<path d="M65.0788 17.5161C70.8039 19.1148 80.2801 21.0967 85.4052 17.4193C90.1704 12.6929 82.5678 8.99222 78.3407 8.47738C73.1691 7.12254 67.8233 7.80383 63.1123 10.2387C67.6104 7.21157 73.2697 6.2477 78.542 7.45157C97.3859 11.1174 86.5549 26.9342 65.0788 17.5161H65.0826H65.0788Z" fill="#446372"/>
<path d="M65.7678 12.2052C72.4065 8.81421 77.6671 4.79615 77.6323 2.9226C77.8297 -2.73288 68.7755 1.62195 64.6374 3.54583C63.3639 4.13808 62.1445 4.8426 60.991 5.64776C58.8581 7.13808 55.6955 8.79099 53.4929 11.2878" fill="#96BEC7"/>
<path d="M75.8516 0.696783C68.7136 0.139364 58.5407 6.27098 53.0129 11.5239L56.3265 9.70453C62.8181 5.80646 70.2194 2.65936 75.8516 0.696783Z" fill="#99DBE9"/>
<path d="M68.6555 1.58317C70.7845 3.34833 70.9084 6.93672 69.8826 9.91736C78.96 4.45156 78.9987 -2.22586 68.6555 1.58317Z" fill="#57BF38"/>
<path d="M73.6685 0.468378C76.7381 1.43225 75.4491 4.45935 74.2762 6.73935C77.7639 4.20773 78.4143 0.011604 73.6685 0.468378Z" fill="#6FE043"/>
<path d="M77.4387 0.696773C73.1923 -2.47355 57.6775 5.90322 53.0129 11.5239C57.3368 7.42064 74.7678 -2.10968 76.8194 1.54064C78.871 5.19097 68.4271 10.231 65.7678 12.2052C69.3562 10.3006 81.6852 3.86709 77.4387 0.696773Z" fill="#446372"/>
<path d="M2.90332 65.102C2.90332 96.3329 31.173 121.618 66.0001 121.618C66.0698 121.618 66.1395 121.614 66.2091 121.614L66.0465 121.231C66.0465 121.231 66.0156 121.231 66.0001 121.231C49.533 121.231 34.0569 114.333 22.4246 103.92C10.8349 93.542 4.45171 79.7574 4.45171 65.102C4.45171 50.4465 10.8349 36.662 22.4246 26.2839C31.3046 18.3329 42.4259 12.4374 54.5188 10.0878L55.324 9.39099C25.5756 13.9394 2.90332 37.1303 2.90332 65.102Z" fill="#3E6473"/>
<path d="M86.3148 11.578L86.729 12.2593C95.3922 15.0696 103.359 19.5986 109.963 25.5096C121.552 35.8877 127.548 50.4464 127.548 65.1019C127.548 79.7574 122.326 93.5419 110.737 103.92C99.1045 114.337 82.467 121.231 66 121.231C65.8683 121.231 65.7367 121.223 65.6051 121.208L65.5393 121.606C65.6941 121.61 65.8451 121.618 66 121.618C100.827 121.618 129.097 96.3328 129.097 65.1019C129.097 40.2425 111.186 19.1535 86.3148 11.5819V11.578Z" fill="#3E6473"/>
<path fill-rule="evenodd" clip-rule="evenodd" d="M33.2013 54.9213C24.84 60.1122 19.7729 67.2193 19.7729 74.9806C19.7729 82.7419 24.84 89.8451 33.2013 95.04C41.5549 100.227 53.1291 103.455 65.942 103.455C78.7549 103.455 90.3291 100.231 98.6826 95.04C107.044 89.8451 112.111 82.7419 112.111 74.9806C112.111 67.2193 107.044 60.1161 98.6826 54.9213C90.3291 49.7342 78.7549 46.5058 65.942 46.5058C53.1291 46.5058 41.5549 49.7303 33.2013 54.9213ZM32.6517 54.0348C41.1949 48.7277 52.9704 45.4645 65.9458 45.4645C78.9213 45.4645 90.6929 48.7277 99.2362 54.0348C107.772 59.3342 113.16 66.7277 113.16 74.9806C113.16 83.2335 107.776 90.6271 99.2362 95.9264C90.6929 101.234 78.9175 104.497 65.9458 104.497C52.9742 104.497 41.1987 101.234 32.6517 95.9264C24.1162 90.6232 18.7278 83.2335 18.7278 74.9806C18.7278 66.7277 24.1123 59.3342 32.6517 54.0348Z" fill="#4F0D76"/>
<path d="M101.419 67.8542C96.2594 58.7701 82.3079 52.2581 65.9062 52.2581C45.1147 52.2581 28.2581 62.7179 28.2581 75.6183C28.2581 78.8683 29.3276 81.9628 31.2591 84.7742C52.4935 56.3096 91.0236 56.3774 101.415 67.8542H101.419Z" fill="#CB50FF" fill-opacity="0.32"/>
<path d="M65.5 89C68.5358 89 71 86.5672 71 83.5702V82H65.5H60V83.5702C60 86.5672 62.4642 89 65.5 89Z" stroke="#DD13FD" stroke-width="2" stroke-linecap="round" stroke-linejoin="round"/>
<path d="M47 80V79.0958C47 76.2831 49.2402 74 52 74C54.7598 74 57 76.2831 57 79.0958V80" stroke="#DD13FD" stroke-width="2" stroke-miterlimit="10" stroke-linecap="round"/>
<path d="M48 70C48 70 49.7885 69 52 69C54.2115 69 56 70 56 70" stroke="#DD13FD" stroke-width="2" stroke-miterlimit="10" stroke-linecap="round"/>
<path d="M84 80V79.0958C84 76.2831 81.7598 74 79 74C76.2402 74 74 76.2831 74 79.0958V80" stroke="#DD13FD" stroke-width="2" stroke-miterlimit="10" stroke-linecap="round"/>
<path d="M83 70C83 70 81.2115 69 79 69C76.7885 69 75 70 75 70" stroke="#DD13FD" stroke-width="2" stroke-miterlimit="10" stroke-linecap="round"/>
<rect x="74" y="82" width="11" height="7" rx="3.5" fill="#DD13FD" fill-opacity="0.3"/>
<rect x="46" y="82" width="11" height="7" rx="3.5" fill="#DD13FD" fill-opacity="0.3"/>
</g>
</g>
<defs>
<linearGradient id="paint0_linear_15835_25486" x1="64.7459" y1="125.381" x2="67.1227" y2="11.2723" gradientUnits="userSpaceOnUse">
<stop stop-color="#669FBA"/>
<stop offset="0.13" stop-color="#72A6BD"/>
<stop offset="0.42" stop-color="#85B3C2"/>
<stop offset="0.71" stop-color="#91BBC5"/>
<stop offset="1" stop-color="#96BEC7"/>
</linearGradient>
<linearGradient id="paint1_linear_15835_25486" x1="65.0362" y1="125.381" x2="67.413" y2="11.2723" gradientUnits="userSpaceOnUse">
<stop stop-color="#669FBA"/>
<stop offset="0.13" stop-color="#72A6BD"/>
<stop offset="0.42" stop-color="#85B3C2"/>
<stop offset="0.71" stop-color="#91BBC5"/>
<stop offset="1" stop-color="#96BEC7"/>
</linearGradient>
<clipPath id="clip0_15835_25486">
<rect width="132" height="124.157" fill="white"/>
</clipPath>
<clipPath id="clip1_15835_25486">
<rect width="132" height="124.157" fill="white"/>
</clipPath>
</defs>
</svg>
