<svg width="500" height="500" viewBox="0 0 500 500" fill="none" xmlns="http://www.w3.org/2000/svg">
<g clip-path="url(#clip0_15787_21073)">
<rect width="500" height="500" fill="#7424CF"/>
<path d="M225.591 230.464C356.227 275.27 421.564 245.412 432.729 221.135C470.043 140.888 302.092 133.432 302.092 133.432C302.092 133.432 249.83 135.305 206.897 161.418" fill="#96BEC7"/>
<path d="M235.287 178.936C308.667 146.47 316.122 147.425 366.254 142.908C333.604 134.828 302.166 133.432 302.166 133.432C302.166 133.432 249.904 135.305 206.971 161.418L225.628 166.376C229.741 158.884 227.501 182.389 235.287 178.936V178.936Z" fill="#47979E"/>
<path d="M366.218 142.908C375.069 180.773 365.594 219.814 342.823 249.525C393.323 250.554 420.5 234.1 427.111 219.777C444.005 172.804 403.679 151.098 366.218 142.908V142.908Z" fill="#57BF38"/>
<path d="M416.497 165.274C417.599 167.625 418.334 168.102 419.215 170.526C422.888 180.332 422.961 190.615 420.574 200.715C416.681 217.132 404.451 232.667 392.074 244.383C413.669 238.544 426.267 228.774 430.564 219.85C444.152 201.597 432.584 177.284 416.497 165.311V165.274Z" fill="#6FE043"/>
<path d="M225.59 230.464C279.909 245.633 369.815 264.437 418.441 229.546C463.652 184.703 391.521 149.592 351.415 144.708C302.349 131.854 251.629 138.317 206.933 161.418C249.609 132.698 303.303 123.553 353.325 134.975C532.11 169.755 429.349 319.82 225.59 230.464H225.627H225.59Z" fill="#446372"/>
<path d="M232.126 180.073C295.112 147.901 345.024 109.778 344.693 92.0028C346.566 38.3452 260.663 79.6627 221.402 97.9158C209.319 103.535 197.75 110.219 186.805 117.858C166.569 131.998 136.563 147.68 115.666 171.369" fill="#96BEC7"/>
<path d="M327.798 70.8853C260.074 65.5966 163.557 123.772 111.111 173.61L142.549 156.348C204.14 119.364 274.361 89.5057 327.798 70.8853V70.8853Z" fill="#99DBE9"/>
<path d="M259.524 79.2953C279.723 96.0427 280.899 130.088 271.166 158.368C357.29 106.51 357.657 43.1564 259.524 79.2953Z" fill="#57BF38"/>
<path d="M307.087 68.72C336.211 77.8649 323.981 106.585 312.853 128.217C345.944 104.198 352.114 64.3862 307.087 68.72V68.72Z" fill="#6FE043"/>
<path d="M342.856 70.8857C302.567 40.8066 155.367 120.283 111.111 173.61C152.135 134.68 317.515 44.2589 336.98 78.8921C356.445 113.525 257.356 161.343 232.125 180.074C266.171 162.004 383.145 100.965 342.856 70.8857V70.8857Z" fill="#446372"/>
<path d="M635.607 557.163C635.607 684.26 467.588 789.79 258.863 789.79C50.1382 789.79 -119.048 686.779 -119.048 559.652C-119.048 432.524 50.169 325.397 258.863 325.397C467.558 325.397 635.607 430.067 635.607 557.133V557.163Z" fill="#98DAE8"/>
<path d="M257.667 804.998C462.337 804.998 628.235 701.956 628.235 574.89C628.235 447.824 462.337 344.783 257.667 344.783C52.9972 344.783 -112.901 447.824 -112.901 574.89C-112.901 701.956 52.9972 804.998 257.667 804.998V804.998Z" fill="#B659EF"/>
<path fill-rule="evenodd" clip-rule="evenodd" d="M-3.01175 415.69C-69.3712 456.888 -109.586 513.294 -109.586 574.891C-109.586 636.489 -69.3712 692.864 -3.01175 734.092C63.2862 775.26 155.145 800.882 256.835 800.882C358.524 800.882 450.383 775.291 516.681 734.092C583.04 692.864 623.255 636.489 623.255 574.891C623.255 513.294 583.04 456.919 516.681 415.69C450.383 374.523 358.524 348.9 256.835 348.9C155.145 348.9 63.2862 374.492 -3.01175 415.69V415.69ZM-7.37427 408.655C60.4291 366.535 153.885 340.636 256.865 340.636C359.845 340.636 453.271 366.535 521.074 408.655C588.816 450.713 631.581 509.392 631.581 574.891C631.581 640.39 588.847 699.069 521.074 741.128C453.271 783.248 359.815 809.146 256.865 809.146C153.916 809.146 60.4598 783.248 -7.37427 741.128C-75.1162 699.039 -117.881 640.39 -117.881 574.891C-117.881 509.392 -75.1469 450.713 -7.37427 408.655V408.655Z" fill="#4F0D76"/>
<path d="M254.736 763.185C426.117 763.185 565.028 675.839 565.028 568.1C565.028 460.362 426.087 373.016 254.736 373.016C83.3861 373.016 -55.5555 460.362 -55.5555 568.1C-55.5555 675.839 83.3861 763.185 254.736 763.185Z" fill="#290052"/>
<path d="M515.873 479.926C477.81 422.278 374.896 380.952 253.906 380.952C100.536 380.952 -23.8095 447.331 -23.8095 529.198C-23.8095 549.823 -15.9202 569.461 -1.67232 587.302C154.966 406.664 439.188 407.094 515.844 479.926H515.873Z" fill="#CB50FF" fill-opacity="0.32"/>
<circle cx="250" cy="605.703" r="456.5" fill="#96BEC7" stroke="#3E6473" stroke-width="9"/>
<path d="M226.17 230.229C353.702 273.97 417.486 244.821 428.386 221.122C464.813 142.781 300.854 135.503 300.854 135.503C300.854 135.503 249.834 137.331 207.921 162.823" fill="#96BEC7"/>
<path d="M235.637 179.926C307.273 148.231 314.551 149.163 363.492 144.753C331.618 136.865 300.927 135.503 300.927 135.503C300.927 135.503 249.907 137.331 207.994 162.823L226.207 167.664C230.223 160.349 228.036 183.296 235.637 179.926V179.926Z" fill="#47979E"/>
<path d="M363.457 144.754C372.098 181.719 362.847 219.832 340.618 248.837C389.917 249.841 416.449 233.779 422.903 219.796C439.395 173.939 400.028 152.749 363.457 144.754V144.754Z" fill="#57BF38"/>
<path d="M412.541 166.588C413.617 168.883 414.334 169.349 415.194 171.715C418.779 181.288 418.851 191.327 416.521 201.187C412.72 217.214 400.781 232.38 388.698 243.817C409.78 238.117 422.078 228.579 426.273 219.867C439.539 202.048 428.245 178.312 412.541 166.624V166.588Z" fill="#6FE043"/>
<path d="M226.17 230.229C279.198 245.037 366.968 263.394 414.438 229.333C458.574 185.555 388.157 151.279 349.005 146.51C301.104 133.962 251.59 140.272 207.956 162.824C249.618 134.786 302.036 125.859 350.869 137.009C525.406 170.963 425.087 317.461 226.17 230.229H226.206H226.17Z" fill="#446372"/>
<path d="M232.55 181.035C294.04 149.627 342.765 112.411 342.442 95.0573C344.271 42.6749 260.409 83.0104 222.081 100.83C210.285 106.315 198.991 112.841 188.307 120.298C168.551 134.102 139.259 149.412 118.858 172.537" fill="#96BEC7"/>
<path d="M325.949 74.4416C259.835 69.2787 165.611 126.071 114.412 174.725L145.103 157.873C205.229 121.769 273.782 92.6195 325.949 74.4416V74.4416Z" fill="#99DBE9"/>
<path d="M259.297 82.6518C279.017 99.0012 280.164 132.238 270.663 159.845C354.74 109.22 355.099 47.3717 259.297 82.6518Z" fill="#57BF38"/>
<path d="M305.731 72.3281C334.163 81.2557 322.223 109.293 311.36 130.411C343.664 106.963 349.687 68.0973 305.731 72.3281V72.3281Z" fill="#6FE043"/>
<path d="M340.649 74.4424C301.318 45.0781 157.616 122.666 114.412 174.725C154.46 136.72 315.91 48.4484 334.913 82.2585C353.915 116.069 257.182 162.75 232.55 181.036C265.786 163.396 379.981 103.807 340.649 74.4424V74.4424Z" fill="#446372"/>
<path d="M626.443 549.164C626.443 673.24 462.418 776.262 258.653 776.262C54.888 776.262 -110.277 675.699 -110.277 551.593C-110.277 427.487 54.918 322.905 258.653 322.905C462.388 322.905 626.443 425.087 626.443 549.134V549.164Z" fill="#98DAE8"/>
<path d="M257.485 791.108C457.29 791.108 619.246 690.516 619.246 566.469C619.246 442.423 457.29 341.83 257.485 341.83C57.6788 341.83 -104.277 442.423 -104.277 566.469C-104.277 690.516 57.6788 791.108 257.485 791.108V791.108Z" fill="#B659EF"/>
<path fill-rule="evenodd" clip-rule="evenodd" d="M3.00111 411.053C-61.7813 451.272 -101.041 506.337 -101.041 566.471C-101.041 626.604 -61.7813 681.639 3.00111 721.889C67.7236 762.078 157.399 787.091 256.672 787.091C355.945 787.091 445.621 762.108 510.343 721.889C575.126 681.639 614.385 626.604 614.385 566.471C614.385 506.337 575.126 451.302 510.343 411.053C445.621 370.864 355.945 345.85 256.672 345.85C157.399 345.85 67.7236 370.834 3.00111 411.053V411.053ZM-1.25773 404.185C64.9343 363.066 156.17 337.783 256.702 337.783C357.235 337.783 448.44 363.066 514.632 404.185C580.764 445.244 622.513 502.528 622.513 566.471C622.513 630.413 580.794 687.698 514.632 728.757C448.44 769.876 357.205 795.159 256.702 795.159C156.2 795.159 64.9643 769.876 -1.25773 728.757C-67.3898 687.668 -109.138 630.413 -109.138 566.471C-109.138 502.528 -67.4198 445.244 -1.25773 404.185V404.185Z" fill="#4F0D76"/>
<path d="M254.624 750.289C421.932 750.289 557.542 665.019 557.542 559.841C557.542 454.663 421.902 369.393 254.624 369.393C87.3457 369.393 -48.294 454.663 -48.294 559.841C-48.294 665.019 87.3457 750.289 254.624 750.289Z" fill="#290052"/>
<path d="M509.555 473.762C472.396 417.484 371.927 377.14 253.813 377.14C104.087 377.14 -17.3026 441.942 -17.3026 521.863C-17.3026 541.998 -9.60079 561.169 4.30849 578.586C157.224 402.241 434.692 402.661 509.526 473.762H509.555Z" fill="#CB50FF" fill-opacity="0.32"/>
</g>
<defs>
<clipPath id="clip0_15787_21073">
<rect width="500" height="500" fill="white"/>
</clipPath>
</defs>
</svg>
